{
	"asset":{
		"generator":"Khronos glTF Blender I/O v4.5.48",
		"version":"2.0"
	},
	"scene":0,
	"scenes":[
		{
			"name":"Scene",
			"nodes":[
				0
			]
		}
	],
	"nodes":[
		{
			"mesh":0,
			"name":"PrototypeObstacle__road__road.001",
			"scale":[
				31.899999618530273,
				1,
				22.419998168945312
			],
			"translation":[
				0,
				-1.5,
				104.33999633789062
			]
		}
	],
	"materials":[
		{
			"doubleSided":true,
			"name":"sidr_walk",
			"normalTexture":{
				"index":0
			},
			"pbrMetallicRoughness":{
				"baseColorTexture":{
					"index":1
				},
				"metallicFactor":0,
				"roughnessFactor":0.5
			}
		},
		{
			"doubleSided":true,
			"name":"road_tex",
			"pbrMetallicRoughness":{
				"baseColorTexture":{
					"index":2
				},
				"metallicFactor":0,
				"roughnessFactor":0.5
			}
		},
		{
			"doubleSided":true,
			"name":"pole.001",
			"pbrMetallicRoughness":{
				"baseColorTexture":{
					"index":3
				},
				"roughnessFactor":0.37727299332618713
			}
		}
	],
	"meshes":[
		{
			"name":"Object_3",
			"primitives":[
				{
					"attributes":{
						"POSITION":0,
						"NORMAL":1,
						"TEXCOORD_0":2,
						"TEXCOORD_1":3
					},
					"indices":4,
					"material":0
				},
				{
					"attributes":{
						"POSITION":5,
						"NORMAL":6,
						"TEXCOORD_0":7,
						"TEXCOORD_1":8
					},
					"indices":9,
					"material":1
				},
				{
					"attributes":{
						"POSITION":10,
						"NORMAL":11,
						"TEXCOORD_0":12,
						"TEXCOORD_1":13
					},
					"indices":14,
					"material":2
				}
			]
		}
	],
	"textures":[
		{
			"sampler":0,
			"source":0
		},
		{
			"sampler":0,
			"source":1
		},
		{
			"sampler":0,
			"source":2
		},
		{
			"sampler":0,
			"source":3
		}
	],
	"images":[
		{
			"mimeType":"image/png",
			"name":"sidr_walk_normal",
			"uri":"sidr_walk_normal.png"
		},
		{
			"mimeType":"image/png",
			"name":"sidr_walk_baseColor",
			"uri":"sidr_walk_baseColor.png"
		},
		{
			"mimeType":"image/jpeg",
			"name":"road_tex_baseColor",
			"uri":"road_tex_baseColor.jpg"
		},
		{
			"mimeType":"image/png",
			"name":"pole_baseColor",
			"uri":"pole_baseColor.png"
		}
	],
	"accessors":[
		{
			"bufferView":0,
			"componentType":5126,
			"count":651,
			"max":[
				0.9939340949058533,
				0.024845443665981293,
				1.0006873607635498
			],
			"min":[
				-0.9939340949058533,
				-0.024845443665981293,
				-11.007561683654785
			],
			"type":"VEC3"
		},
		{
			"bufferView":1,
			"componentType":5126,
			"count":651,
			"type":"VEC3"
		},
		{
			"bufferView":2,
			"componentType":5126,
			"count":651,
			"type":"VEC2"
		},
		{
			"bufferView":3,
			"componentType":5126,
			"count":651,
			"type":"VEC2"
		},
		{
			"bufferView":4,
			"componentType":5123,
			"count":936,
			"type":"SCALAR"
		},
		{
			"bufferView":5,
			"componentType":5126,
			"count":346,
			"max":[
				0.8115173578262329,
				0.01759110763669014,
				0.9925263524055481
			],
			"min":[
				-0.8115131855010986,
				-0.0024088742211461067,
				-10.995906829833984
			],
			"type":"VEC3"
		},
		{
			"bufferView":6,
			"componentType":5126,
			"count":346,
			"type":"VEC3"
		},
		{
			"bufferView":7,
			"componentType":5126,
			"count":346,
			"type":"VEC2"
		},
		{
			"bufferView":8,
			"componentType":5126,
			"count":346,
			"type":"VEC2"
		},
		{
			"bufferView":9,
			"componentType":5123,
			"count":576,
			"type":"SCALAR"
		},
		{
			"bufferView":10,
			"componentType":5126,
			"count":5062,
			"max":[
				-0.3636733889579773,
				25.628074645996094,
				0.05367624759674072
			],
			"min":[
				-0.8833485245704651,
				-0.5480747222900391,
				-10.06054973602295
			],
			"type":"VEC3"
		},
		{
			"bufferView":11,
			"componentType":5126,
			"count":5062,
			"type":"VEC3"
		},
		{
			"bufferView":12,
			"componentType":5126,
			"count":5062,
			"type":"VEC2"
		},
		{
			"bufferView":13,
			"componentType":5126,
			"count":5062,
			"type":"VEC2"
		},
		{
			"bufferView":14,
			"componentType":5123,
			"count":16992,
			"type":"SCALAR"
		}
	],
	"bufferViews":[
		{
			"buffer":0,
			"byteLength":7812,
			"byteOffset":0,
			"target":34962
		},
		{
			"buffer":0,
			"byteLength":7812,
			"byteOffset":7812,
			"target":34962
		},
		{
			"buffer":0,
			"byteLength":5208,
			"byteOffset":15624,
			"target":34962
		},
		{
			"buffer":0,
			"byteLength":5208,
			"byteOffset":20832,
			"target":34962
		},
		{
			"buffer":0,
			"byteLength":1872,
			"byteOffset":26040,
			"target":34963
		},
		{
			"buffer":0,
			"byteLength":4152,
			"byteOffset":27912,
			"target":34962
		},
		{
			"buffer":0,
			"byteLength":4152,
			"byteOffset":32064,
			"target":34962
		},
		{
			"buffer":0,
			"byteLength":2768,
			"byteOffset":36216,
			"target":34962
		},
		{
			"buffer":0,
			"byteLength":2768,
			"byteOffset":38984,
			"target":34962
		},
		{
			"buffer":0,
			"byteLength":1152,
			"byteOffset":41752,
			"target":34963
		},
		{
			"buffer":0,
			"byteLength":60744,
			"byteOffset":42904,
			"target":34962
		},
		{
			"buffer":0,
			"byteLength":60744,
			"byteOffset":103648,
			"target":34962
		},
		{
			"buffer":0,
			"byteLength":40496,
			"byteOffset":164392,
			"target":34962
		},
		{
			"buffer":0,
			"byteLength":40496,
			"byteOffset":204888,
			"target":34962
		},
		{
			"buffer":0,
			"byteLength":33984,
			"byteOffset":245384,
			"target":34963
		}
	],
	"samplers":[
		{
			"magFilter":9729,
			"minFilter":9987
		}
	],
	"buffers":[
		{
			"byteLength":279368,
			"uri":"street.bin"
		}
	]
}
