{
	"asset":{
		"generator":"Khronos glTF Blender I/O v4.5.48",
		"version":"2.0"
	},
	"extensionsUsed":[
		"KHR_materials_specular",
		"KHR_materials_ior"
	],
	"scene":0,
	"scenes":[
		{
			"name":"Scene",
			"nodes":[
				66
			]
		}
	],
	"nodes":[
		{
			"name":"mixamorig:HeadTop_End",
			"rotation":[
				-1.618190248464657e-09,
				0,
				0,
				1
			],
			"scale":[
				1,
				0.9999998211860657,
				0.9999999403953552
			],
			"translation":[
				0,
				73.62801361083984,
				-2.4320671558380127
			]
		},
		{
			"children":[
				0
			],
			"name":"mixamorig:Head",
			"rotation":[
				-7.88869058965247e-09,
				0,
				0,
				1
			],
			"scale":[
				1,
				0.9999998807907104,
				0.9999999403953552
			],
			"translation":[
				0,
				5.9189453125,
				-0.19551464915275574
			]
		},
		{
			"children":[
				1
			],
			"name":"mixamorig:Neck",
			"rotation":[
				0.0762813612818718,
				0,
				0,
				0.9970863461494446
			],
			"scale":[
				1,
				0.9999999403953552,
				0.9999999403953552
			],
			"translation":[
				0,
				9.67760944366455,
				6.109476089477539e-07
			]
		},
		{
			"name":"mixamorig:LeftHandThumb4",
			"rotation":[
				5.587935447692871e-09,
				5.2154067731180476e-08,
				9.313227522511625e-09,
				1
			],
			"scale":[
				0.9999999403953552,
				1.0000001192092896,
				1
			],
			"translation":[
				0.06943750381469727,
				2.7411909103393555,
				-1.2576580047607422e-05
			]
		},
		{
			"children":[
				3
			],
			"name":"mixamorig:LeftHandThumb3",
			"rotation":[
				-0.12016500532627106,
				1.341511932650974e-07,
				3.001985149353459e-08,
				0.9927539825439453
			],
			"scale":[
				0.9999999403953552,
				0.9999998807907104,
				1
			],
			"translation":[
				0.045654296875,
				3.0270018577575684,
				3.4458935260772705e-06
			]
		},
		{
			"children":[
				4
			],
			"name":"mixamorig:LeftHandThumb2",
			"rotation":[
				0.031401101499795914,
				2.1104867187204945e-07,
				6.149761588858382e-08,
				0.9995068907737732
			],
			"scale":[
				1,
				0.9999999403953552,
				0.9999998211860657
			],
			"translation":[
				-0.11509346961975098,
				2.614478349685669,
				7.301568984985352e-07
			]
		},
		{
			"children":[
				5
			],
			"name":"mixamorig:LeftHandThumb1",
			"rotation":[
				0.3375871777534485,
				0.08994736522436142,
				0.2412368506193161,
				0.9054000377655029
			],
			"scale":[
				0.9999998807907104,
				0.9999999403953552,
				0.9999999403953552
			],
			"translation":[
				-1.353922724723816,
				2.0712504386901855,
				2.139618396759033
			]
		},
		{
			"name":"mixamorig:LeftHandIndex4",
			"rotation":[
				-2.1420419216156006e-08,
				-3.818423266466198e-08,
				-3.818422555923462e-08,
				1
			],
			"scale":[
				0.9999998807907104,
				1,
				0.9999999403953552
			],
			"translation":[
				-0.00407099723815918,
				1.6241499185562134,
				-6.258487701416016e-06
			]
		},
		{
			"children":[
				7
			],
			"name":"mixamorig:LeftHandIndex3",
			"rotation":[
				0.021750031039118767,
				-3.2603999500224745e-08,
				4.229204364492034e-07,
				0.9997634887695312
			],
			"translation":[
				0.001981019973754883,
				1.795931339263916,
				-1.1146068572998047e-05
			]
		},
		{
			"children":[
				8
			],
			"name":"mixamorig:LeftHandIndex2",
			"rotation":[
				0.002973208436742425,
				-2.980245739081511e-08,
				-2.3748832234105066e-07,
				0.9999955892562866
			],
			"scale":[
				0.9999999403953552,
				1,
				0.9999999403953552
			],
			"translation":[
				0.0020897388458251953,
				1.903540849685669,
				-1.519918441772461e-06
			]
		},
		{
			"children":[
				9
			],
			"name":"mixamorig:LeftHandIndex1",
			"rotation":[
				-0.010342031717300415,
				-0.0016958237392827868,
				0.16180554032325745,
				0.986767053604126
			],
			"scale":[
				1,
				0.9999999403953552,
				1
			],
			"translation":[
				-3.1673030853271484,
				7.749436855316162,
				0.05705037713050842
			]
		},
		{
			"name":"mixamorig:LeftHandMiddle4",
			"rotation":[
				-8.381904059717726e-09,
				2.130400567068591e-08,
				2.200249937800436e-08,
				1
			],
			"scale":[
				0.9999999403953552,
				0.9999999403953552,
				1
			],
			"translation":[
				-0.02700600028038025,
				1.6038126945495605,
				-2.8133392333984375e-05
			]
		},
		{
			"children":[
				11
			],
			"name":"mixamorig:LeftHandMiddle3",
			"rotation":[
				0.1252041757106781,
				1.3269901444346033e-07,
				-3.5242663898316096e-07,
				0.9921310544013977
			],
			"scale":[
				0.9999999403953552,
				1.0000001192092896,
				1
			],
			"translation":[
				0.004841864109039307,
				1.9443657398223877,
				9.328126907348633e-06
			]
		},
		{
			"children":[
				12
			],
			"name":"mixamorig:LeftHandMiddle2",
			"rotation":[
				0.05748641490936279,
				-1.067073895910653e-07,
				2.6335951019973436e-07,
				0.9983462691307068
			],
			"translation":[
				0.022165417671203613,
				1.9706530570983887,
				-9.98377799987793e-06
			]
		},
		{
			"children":[
				13
			],
			"name":"mixamorig:LeftHandMiddle1",
			"rotation":[
				0.0018039464484900236,
				0.00010026912059402093,
				0.05546266958117485,
				0.9984591603279114
			],
			"translation":[
				-1.0452700853347778,
				8.114178657531738,
				-0.0816648006439209
			]
		},
		{
			"name":"mixamorig:LeftHandRing4",
			"rotation":[
				3.818423266466198e-08,
				-3.539026138810186e-08,
				7.264316792543468e-08,
				1
			],
			"scale":[
				0.9999999403953552,
				0.9999999403953552,
				0.9999998807907104
			],
			"translation":[
				-0.011486291885375977,
				1.451981544494629,
				5.9604644775390625e-06
			]
		},
		{
			"children":[
				15
			],
			"name":"mixamorig:LeftHandRing3",
			"rotation":[
				0.07273359596729279,
				7.423676606777008e-08,
				7.003467885624559e-07,
				0.9973514080047607
			],
			"scale":[
				1.0000001192092896,
				1.0000001192092896,
				1
			],
			"translation":[
				-0.0006496906280517578,
				1.6687901020050049,
				-1.0848045349121094e-05
			]
		},
		{
			"children":[
				16
			],
			"name":"mixamorig:LeftHandRing2",
			"rotation":[
				0.060934290289878845,
				8.409171670109572e-08,
				-1.0636845360068037e-07,
				0.9981417655944824
			],
			"scale":[
				0.9999999403953552,
				0.9999998211860657,
				1
			],
			"translation":[
				0.012132644653320312,
				1.816054344177246,
				-3.814697265625e-06
			]
		},
		{
			"children":[
				17
			],
			"name":"mixamorig:LeftHandRing1",
			"rotation":[
				0.0685589611530304,
				-0.002657832344993949,
				-0.038647424429655075,
				0.9968947172164917
			],
			"scale":[
				0.9999999403953552,
				1,
				0.9999998807907104
			],
			"translation":[
				1.2374374866485596,
				8.285815238952637,
				-0.07150232791900635
			]
		},
		{
			"name":"mixamorig:LeftHandPinky4",
			"rotation":[
				0,
				0,
				-7.450580596923828e-09,
				1
			],
			"translation":[
				-0.012399673461914062,
				1.3956093788146973,
				4.5299530029296875e-06
			]
		},
		{
			"children":[
				19
			],
			"name":"mixamorig:LeftHandPinky3",
			"rotation":[
				0.051877669990062714,
				-6.901078819510076e-08,
				6.733214945597865e-07,
				0.9986534714698792
			],
			"scale":[
				1.0000001192092896,
				1.0000001192092896,
				1
			],
			"translation":[
				-0.0031337738037109375,
				1.5029343366622925,
				-1.0728836059570312e-05
			]
		},
		{
			"children":[
				20
			],
			"name":"mixamorig:LeftHandPinky2",
			"rotation":[
				0.06996142119169235,
				1.5474589076802658e-07,
				-8.775936066740542e-08,
				0.9975497126579285
			],
			"scale":[
				1,
				1,
				0.9999999403953552
			],
			"translation":[
				0.015526294708251953,
				1.9706950187683105,
				5.543231964111328e-06
			]
		},
		{
			"children":[
				21
			],
			"name":"mixamorig:LeftHandPinky1",
			"rotation":[
				0.067634716629982,
				-0.008710470050573349,
				-0.127433642745018,
				0.9895000457763672
			],
			"scale":[
				0.9999998807907104,
				0.9999999403953552,
				0.9999999403953552
			],
			"translation":[
				2.9751343727111816,
				7.284572601318359,
				-0.11016106605529785
			]
		},
		{
			"children":[
				6,
				10,
				14,
				18,
				22
			],
			"name":"mixamorig:LeftHand",
			"rotation":[
				-0.0881018117070198,
				-0.11604717373847961,
				-0.06950129568576813,
				0.986884355545044
			],
			"translation":[
				8.940696716308594e-07,
				16.61337661743164,
				1.4163553714752197e-05
			]
		},
		{
			"children":[
				23
			],
			"name":"mixamorig:LeftForeArm",
			"rotation":[
				0.0006004762253724039,
				4.517400884651579e-05,
				0.07499196380376816,
				0.9971839189529419
			],
			"scale":[
				1,
				0.9999999403953552,
				1
			],
			"translation":[
				2.0265579223632812e-06,
				15.122640609741211,
				2.130866050720215e-06
			]
		},
		{
			"children":[
				24
			],
			"name":"mixamorig:LeftArm",
			"rotation":[
				-0.12983974814414978,
				0.007113724015653133,
				-0.054242100566625595,
				0.9900246858596802
			],
			"scale":[
				1.0000001192092896,
				1.0000001192092896,
				1.0000001192092896
			],
			"translation":[
				2.9802322387695312e-08,
				9.518153190612793,
				-9.164214134216309e-07
			]
		},
		{
			"children":[
				25
			],
			"name":"mixamorig:LeftShoulder",
			"rotation":[
				0.5685651898384094,
				0.41381165385246277,
				-0.5852399468421936,
				0.40371763706207275
			],
			"scale":[
				0.9999999403953552,
				1,
				0.9999999403953552
			],
			"translation":[
				4.4200639724731445,
				7.988485336303711,
				-0.13743063807487488
			]
		},
		{
			"name":"mixamorig:RightHandThumb4",
			"rotation":[
				2.514570773826108e-08,
				5.029141547652216e-08,
				-1.862645149230957e-09,
				1
			],
			"scale":[
				1.0000001192092896,
				1.0000001192092896,
				1
			],
			"translation":[
				-0.23970985412597656,
				2.5947136878967285,
				1.0251998901367188e-05
			]
		},
		{
			"children":[
				27
			],
			"name":"mixamorig:RightHandThumb3",
			"rotation":[
				-0.08143185079097748,
				1.2240978719546547e-07,
				2.2426220880333858e-08,
				0.99667888879776
			],
			"scale":[
				1,
				0.9999999403953552,
				0.9999998807907104
			],
			"translation":[
				0.059290409088134766,
				2.9697530269622803,
				-1.7642974853515625e-05
			]
		},
		{
			"children":[
				28
			],
			"name":"mixamorig:RightHandThumb2",
			"rotation":[
				-0.019122114405035973,
				-1.7139468866389507e-07,
				-2.1983233011724224e-07,
				0.9998171925544739
			],
			"scale":[
				1,
				0.9999999403953552,
				1
			],
			"translation":[
				0.18042612075805664,
				2.727332830429077,
				-1.7434358596801758e-06
			]
		},
		{
			"children":[
				29
			],
			"name":"mixamorig:RightHandThumb1",
			"rotation":[
				0.3565603494644165,
				-0.08829231560230255,
				-0.2235594391822815,
				0.9028235673904419
			],
			"scale":[
				0.9999999403953552,
				0.9999998211860657,
				0.9999999403953552
			],
			"translation":[
				1.3609888553619385,
				2.0962936878204346,
				2.3294899463653564
			]
		},
		{
			"name":"mixamorig:RightHandIndex4",
			"rotation":[
				-3.632158041000366e-08,
				6.100162863731384e-08,
				7.729977369308472e-08,
				1
			],
			"scale":[
				1.0000001192092896,
				1,
				1
			],
			"translation":[
				0.003397822380065918,
				1.5359433889389038,
				-2.1457672119140625e-06
			]
		},
		{
			"children":[
				31
			],
			"name":"mixamorig:RightHandIndex3",
			"rotation":[
				0.028229521587491035,
				-9.689617286312568e-08,
				2.468989066528593e-07,
				0.9996014833450317
			],
			"scale":[
				0.9999998807907104,
				0.9999998807907104,
				0.9999999403953552
			],
			"translation":[
				-0.004430294036865234,
				1.7251181602478027,
				3.814697265625e-06
			]
		},
		{
			"children":[
				32
			],
			"name":"mixamorig:RightHandIndex2",
			"rotation":[
				-0.00872243382036686,
				4.6102218931309835e-08,
				-9.313578885894458e-08,
				0.9999619722366333
			],
			"scale":[
				1,
				1.0000001192092896,
				0.9999999403953552
			],
			"translation":[
				0.0010391473770141602,
				1.8441827297210693,
				-9.506940841674805e-06
			]
		},
		{
			"children":[
				33
			],
			"name":"mixamorig:RightHandIndex1",
			"rotation":[
				-0.0002716340241022408,
				4.362659456091933e-05,
				-0.1585390418767929,
				0.9873526692390442
			],
			"scale":[
				1,
				0.9999998211860657,
				0.9999999403953552
			],
			"translation":[
				3.196695566177368,
				7.980118274688721,
				0.07004234194755554
			]
		},
		{
			"name":"mixamorig:RightHandMiddle4",
			"rotation":[
				2.066372184472698e-09,
				-4.511094164882934e-09,
				-2.9103833232291265e-10,
				1
			],
			"scale":[
				0.9999999403953552,
				1,
				0.9999999403953552
			],
			"translation":[
				0.007823467254638672,
				1.785419225692749,
				-2.4586915969848633e-05
			]
		},
		{
			"children":[
				35
			],
			"name":"mixamorig:RightHandMiddle3",
			"rotation":[
				0.022474026307463646,
				-9.710036152910106e-08,
				-1.8887337205342192e-07,
				0.9997473955154419
			],
			"translation":[
				0.0006624460220336914,
				1.927954912185669,
				7.927417755126953e-06
			]
		},
		{
			"children":[
				36
			],
			"name":"mixamorig:RightHandMiddle2",
			"rotation":[
				0.0255202017724514,
				1.660623354382551e-07,
				1.9249725369263615e-07,
				0.9996743202209473
			],
			"scale":[
				0.9999998807907104,
				0.9999999403953552,
				1
			],
			"translation":[
				-0.00848388671875,
				1.9985778331756592,
				-1.1086463928222656e-05
			]
		},
		{
			"children":[
				37
			],
			"name":"mixamorig:RightHandMiddle1",
			"rotation":[
				0.043172698467969894,
				-0.001947560696862638,
				-0.04502435401082039,
				0.9980506896972656
			],
			"scale":[
				0.9999999403953552,
				1,
				1
			],
			"translation":[
				1.0306165218353271,
				8.156133651733398,
				-0.18778982758522034
			]
		},
		{
			"name":"mixamorig:RightHandRing4",
			"rotation":[
				4.440892098500626e-16,
				-1.0803341154996815e-07,
				-3.725290298461914e-09,
				1
			],
			"scale":[
				1,
				1,
				1.0000001192092896
			],
			"translation":[
				0.005852699279785156,
				1.616524338722229,
				-1.0132789611816406e-05
			]
		},
		{
			"children":[
				39
			],
			"name":"mixamorig:RightHandRing3",
			"rotation":[
				0.010982896201312542,
				6.240237837573659e-08,
				6.072589258110384e-07,
				0.9999396800994873
			],
			"scale":[
				1,
				0.9999998807907104,
				0.9999999403953552
			],
			"translation":[
				0.0016927719116210938,
				1.7608349323272705,
				1.3828277587890625e-05
			]
		},
		{
			"children":[
				40
			],
			"name":"mixamorig:RightHandRing2",
			"rotation":[
				0.035929739475250244,
				8.969771414513161e-08,
				1.5003979569883086e-07,
				0.999354362487793
			],
			"scale":[
				1,
				1,
				0.9999998807907104
			],
			"translation":[
				-0.007550477981567383,
				1.843646764755249,
				-1.3113021850585938e-06
			]
		},
		{
			"children":[
				41
			],
			"name":"mixamorig:RightHandRing1",
			"rotation":[
				0.09476462006568909,
				0.002678224816918373,
				0.028122100979089737,
				0.9950988292694092
			],
			"scale":[
				1,
				0.9999999403953552,
				1.0000001192092896
			],
			"translation":[
				-1.282855749130249,
				8.16782283782959,
				-0.10317468643188477
			]
		},
		{
			"name":"mixamorig:RightHandPinky4",
			"rotation":[
				2.60770320892334e-08,
				5.494803545502691e-08,
				1.30385160446167e-08,
				1
			],
			"scale":[
				1,
				1,
				0.9999999403953552
			],
			"translation":[
				0.0024390220642089844,
				1.3982603549957275,
				-5.9604644775390625e-06
			]
		},
		{
			"children":[
				43
			],
			"name":"mixamorig:RightHandPinky3",
			"rotation":[
				0.013792651705443859,
				-3.4182787089775957e-07,
				-3.96781132394608e-07,
				0.9999048709869385
			],
			"scale":[
				1,
				1.0000001192092896,
				1.0000001192092896
			],
			"translation":[
				0.0015535354614257812,
				1.5564488172531128,
				-1.3113021850585938e-05
			]
		},
		{
			"children":[
				44
			],
			"name":"mixamorig:RightHandPinky2",
			"rotation":[
				0.04423442855477333,
				2.372538148165404e-07,
				-1.9949828811149928e-07,
				0.9990211725234985
			],
			"scale":[
				1.0000001192092896,
				1,
				1
			],
			"translation":[
				-0.003985881805419922,
				1.8597561120986938,
				-1.2874603271484375e-05
			]
		},
		{
			"children":[
				45
			],
			"name":"mixamorig:RightHandPinky1",
			"rotation":[
				0.08554183691740036,
				0.012892082333564758,
				0.14846989512443542,
				0.9851258993148804
			],
			"scale":[
				0.9999998807907104,
				0.9999998807907104,
				0.9999999403953552
			],
			"translation":[
				-2.9444594383239746,
				7.196910858154297,
				-0.1191256046295166
			]
		},
		{
			"children":[
				30,
				34,
				38,
				42,
				46
			],
			"name":"mixamorig:RightHand",
			"rotation":[
				-0.09216517955064774,
				0.09687592089176178,
				0.06174848601222038,
				0.9890944361686707
			],
			"scale":[
				1,
				0.9999999403953552,
				1
			],
			"translation":[
				-2.9802322387695312e-06,
				16.61066436767578,
				1.1175870895385742e-05
			]
		},
		{
			"children":[
				47
			],
			"name":"mixamorig:RightForeArm",
			"rotation":[
				-0.0016908677062019706,
				7.760599692119285e-05,
				-0.0458400622010231,
				0.9989473819732666
			],
			"scale":[
				0.9999998807907104,
				0.9999998807907104,
				1
			],
			"translation":[
				1.430511474609375e-06,
				15.047950744628906,
				5.364418029785156e-07
			]
		},
		{
			"children":[
				48
			],
			"name":"mixamorig:RightArm",
			"rotation":[
				-0.12261190265417099,
				-3.488373113214038e-05,
				0.00028264184948056936,
				0.9924546480178833
			],
			"scale":[
				1,
				0.9999999403953552,
				0.9999999403953552
			],
			"translation":[
				-7.003545761108398e-07,
				9.518156051635742,
				4.732981324195862e-06
			]
		},
		{
			"children":[
				49
			],
			"name":"mixamorig:RightShoulder",
			"rotation":[
				0.5510791540145874,
				-0.42677217721939087,
				0.5985085964202881,
				0.3949236571788788
			],
			"translation":[
				-4.4200639724731445,
				8.025333404541016,
				-0.3768424987792969
			]
		},
		{
			"children":[
				2,
				26,
				50
			],
			"name":"mixamorig:Spine2",
			"rotation":[
				1.0430814256778831e-07,
				0,
				0,
				1
			],
			"scale":[
				1,
				0.9999999403953552,
				0.9999999403953552
			],
			"translation":[
				0,
				8.60230541229248,
				-7.152557373046875e-07
			]
		},
		{
			"children":[
				51
			],
			"name":"mixamorig:Spine1",
			"rotation":[
				-1.7881390590446244e-07,
				0,
				0,
				1
			],
			"scale":[
				1,
				1.0000001192092896,
				1.0000001192092896
			],
			"translation":[
				0,
				7.527047634124756,
				2.384185791015625e-07
			]
		},
		{
			"children":[
				52
			],
			"name":"mixamorig:Spine",
			"rotation":[
				-0.07628127932548523,
				0,
				0,
				0.9970863461494446
			],
			"scale":[
				1,
				0.9999998807907104,
				0.9999998807907104
			],
			"translation":[
				0,
				6.376659393310547,
				-0.9814257621765137
			]
		},
		{
			"name":"mixamorig:LeftToe_End",
			"rotation":[
				5.75164413874063e-08,
				4.066714325290377e-07,
				1.5075784176588058e-07,
				1
			],
			"scale":[
				1,
				1,
				1.0000001192092896
			],
			"translation":[
				3.0547380447387695e-07,
				3.2607421875,
				-1.7881393432617188e-07
			]
		},
		{
			"children":[
				54
			],
			"name":"mixamorig:LeftToeBase",
			"rotation":[
				0.3276403248310089,
				-0.04629281163215637,
				0.016073433682322502,
				0.9435308575630188
			],
			"scale":[
				1.000000238418579,
				1.0000001192092896,
				1
			],
			"translation":[
				-1.0579824447631836e-06,
				8.507140159606934,
				-3.337860107421875e-06
			]
		},
		{
			"children":[
				55
			],
			"name":"mixamorig:LeftFoot",
			"rotation":[
				0.45396870374679565,
				0.023791931569576263,
				-0.012129276990890503,
				0.890617311000824
			],
			"scale":[
				1,
				1.0000001192092896,
				1
			],
			"translation":[
				-9.704381227493286e-07,
				20.183101654052734,
				8.195638656616211e-08
			]
		},
		{
			"children":[
				56
			],
			"name":"mixamorig:LeftLeg",
			"rotation":[
				-0.019924893975257874,
				-8.592037193011492e-05,
				0.004511444363743067,
				0.9997913241386414
			],
			"scale":[
				1,
				1,
				0.9999998807907104
			],
			"translation":[
				-2.175569534301758e-06,
				23.753273010253906,
				-9.845098247751594e-08
			]
		},
		{
			"children":[
				57
			],
			"name":"mixamorig:LeftUpLeg",
			"rotation":[
				0.0012916616396978498,
				0.02184709906578064,
				-0.9980049729347229,
				0.0592212937772274
			],
			"scale":[
				1.0000113248825073,
				1,
				1.0000014305114746
			],
			"translation":[
				9.211947441101074,
				-3.529926300048828,
				-0.23046264052391052
			]
		},
		{
			"name":"mixamorig:RightToe_End",
			"rotation":[
				3.915193502734837e-08,
				-1.8389985712019552e-07,
				3.0332012102007866e-07,
				1
			],
			"scale":[
				0.9999999403953552,
				1,
				0.9999998211860657
			],
			"translation":[
				4.246830940246582e-07,
				3.1372809410095215,
				-3.5762786865234375e-07
			]
		},
		{
			"children":[
				59
			],
			"name":"mixamorig:RightToeBase",
			"rotation":[
				0.32488828897476196,
				0.046671997755765915,
				-0.016055110841989517,
				0.9444636702537537
			],
			"scale":[
				0.9999999403953552,
				0.9999998807907104,
				0.9999998807907104
			],
			"translation":[
				-2.0265579223632812e-06,
				8.547308921813965,
				3.5762786865234375e-07
			]
		},
		{
			"children":[
				60
			],
			"name":"mixamorig:RightFoot",
			"rotation":[
				0.45218145847320557,
				-0.023690057918429375,
				0.01201507356017828,
				0.8915303349494934
			],
			"scale":[
				0.9999999403953552,
				1,
				0.9999999403953552
			],
			"translation":[
				-3.0510127544403076e-06,
				20.17021942138672,
				-2.9802322387695312e-08
			]
		},
		{
			"children":[
				61
			],
			"name":"mixamorig:RightLeg",
			"rotation":[
				-0.015164650976657867,
				6.95714115863666e-05,
				-0.004534995183348656,
				0.9998747110366821
			],
			"scale":[
				1,
				0.9999999403953552,
				1
			],
			"translation":[
				1.2759119272232056e-06,
				23.754743576049805,
				7.313064998015761e-08
			]
		},
		{
			"children":[
				62
			],
			"name":"mixamorig:RightUpLeg",
			"rotation":[
				0.0013389050727710128,
				-0.02254432626068592,
				0.9979895949363708,
				0.05921713262796402
			],
			"scale":[
				0.9999970197677612,
				1,
				0.9999995231628418
			],
			"translation":[
				-9.211947441101074,
				-3.529926300048828,
				-0.17298802733421326
			]
		},
		{
			"children":[
				53,
				58,
				63
			],
			"name":"mixamorig:Hips",
			"rotation":[
				-1.3657129649402577e-08,
				0,
				0,
				1
			],
			"translation":[
				0,
				54.21790313720703,
				5.1266303062438965
			]
		},
		{
			"mesh":0,
			"name":"Retopology_hp_Plane.002",
			"skin":0
		},
		{
			"children":[
				65,
				64
			],
			"name":"Armature",
			"scale":[
				0.009999999776482582,
				0.009999999776482582,
				0.009999999776482582
			]
		}
	],
	"animations":[
		{
			"channels":[
				{
					"sampler":0,
					"target":{
						"node":64,
						"path":"translation"
					}
				},
				{
					"sampler":1,
					"target":{
						"node":64,
						"path":"rotation"
					}
				},
				{
					"sampler":2,
					"target":{
						"node":64,
						"path":"scale"
					}
				},
				{
					"sampler":3,
					"target":{
						"node":53,
						"path":"translation"
					}
				},
				{
					"sampler":4,
					"target":{
						"node":53,
						"path":"rotation"
					}
				},
				{
					"sampler":5,
					"target":{
						"node":53,
						"path":"scale"
					}
				},
				{
					"sampler":6,
					"target":{
						"node":52,
						"path":"translation"
					}
				},
				{
					"sampler":7,
					"target":{
						"node":52,
						"path":"rotation"
					}
				},
				{
					"sampler":8,
					"target":{
						"node":52,
						"path":"scale"
					}
				},
				{
					"sampler":9,
					"target":{
						"node":51,
						"path":"translation"
					}
				},
				{
					"sampler":10,
					"target":{
						"node":51,
						"path":"rotation"
					}
				},
				{
					"sampler":11,
					"target":{
						"node":51,
						"path":"scale"
					}
				},
				{
					"sampler":12,
					"target":{
						"node":2,
						"path":"translation"
					}
				},
				{
					"sampler":13,
					"target":{
						"node":2,
						"path":"rotation"
					}
				},
				{
					"sampler":14,
					"target":{
						"node":2,
						"path":"scale"
					}
				},
				{
					"sampler":15,
					"target":{
						"node":1,
						"path":"translation"
					}
				},
				{
					"sampler":16,
					"target":{
						"node":1,
						"path":"rotation"
					}
				},
				{
					"sampler":17,
					"target":{
						"node":1,
						"path":"scale"
					}
				},
				{
					"sampler":18,
					"target":{
						"node":0,
						"path":"translation"
					}
				},
				{
					"sampler":19,
					"target":{
						"node":0,
						"path":"rotation"
					}
				},
				{
					"sampler":20,
					"target":{
						"node":0,
						"path":"scale"
					}
				},
				{
					"sampler":21,
					"target":{
						"node":26,
						"path":"translation"
					}
				},
				{
					"sampler":22,
					"target":{
						"node":26,
						"path":"rotation"
					}
				},
				{
					"sampler":23,
					"target":{
						"node":26,
						"path":"scale"
					}
				},
				{
					"sampler":24,
					"target":{
						"node":25,
						"path":"translation"
					}
				},
				{
					"sampler":25,
					"target":{
						"node":25,
						"path":"rotation"
					}
				},
				{
					"sampler":26,
					"target":{
						"node":25,
						"path":"scale"
					}
				},
				{
					"sampler":27,
					"target":{
						"node":24,
						"path":"translation"
					}
				},
				{
					"sampler":28,
					"target":{
						"node":24,
						"path":"rotation"
					}
				},
				{
					"sampler":29,
					"target":{
						"node":24,
						"path":"scale"
					}
				},
				{
					"sampler":30,
					"target":{
						"node":23,
						"path":"translation"
					}
				},
				{
					"sampler":31,
					"target":{
						"node":23,
						"path":"rotation"
					}
				},
				{
					"sampler":32,
					"target":{
						"node":23,
						"path":"scale"
					}
				},
				{
					"sampler":33,
					"target":{
						"node":6,
						"path":"translation"
					}
				},
				{
					"sampler":34,
					"target":{
						"node":6,
						"path":"rotation"
					}
				},
				{
					"sampler":35,
					"target":{
						"node":6,
						"path":"scale"
					}
				},
				{
					"sampler":36,
					"target":{
						"node":5,
						"path":"translation"
					}
				},
				{
					"sampler":37,
					"target":{
						"node":5,
						"path":"rotation"
					}
				},
				{
					"sampler":38,
					"target":{
						"node":5,
						"path":"scale"
					}
				},
				{
					"sampler":39,
					"target":{
						"node":4,
						"path":"translation"
					}
				},
				{
					"sampler":40,
					"target":{
						"node":4,
						"path":"rotation"
					}
				},
				{
					"sampler":41,
					"target":{
						"node":4,
						"path":"scale"
					}
				},
				{
					"sampler":42,
					"target":{
						"node":3,
						"path":"translation"
					}
				},
				{
					"sampler":43,
					"target":{
						"node":3,
						"path":"rotation"
					}
				},
				{
					"sampler":44,
					"target":{
						"node":3,
						"path":"scale"
					}
				},
				{
					"sampler":45,
					"target":{
						"node":10,
						"path":"translation"
					}
				},
				{
					"sampler":46,
					"target":{
						"node":10,
						"path":"rotation"
					}
				},
				{
					"sampler":47,
					"target":{
						"node":10,
						"path":"scale"
					}
				},
				{
					"sampler":48,
					"target":{
						"node":9,
						"path":"translation"
					}
				},
				{
					"sampler":49,
					"target":{
						"node":9,
						"path":"rotation"
					}
				},
				{
					"sampler":50,
					"target":{
						"node":9,
						"path":"scale"
					}
				},
				{
					"sampler":51,
					"target":{
						"node":8,
						"path":"translation"
					}
				},
				{
					"sampler":52,
					"target":{
						"node":8,
						"path":"rotation"
					}
				},
				{
					"sampler":53,
					"target":{
						"node":8,
						"path":"scale"
					}
				},
				{
					"sampler":54,
					"target":{
						"node":7,
						"path":"translation"
					}
				},
				{
					"sampler":55,
					"target":{
						"node":7,
						"path":"rotation"
					}
				},
				{
					"sampler":56,
					"target":{
						"node":7,
						"path":"scale"
					}
				},
				{
					"sampler":57,
					"target":{
						"node":14,
						"path":"translation"
					}
				},
				{
					"sampler":58,
					"target":{
						"node":14,
						"path":"rotation"
					}
				},
				{
					"sampler":59,
					"target":{
						"node":14,
						"path":"scale"
					}
				},
				{
					"sampler":60,
					"target":{
						"node":13,
						"path":"translation"
					}
				},
				{
					"sampler":61,
					"target":{
						"node":13,
						"path":"rotation"
					}
				},
				{
					"sampler":62,
					"target":{
						"node":13,
						"path":"scale"
					}
				},
				{
					"sampler":63,
					"target":{
						"node":12,
						"path":"translation"
					}
				},
				{
					"sampler":64,
					"target":{
						"node":12,
						"path":"rotation"
					}
				},
				{
					"sampler":65,
					"target":{
						"node":12,
						"path":"scale"
					}
				},
				{
					"sampler":66,
					"target":{
						"node":11,
						"path":"translation"
					}
				},
				{
					"sampler":67,
					"target":{
						"node":11,
						"path":"rotation"
					}
				},
				{
					"sampler":68,
					"target":{
						"node":11,
						"path":"scale"
					}
				},
				{
					"sampler":69,
					"target":{
						"node":18,
						"path":"translation"
					}
				},
				{
					"sampler":70,
					"target":{
						"node":18,
						"path":"rotation"
					}
				},
				{
					"sampler":71,
					"target":{
						"node":18,
						"path":"scale"
					}
				},
				{
					"sampler":72,
					"target":{
						"node":17,
						"path":"translation"
					}
				},
				{
					"sampler":73,
					"target":{
						"node":17,
						"path":"rotation"
					}
				},
				{
					"sampler":74,
					"target":{
						"node":17,
						"path":"scale"
					}
				},
				{
					"sampler":75,
					"target":{
						"node":16,
						"path":"translation"
					}
				},
				{
					"sampler":76,
					"target":{
						"node":16,
						"path":"rotation"
					}
				},
				{
					"sampler":77,
					"target":{
						"node":16,
						"path":"scale"
					}
				},
				{
					"sampler":78,
					"target":{
						"node":15,
						"path":"translation"
					}
				},
				{
					"sampler":79,
					"target":{
						"node":15,
						"path":"rotation"
					}
				},
				{
					"sampler":80,
					"target":{
						"node":15,
						"path":"scale"
					}
				},
				{
					"sampler":81,
					"target":{
						"node":22,
						"path":"translation"
					}
				},
				{
					"sampler":82,
					"target":{
						"node":22,
						"path":"rotation"
					}
				},
				{
					"sampler":83,
					"target":{
						"node":22,
						"path":"scale"
					}
				},
				{
					"sampler":84,
					"target":{
						"node":21,
						"path":"translation"
					}
				},
				{
					"sampler":85,
					"target":{
						"node":21,
						"path":"rotation"
					}
				},
				{
					"sampler":86,
					"target":{
						"node":21,
						"path":"scale"
					}
				},
				{
					"sampler":87,
					"target":{
						"node":20,
						"path":"translation"
					}
				},
				{
					"sampler":88,
					"target":{
						"node":20,
						"path":"rotation"
					}
				},
				{
					"sampler":89,
					"target":{
						"node":20,
						"path":"scale"
					}
				},
				{
					"sampler":90,
					"target":{
						"node":19,
						"path":"translation"
					}
				},
				{
					"sampler":91,
					"target":{
						"node":19,
						"path":"rotation"
					}
				},
				{
					"sampler":92,
					"target":{
						"node":19,
						"path":"scale"
					}
				},
				{
					"sampler":93,
					"target":{
						"node":50,
						"path":"translation"
					}
				},
				{
					"sampler":94,
					"target":{
						"node":50,
						"path":"rotation"
					}
				},
				{
					"sampler":95,
					"target":{
						"node":50,
						"path":"scale"
					}
				},
				{
					"sampler":96,
					"target":{
						"node":49,
						"path":"translation"
					}
				},
				{
					"sampler":97,
					"target":{
						"node":49,
						"path":"rotation"
					}
				},
				{
					"sampler":98,
					"target":{
						"node":49,
						"path":"scale"
					}
				},
				{
					"sampler":99,
					"target":{
						"node":48,
						"path":"translation"
					}
				},
				{
					"sampler":100,
					"target":{
						"node":48,
						"path":"rotation"
					}
				},
				{
					"sampler":101,
					"target":{
						"node":48,
						"path":"scale"
					}
				},
				{
					"sampler":102,
					"target":{
						"node":47,
						"path":"translation"
					}
				},
				{
					"sampler":103,
					"target":{
						"node":47,
						"path":"rotation"
					}
				},
				{
					"sampler":104,
					"target":{
						"node":47,
						"path":"scale"
					}
				},
				{
					"sampler":105,
					"target":{
						"node":30,
						"path":"translation"
					}
				},
				{
					"sampler":106,
					"target":{
						"node":30,
						"path":"rotation"
					}
				},
				{
					"sampler":107,
					"target":{
						"node":30,
						"path":"scale"
					}
				},
				{
					"sampler":108,
					"target":{
						"node":29,
						"path":"translation"
					}
				},
				{
					"sampler":109,
					"target":{
						"node":29,
						"path":"rotation"
					}
				},
				{
					"sampler":110,
					"target":{
						"node":29,
						"path":"scale"
					}
				},
				{
					"sampler":111,
					"target":{
						"node":28,
						"path":"translation"
					}
				},
				{
					"sampler":112,
					"target":{
						"node":28,
						"path":"rotation"
					}
				},
				{
					"sampler":113,
					"target":{
						"node":28,
						"path":"scale"
					}
				},
				{
					"sampler":114,
					"target":{
						"node":27,
						"path":"translation"
					}
				},
				{
					"sampler":115,
					"target":{
						"node":27,
						"path":"rotation"
					}
				},
				{
					"sampler":116,
					"target":{
						"node":27,
						"path":"scale"
					}
				},
				{
					"sampler":117,
					"target":{
						"node":34,
						"path":"translation"
					}
				},
				{
					"sampler":118,
					"target":{
						"node":34,
						"path":"rotation"
					}
				},
				{
					"sampler":119,
					"target":{
						"node":34,
						"path":"scale"
					}
				},
				{
					"sampler":120,
					"target":{
						"node":33,
						"path":"translation"
					}
				},
				{
					"sampler":121,
					"target":{
						"node":33,
						"path":"rotation"
					}
				},
				{
					"sampler":122,
					"target":{
						"node":33,
						"path":"scale"
					}
				},
				{
					"sampler":123,
					"target":{
						"node":32,
						"path":"translation"
					}
				},
				{
					"sampler":124,
					"target":{
						"node":32,
						"path":"rotation"
					}
				},
				{
					"sampler":125,
					"target":{
						"node":32,
						"path":"scale"
					}
				},
				{
					"sampler":126,
					"target":{
						"node":31,
						"path":"translation"
					}
				},
				{
					"sampler":127,
					"target":{
						"node":31,
						"path":"rotation"
					}
				},
				{
					"sampler":128,
					"target":{
						"node":31,
						"path":"scale"
					}
				},
				{
					"sampler":129,
					"target":{
						"node":38,
						"path":"translation"
					}
				},
				{
					"sampler":130,
					"target":{
						"node":38,
						"path":"rotation"
					}
				},
				{
					"sampler":131,
					"target":{
						"node":38,
						"path":"scale"
					}
				},
				{
					"sampler":132,
					"target":{
						"node":37,
						"path":"translation"
					}
				},
				{
					"sampler":133,
					"target":{
						"node":37,
						"path":"rotation"
					}
				},
				{
					"sampler":134,
					"target":{
						"node":37,
						"path":"scale"
					}
				},
				{
					"sampler":135,
					"target":{
						"node":36,
						"path":"translation"
					}
				},
				{
					"sampler":136,
					"target":{
						"node":36,
						"path":"rotation"
					}
				},
				{
					"sampler":137,
					"target":{
						"node":36,
						"path":"scale"
					}
				},
				{
					"sampler":138,
					"target":{
						"node":35,
						"path":"translation"
					}
				},
				{
					"sampler":139,
					"target":{
						"node":35,
						"path":"rotation"
					}
				},
				{
					"sampler":140,
					"target":{
						"node":35,
						"path":"scale"
					}
				},
				{
					"sampler":141,
					"target":{
						"node":42,
						"path":"translation"
					}
				},
				{
					"sampler":142,
					"target":{
						"node":42,
						"path":"rotation"
					}
				},
				{
					"sampler":143,
					"target":{
						"node":42,
						"path":"scale"
					}
				},
				{
					"sampler":144,
					"target":{
						"node":41,
						"path":"translation"
					}
				},
				{
					"sampler":145,
					"target":{
						"node":41,
						"path":"rotation"
					}
				},
				{
					"sampler":146,
					"target":{
						"node":41,
						"path":"scale"
					}
				},
				{
					"sampler":147,
					"target":{
						"node":40,
						"path":"translation"
					}
				},
				{
					"sampler":148,
					"target":{
						"node":40,
						"path":"rotation"
					}
				},
				{
					"sampler":149,
					"target":{
						"node":40,
						"path":"scale"
					}
				},
				{
					"sampler":150,
					"target":{
						"node":39,
						"path":"translation"
					}
				},
				{
					"sampler":151,
					"target":{
						"node":39,
						"path":"rotation"
					}
				},
				{
					"sampler":152,
					"target":{
						"node":39,
						"path":"scale"
					}
				},
				{
					"sampler":153,
					"target":{
						"node":46,
						"path":"translation"
					}
				},
				{
					"sampler":154,
					"target":{
						"node":46,
						"path":"rotation"
					}
				},
				{
					"sampler":155,
					"target":{
						"node":46,
						"path":"scale"
					}
				},
				{
					"sampler":156,
					"target":{
						"node":45,
						"path":"translation"
					}
				},
				{
					"sampler":157,
					"target":{
						"node":45,
						"path":"rotation"
					}
				},
				{
					"sampler":158,
					"target":{
						"node":45,
						"path":"scale"
					}
				},
				{
					"sampler":159,
					"target":{
						"node":44,
						"path":"translation"
					}
				},
				{
					"sampler":160,
					"target":{
						"node":44,
						"path":"rotation"
					}
				},
				{
					"sampler":161,
					"target":{
						"node":44,
						"path":"scale"
					}
				},
				{
					"sampler":162,
					"target":{
						"node":43,
						"path":"translation"
					}
				},
				{
					"sampler":163,
					"target":{
						"node":43,
						"path":"rotation"
					}
				},
				{
					"sampler":164,
					"target":{
						"node":43,
						"path":"scale"
					}
				},
				{
					"sampler":165,
					"target":{
						"node":58,
						"path":"translation"
					}
				},
				{
					"sampler":166,
					"target":{
						"node":58,
						"path":"rotation"
					}
				},
				{
					"sampler":167,
					"target":{
						"node":58,
						"path":"scale"
					}
				},
				{
					"sampler":168,
					"target":{
						"node":57,
						"path":"translation"
					}
				},
				{
					"sampler":169,
					"target":{
						"node":57,
						"path":"rotation"
					}
				},
				{
					"sampler":170,
					"target":{
						"node":57,
						"path":"scale"
					}
				},
				{
					"sampler":171,
					"target":{
						"node":56,
						"path":"translation"
					}
				},
				{
					"sampler":172,
					"target":{
						"node":56,
						"path":"rotation"
					}
				},
				{
					"sampler":173,
					"target":{
						"node":56,
						"path":"scale"
					}
				},
				{
					"sampler":174,
					"target":{
						"node":55,
						"path":"translation"
					}
				},
				{
					"sampler":175,
					"target":{
						"node":55,
						"path":"rotation"
					}
				},
				{
					"sampler":176,
					"target":{
						"node":55,
						"path":"scale"
					}
				},
				{
					"sampler":177,
					"target":{
						"node":54,
						"path":"translation"
					}
				},
				{
					"sampler":178,
					"target":{
						"node":54,
						"path":"rotation"
					}
				},
				{
					"sampler":179,
					"target":{
						"node":54,
						"path":"scale"
					}
				},
				{
					"sampler":180,
					"target":{
						"node":63,
						"path":"translation"
					}
				},
				{
					"sampler":181,
					"target":{
						"node":63,
						"path":"rotation"
					}
				},
				{
					"sampler":182,
					"target":{
						"node":63,
						"path":"scale"
					}
				},
				{
					"sampler":183,
					"target":{
						"node":62,
						"path":"translation"
					}
				},
				{
					"sampler":184,
					"target":{
						"node":62,
						"path":"rotation"
					}
				},
				{
					"sampler":185,
					"target":{
						"node":62,
						"path":"scale"
					}
				},
				{
					"sampler":186,
					"target":{
						"node":61,
						"path":"translation"
					}
				},
				{
					"sampler":187,
					"target":{
						"node":61,
						"path":"rotation"
					}
				},
				{
					"sampler":188,
					"target":{
						"node":61,
						"path":"scale"
					}
				},
				{
					"sampler":189,
					"target":{
						"node":60,
						"path":"translation"
					}
				},
				{
					"sampler":190,
					"target":{
						"node":60,
						"path":"rotation"
					}
				},
				{
					"sampler":191,
					"target":{
						"node":60,
						"path":"scale"
					}
				},
				{
					"sampler":192,
					"target":{
						"node":59,
						"path":"translation"
					}
				},
				{
					"sampler":193,
					"target":{
						"node":59,
						"path":"rotation"
					}
				},
				{
					"sampler":194,
					"target":{
						"node":59,
						"path":"scale"
					}
				}
			],
			"name":"Armature|mixamo.com|Layer0",
			"samplers":[
				{
					"input":7,
					"interpolation":"LINEAR",
					"output":8
				},
				{
					"input":7,
					"interpolation":"LINEAR",
					"output":9
				},
				{
					"input":10,
					"interpolation":"STEP",
					"output":11
				},
				{
					"input":10,
					"interpolation":"LINEAR",
					"output":12
				},
				{
					"input":7,
					"interpolation":"LINEAR",
					"output":13
				},
				{
					"input":10,
					"interpolation":"STEP",
					"output":14
				},
				{
					"input":10,
					"interpolation":"LINEAR",
					"output":15
				},
				{
					"input":7,
					"interpolation":"LINEAR",
					"output":16
				},
				{
					"input":10,
					"interpolation":"STEP",
					"output":17
				},
				{
					"input":10,
					"interpolation":"LINEAR",
					"output":18
				},
				{
					"input":7,
					"interpolation":"LINEAR",
					"output":19
				},
				{
					"input":10,
					"interpolation":"STEP",
					"output":20
				},
				{
					"input":10,
					"interpolation":"LINEAR",
					"output":21
				},
				{
					"input":7,
					"interpolation":"LINEAR",
					"output":22
				},
				{
					"input":10,
					"interpolation":"STEP",
					"output":23
				},
				{
					"input":10,
					"interpolation":"LINEAR",
					"output":24
				},
				{
					"input":7,
					"interpolation":"LINEAR",
					"output":25
				},
				{
					"input":10,
					"interpolation":"STEP",
					"output":26
				},
				{
					"input":10,
					"interpolation":"STEP",
					"output":27
				},
				{
					"input":10,
					"interpolation":"STEP",
					"output":28
				},
				{
					"input":10,
					"interpolation":"STEP",
					"output":29
				},
				{
					"input":10,
					"interpolation":"LINEAR",
					"output":30
				},
				{
					"input":7,
					"interpolation":"LINEAR",
					"output":31
				},
				{
					"input":10,
					"interpolation":"LINEAR",
					"output":32
				},
				{
					"input":10,
					"interpolation":"LINEAR",
					"output":33
				},
				{
					"input":7,
					"interpolation":"LINEAR",
					"output":34
				},
				{
					"input":10,
					"interpolation":"LINEAR",
					"output":35
				},
				{
					"input":10,
					"interpolation":"LINEAR",
					"output":36
				},
				{
					"input":7,
					"interpolation":"LINEAR",
					"output":37
				},
				{
					"input":10,
					"interpolation":"LINEAR",
					"output":38
				},
				{
					"input":10,
					"interpolation":"LINEAR",
					"output":39
				},
				{
					"input":7,
					"interpolation":"LINEAR",
					"output":40
				},
				{
					"input":10,
					"interpolation":"LINEAR",
					"output":41
				},
				{
					"input":10,
					"interpolation":"LINEAR",
					"output":42
				},
				{
					"input":10,
					"interpolation":"LINEAR",
					"output":43
				},
				{
					"input":10,
					"interpolation":"LINEAR",
					"output":44
				},
				{
					"input":10,
					"interpolation":"LINEAR",
					"output":45
				},
				{
					"input":10,
					"interpolation":"LINEAR",
					"output":46
				},
				{
					"input":10,
					"interpolation":"LINEAR",
					"output":47
				},
				{
					"input":10,
					"interpolation":"LINEAR",
					"output":48
				},
				{
					"input":10,
					"interpolation":"LINEAR",
					"output":49
				},
				{
					"input":10,
					"interpolation":"LINEAR",
					"output":50
				},
				{
					"input":10,
					"interpolation":"STEP",
					"output":51
				},
				{
					"input":10,
					"interpolation":"STEP",
					"output":52
				},
				{
					"input":10,
					"interpolation":"STEP",
					"output":53
				},
				{
					"input":10,
					"interpolation":"LINEAR",
					"output":54
				},
				{
					"input":7,
					"interpolation":"LINEAR",
					"output":55
				},
				{
					"input":10,
					"interpolation":"LINEAR",
					"output":56
				},
				{
					"input":10,
					"interpolation":"LINEAR",
					"output":57
				},
				{
					"input":7,
					"interpolation":"LINEAR",
					"output":58
				},
				{
					"input":10,
					"interpolation":"STEP",
					"output":59
				},
				{
					"input":10,
					"interpolation":"LINEAR",
					"output":60
				},
				{
					"input":10,
					"interpolation":"LINEAR",
					"output":61
				},
				{
					"input":10,
					"interpolation":"STEP",
					"output":62
				},
				{
					"input":10,
					"interpolation":"STEP",
					"output":63
				},
				{
					"input":10,
					"interpolation":"STEP",
					"output":64
				},
				{
					"input":10,
					"interpolation":"STEP",
					"output":65
				},
				{
					"input":10,
					"interpolation":"LINEAR",
					"output":66
				},
				{
					"input":7,
					"interpolation":"LINEAR",
					"output":67
				},
				{
					"input":10,
					"interpolation":"LINEAR",
					"output":68
				},
				{
					"input":10,
					"interpolation":"LINEAR",
					"output":69
				},
				{
					"input":7,
					"interpolation":"LINEAR",
					"output":70
				},
				{
					"input":10,
					"interpolation":"STEP",
					"output":71
				},
				{
					"input":10,
					"interpolation":"LINEAR",
					"output":72
				},
				{
					"input":10,
					"interpolation":"LINEAR",
					"output":73
				},
				{
					"input":10,
					"interpolation":"STEP",
					"output":74
				},
				{
					"input":10,
					"interpolation":"STEP",
					"output":75
				},
				{
					"input":10,
					"interpolation":"STEP",
					"output":76
				},
				{
					"input":10,
					"interpolation":"STEP",
					"output":77
				},
				{
					"input":10,
					"interpolation":"LINEAR",
					"output":78
				},
				{
					"input":7,
					"interpolation":"LINEAR",
					"output":79
				},
				{
					"input":10,
					"interpolation":"LINEAR",
					"output":80
				},
				{
					"input":10,
					"interpolation":"LINEAR",
					"output":81
				},
				{
					"input":7,
					"interpolation":"LINEAR",
					"output":82
				},
				{
					"input":10,
					"interpolation":"LINEAR",
					"output":83
				},
				{
					"input":10,
					"interpolation":"LINEAR",
					"output":84
				},
				{
					"input":10,
					"interpolation":"LINEAR",
					"output":85
				},
				{
					"input":10,
					"interpolation":"STEP",
					"output":86
				},
				{
					"input":10,
					"interpolation":"STEP",
					"output":87
				},
				{
					"input":10,
					"interpolation":"STEP",
					"output":88
				},
				{
					"input":10,
					"interpolation":"STEP",
					"output":89
				},
				{
					"input":10,
					"interpolation":"LINEAR",
					"output":90
				},
				{
					"input":7,
					"interpolation":"LINEAR",
					"output":91
				},
				{
					"input":10,
					"interpolation":"STEP",
					"output":92
				},
				{
					"input":10,
					"interpolation":"LINEAR",
					"output":93
				},
				{
					"input":7,
					"interpolation":"LINEAR",
					"output":94
				},
				{
					"input":10,
					"interpolation":"STEP",
					"output":95
				},
				{
					"input":10,
					"interpolation":"LINEAR",
					"output":96
				},
				{
					"input":10,
					"interpolation":"LINEAR",
					"output":97
				},
				{
					"input":10,
					"interpolation":"LINEAR",
					"output":98
				},
				{
					"input":10,
					"interpolation":"STEP",
					"output":99
				},
				{
					"input":10,
					"interpolation":"STEP",
					"output":100
				},
				{
					"input":10,
					"interpolation":"STEP",
					"output":101
				},
				{
					"input":10,
					"interpolation":"LINEAR",
					"output":102
				},
				{
					"input":7,
					"interpolation":"LINEAR",
					"output":103
				},
				{
					"input":10,
					"interpolation":"STEP",
					"output":104
				},
				{
					"input":10,
					"interpolation":"LINEAR",
					"output":105
				},
				{
					"input":7,
					"interpolation":"LINEAR",
					"output":106
				},
				{
					"input":10,
					"interpolation":"STEP",
					"output":107
				},
				{
					"input":10,
					"interpolation":"LINEAR",
					"output":108
				},
				{
					"input":7,
					"interpolation":"LINEAR",
					"output":109
				},
				{
					"input":10,
					"interpolation":"STEP",
					"output":110
				},
				{
					"input":10,
					"interpolation":"LINEAR",
					"output":111
				},
				{
					"input":7,
					"interpolation":"LINEAR",
					"output":112
				},
				{
					"input":10,
					"interpolation":"STEP",
					"output":113
				},
				{
					"input":10,
					"interpolation":"LINEAR",
					"output":114
				},
				{
					"input":7,
					"interpolation":"LINEAR",
					"output":115
				},
				{
					"input":10,
					"interpolation":"LINEAR",
					"output":116
				},
				{
					"input":10,
					"interpolation":"LINEAR",
					"output":117
				},
				{
					"input":7,
					"interpolation":"LINEAR",
					"output":118
				},
				{
					"input":10,
					"interpolation":"LINEAR",
					"output":119
				},
				{
					"input":10,
					"interpolation":"LINEAR",
					"output":120
				},
				{
					"input":10,
					"interpolation":"LINEAR",
					"output":121
				},
				{
					"input":10,
					"interpolation":"LINEAR",
					"output":122
				},
				{
					"input":10,
					"interpolation":"STEP",
					"output":123
				},
				{
					"input":10,
					"interpolation":"STEP",
					"output":124
				},
				{
					"input":10,
					"interpolation":"STEP",
					"output":125
				},
				{
					"input":10,
					"interpolation":"LINEAR",
					"output":126
				},
				{
					"input":7,
					"interpolation":"LINEAR",
					"output":127
				},
				{
					"input":10,
					"interpolation":"LINEAR",
					"output":128
				},
				{
					"input":10,
					"interpolation":"LINEAR",
					"output":129
				},
				{
					"input":7,
					"interpolation":"LINEAR",
					"output":130
				},
				{
					"input":10,
					"interpolation":"STEP",
					"output":131
				},
				{
					"input":10,
					"interpolation":"LINEAR",
					"output":132
				},
				{
					"input":10,
					"interpolation":"LINEAR",
					"output":133
				},
				{
					"input":10,
					"interpolation":"STEP",
					"output":134
				},
				{
					"input":10,
					"interpolation":"STEP",
					"output":135
				},
				{
					"input":10,
					"interpolation":"STEP",
					"output":136
				},
				{
					"input":10,
					"interpolation":"STEP",
					"output":137
				},
				{
					"input":10,
					"interpolation":"LINEAR",
					"output":138
				},
				{
					"input":7,
					"interpolation":"LINEAR",
					"output":139
				},
				{
					"input":10,
					"interpolation":"STEP",
					"output":140
				},
				{
					"input":10,
					"interpolation":"LINEAR",
					"output":141
				},
				{
					"input":7,
					"interpolation":"LINEAR",
					"output":142
				},
				{
					"input":10,
					"interpolation":"LINEAR",
					"output":143
				},
				{
					"input":10,
					"interpolation":"LINEAR",
					"output":144
				},
				{
					"input":10,
					"interpolation":"LINEAR",
					"output":145
				},
				{
					"input":10,
					"interpolation":"LINEAR",
					"output":146
				},
				{
					"input":10,
					"interpolation":"STEP",
					"output":147
				},
				{
					"input":10,
					"interpolation":"STEP",
					"output":148
				},
				{
					"input":10,
					"interpolation":"STEP",
					"output":149
				},
				{
					"input":10,
					"interpolation":"LINEAR",
					"output":150
				},
				{
					"input":7,
					"interpolation":"LINEAR",
					"output":151
				},
				{
					"input":10,
					"interpolation":"LINEAR",
					"output":152
				},
				{
					"input":10,
					"interpolation":"LINEAR",
					"output":153
				},
				{
					"input":7,
					"interpolation":"LINEAR",
					"output":154
				},
				{
					"input":10,
					"interpolation":"STEP",
					"output":155
				},
				{
					"input":10,
					"interpolation":"LINEAR",
					"output":156
				},
				{
					"input":10,
					"interpolation":"LINEAR",
					"output":157
				},
				{
					"input":10,
					"interpolation":"STEP",
					"output":158
				},
				{
					"input":10,
					"interpolation":"STEP",
					"output":159
				},
				{
					"input":10,
					"interpolation":"STEP",
					"output":160
				},
				{
					"input":10,
					"interpolation":"STEP",
					"output":161
				},
				{
					"input":10,
					"interpolation":"LINEAR",
					"output":162
				},
				{
					"input":7,
					"interpolation":"LINEAR",
					"output":163
				},
				{
					"input":10,
					"interpolation":"STEP",
					"output":164
				},
				{
					"input":10,
					"interpolation":"LINEAR",
					"output":165
				},
				{
					"input":7,
					"interpolation":"LINEAR",
					"output":166
				},
				{
					"input":10,
					"interpolation":"LINEAR",
					"output":167
				},
				{
					"input":10,
					"interpolation":"LINEAR",
					"output":168
				},
				{
					"input":10,
					"interpolation":"LINEAR",
					"output":169
				},
				{
					"input":10,
					"interpolation":"STEP",
					"output":170
				},
				{
					"input":10,
					"interpolation":"STEP",
					"output":171
				},
				{
					"input":10,
					"interpolation":"STEP",
					"output":172
				},
				{
					"input":10,
					"interpolation":"STEP",
					"output":173
				},
				{
					"input":10,
					"interpolation":"LINEAR",
					"output":174
				},
				{
					"input":7,
					"interpolation":"LINEAR",
					"output":175
				},
				{
					"input":10,
					"interpolation":"STEP",
					"output":176
				},
				{
					"input":10,
					"interpolation":"LINEAR",
					"output":177
				},
				{
					"input":7,
					"interpolation":"LINEAR",
					"output":178
				},
				{
					"input":10,
					"interpolation":"LINEAR",
					"output":179
				},
				{
					"input":10,
					"interpolation":"LINEAR",
					"output":180
				},
				{
					"input":7,
					"interpolation":"LINEAR",
					"output":181
				},
				{
					"input":10,
					"interpolation":"STEP",
					"output":182
				},
				{
					"input":10,
					"interpolation":"LINEAR",
					"output":183
				},
				{
					"input":7,
					"interpolation":"LINEAR",
					"output":184
				},
				{
					"input":10,
					"interpolation":"STEP",
					"output":185
				},
				{
					"input":10,
					"interpolation":"STEP",
					"output":186
				},
				{
					"input":10,
					"interpolation":"STEP",
					"output":187
				},
				{
					"input":10,
					"interpolation":"STEP",
					"output":188
				},
				{
					"input":10,
					"interpolation":"LINEAR",
					"output":189
				},
				{
					"input":7,
					"interpolation":"LINEAR",
					"output":190
				},
				{
					"input":10,
					"interpolation":"STEP",
					"output":191
				},
				{
					"input":10,
					"interpolation":"LINEAR",
					"output":192
				},
				{
					"input":7,
					"interpolation":"LINEAR",
					"output":193
				},
				{
					"input":10,
					"interpolation":"STEP",
					"output":194
				},
				{
					"input":10,
					"interpolation":"LINEAR",
					"output":195
				},
				{
					"input":7,
					"interpolation":"LINEAR",
					"output":196
				},
				{
					"input":10,
					"interpolation":"STEP",
					"output":197
				},
				{
					"input":10,
					"interpolation":"LINEAR",
					"output":198
				},
				{
					"input":7,
					"interpolation":"LINEAR",
					"output":199
				},
				{
					"input":10,
					"interpolation":"STEP",
					"output":200
				},
				{
					"input":10,
					"interpolation":"STEP",
					"output":201
				},
				{
					"input":10,
					"interpolation":"STEP",
					"output":202
				},
				{
					"input":10,
					"interpolation":"STEP",
					"output":203
				}
			]
		}
	],
	"materials":[
		{
			"doubleSided":true,
			"extensions":{
				"KHR_materials_specular":{
					"specularColorFactor":[
						1.600000023841858,
						1.600000023841858,
						1.600000023841858
					]
				},
				"KHR_materials_ior":{
					"ior":1.4500000476837158
				}
			},
			"name":"None",
			"pbrMetallicRoughness":{
				"baseColorTexture":{
					"index":0
				},
				"metallicFactor":0,
				"roughnessFactor":0.2928932309150696
			}
		}
	],
	"meshes":[
		{
			"name":"Retopology_hp_Plane.002",
			"primitives":[
				{
					"attributes":{
						"POSITION":0,
						"NORMAL":1,
						"TEXCOORD_0":2,
						"JOINTS_0":3,
						"WEIGHTS_0":4
					},
					"indices":5,
					"material":0
				}
			]
		}
	],
	"textures":[
		{
			"sampler":0,
			"source":0
		}
	],
	"images":[
		{
			"mimeType":"image/png",
			"name":"white",
			"uri":"white.png"
		}
	],
	"skins":[
		{
			"inverseBindMatrices":6,
			"joints":[
				64,
				53,
				52,
				51,
				2,
				1,
				0,
				26,
				25,
				24,
				23,
				6,
				5,
				4,
				3,
				10,
				9,
				8,
				7,
				14,
				13,
				12,
				11,
				18,
				17,
				16,
				15,
				22,
				21,
				20,
				19,
				50,
				49,
				48,
				47,
				30,
				29,
				28,
				27,
				34,
				33,
				32,
				31,
				38,
				37,
				36,
				35,
				42,
				41,
				40,
				39,
				46,
				45,
				44,
				43,
				58,
				57,
				56,
				55,
				54,
				63,
				62,
				61,
				60,
				59
			],
			"name":"Armature"
		}
	],
	"accessors":[
		{
			"bufferView":0,
			"componentType":5126,
			"count":13538,
			"max":[
				0.5889710187911987,
				1.6565660238265991,
				0.33936557173728943
			],
			"min":[
				-0.5889710187911987,
				0.008111033588647842,
				-0.3872954249382019
			],
			"type":"VEC3"
		},
		{
			"bufferView":1,
			"componentType":5126,
			"count":13538,
			"type":"VEC3"
		},
		{
			"bufferView":2,
			"componentType":5126,
			"count":13538,
			"type":"VEC2"
		},
		{
			"bufferView":3,
			"componentType":5121,
			"count":13538,
			"type":"VEC4"
		},
		{
			"bufferView":4,
			"componentType":5126,
			"count":13538,
			"type":"VEC4"
		},
		{
			"bufferView":5,
			"componentType":5123,
			"count":80880,
			"type":"SCALAR"
		},
		{
			"bufferView":6,
			"componentType":5126,
			"count":65,
			"type":"MAT4"
		},
		{
			"bufferView":7,
			"componentType":5126,
			"count":62,
			"max":[
				1.0333333333333334
			],
			"min":[
				0.016666666666666666
			],
			"type":"SCALAR"
		},
		{
			"bufferView":8,
			"componentType":5126,
			"count":62,
			"type":"VEC3"
		},
		{
			"bufferView":9,
			"componentType":5126,
			"count":62,
			"type":"VEC4"
		},
		{
			"bufferView":10,
			"componentType":5126,
			"count":2,
			"max":[
				1.0333333333333334
			],
			"min":[
				0.016666666666666666
			],
			"type":"SCALAR"
		},
		{
			"bufferView":11,
			"componentType":5126,
			"count":2,
			"type":"VEC3"
		},
		{
			"bufferView":12,
			"componentType":5126,
			"count":2,
			"type":"VEC3"
		},
		{
			"bufferView":13,
			"componentType":5126,
			"count":62,
			"type":"VEC4"
		},
		{
			"bufferView":14,
			"componentType":5126,
			"count":2,
			"type":"VEC3"
		},
		{
			"bufferView":15,
			"componentType":5126,
			"count":2,
			"type":"VEC3"
		},
		{
			"bufferView":16,
			"componentType":5126,
			"count":62,
			"type":"VEC4"
		},
		{
			"bufferView":17,
			"componentType":5126,
			"count":2,
			"type":"VEC3"
		},
		{
			"bufferView":18,
			"componentType":5126,
			"count":2,
			"type":"VEC3"
		},
		{
			"bufferView":19,
			"componentType":5126,
			"count":62,
			"type":"VEC4"
		},
		{
			"bufferView":20,
			"componentType":5126,
			"count":2,
			"type":"VEC3"
		},
		{
			"bufferView":21,
			"componentType":5126,
			"count":2,
			"type":"VEC3"
		},
		{
			"bufferView":22,
			"componentType":5126,
			"count":62,
			"type":"VEC4"
		},
		{
			"bufferView":23,
			"componentType":5126,
			"count":2,
			"type":"VEC3"
		},
		{
			"bufferView":24,
			"componentType":5126,
			"count":2,
			"type":"VEC3"
		},
		{
			"bufferView":25,
			"componentType":5126,
			"count":62,
			"type":"VEC4"
		},
		{
			"bufferView":26,
			"componentType":5126,
			"count":2,
			"type":"VEC3"
		},
		{
			"bufferView":27,
			"componentType":5126,
			"count":2,
			"type":"VEC3"
		},
		{
			"bufferView":28,
			"componentType":5126,
			"count":2,
			"type":"VEC4"
		},
		{
			"bufferView":29,
			"componentType":5126,
			"count":2,
			"type":"VEC3"
		},
		{
			"bufferView":30,
			"componentType":5126,
			"count":2,
			"type":"VEC3"
		},
		{
			"bufferView":31,
			"componentType":5126,
			"count":62,
			"type":"VEC4"
		},
		{
			"bufferView":32,
			"componentType":5126,
			"count":2,
			"type":"VEC3"
		},
		{
			"bufferView":33,
			"componentType":5126,
			"count":2,
			"type":"VEC3"
		},
		{
			"bufferView":34,
			"componentType":5126,
			"count":62,
			"type":"VEC4"
		},
		{
			"bufferView":35,
			"componentType":5126,
			"count":2,
			"type":"VEC3"
		},
		{
			"bufferView":36,
			"componentType":5126,
			"count":2,
			"type":"VEC3"
		},
		{
			"bufferView":37,
			"componentType":5126,
			"count":62,
			"type":"VEC4"
		},
		{
			"bufferView":38,
			"componentType":5126,
			"count":2,
			"type":"VEC3"
		},
		{
			"bufferView":39,
			"componentType":5126,
			"count":2,
			"type":"VEC3"
		},
		{
			"bufferView":40,
			"componentType":5126,
			"count":62,
			"type":"VEC4"
		},
		{
			"bufferView":41,
			"componentType":5126,
			"count":2,
			"type":"VEC3"
		},
		{
			"bufferView":42,
			"componentType":5126,
			"count":2,
			"type":"VEC3"
		},
		{
			"bufferView":43,
			"componentType":5126,
			"count":2,
			"type":"VEC4"
		},
		{
			"bufferView":44,
			"componentType":5126,
			"count":2,
			"type":"VEC3"
		},
		{
			"bufferView":45,
			"componentType":5126,
			"count":2,
			"type":"VEC3"
		},
		{
			"bufferView":46,
			"componentType":5126,
			"count":2,
			"type":"VEC4"
		},
		{
			"bufferView":47,
			"componentType":5126,
			"count":2,
			"type":"VEC3"
		},
		{
			"bufferView":48,
			"componentType":5126,
			"count":2,
			"type":"VEC3"
		},
		{
			"bufferView":49,
			"componentType":5126,
			"count":2,
			"type":"VEC4"
		},
		{
			"bufferView":50,
			"componentType":5126,
			"count":2,
			"type":"VEC3"
		},
		{
			"bufferView":51,
			"componentType":5126,
			"count":2,
			"type":"VEC3"
		},
		{
			"bufferView":52,
			"componentType":5126,
			"count":2,
			"type":"VEC4"
		},
		{
			"bufferView":53,
			"componentType":5126,
			"count":2,
			"type":"VEC3"
		},
		{
			"bufferView":54,
			"componentType":5126,
			"count":2,
			"type":"VEC3"
		},
		{
			"bufferView":55,
			"componentType":5126,
			"count":62,
			"type":"VEC4"
		},
		{
			"bufferView":56,
			"componentType":5126,
			"count":2,
			"type":"VEC3"
		},
		{
			"bufferView":57,
			"componentType":5126,
			"count":2,
			"type":"VEC3"
		},
		{
			"bufferView":58,
			"componentType":5126,
			"count":62,
			"type":"VEC4"
		},
		{
			"bufferView":59,
			"componentType":5126,
			"count":2,
			"type":"VEC3"
		},
		{
			"bufferView":60,
			"componentType":5126,
			"count":2,
			"type":"VEC3"
		},
		{
			"bufferView":61,
			"componentType":5126,
			"count":2,
			"type":"VEC4"
		},
		{
			"bufferView":62,
			"componentType":5126,
			"count":2,
			"type":"VEC3"
		},
		{
			"bufferView":63,
			"componentType":5126,
			"count":2,
			"type":"VEC3"
		},
		{
			"bufferView":64,
			"componentType":5126,
			"count":2,
			"type":"VEC4"
		},
		{
			"bufferView":65,
			"componentType":5126,
			"count":2,
			"type":"VEC3"
		},
		{
			"bufferView":66,
			"componentType":5126,
			"count":2,
			"type":"VEC3"
		},
		{
			"bufferView":67,
			"componentType":5126,
			"count":62,
			"type":"VEC4"
		},
		{
			"bufferView":68,
			"componentType":5126,
			"count":2,
			"type":"VEC3"
		},
		{
			"bufferView":69,
			"componentType":5126,
			"count":2,
			"type":"VEC3"
		},
		{
			"bufferView":70,
			"componentType":5126,
			"count":62,
			"type":"VEC4"
		},
		{
			"bufferView":71,
			"componentType":5126,
			"count":2,
			"type":"VEC3"
		},
		{
			"bufferView":72,
			"componentType":5126,
			"count":2,
			"type":"VEC3"
		},
		{
			"bufferView":73,
			"componentType":5126,
			"count":2,
			"type":"VEC4"
		},
		{
			"bufferView":74,
			"componentType":5126,
			"count":2,
			"type":"VEC3"
		},
		{
			"bufferView":75,
			"componentType":5126,
			"count":2,
			"type":"VEC3"
		},
		{
			"bufferView":76,
			"componentType":5126,
			"count":2,
			"type":"VEC4"
		},
		{
			"bufferView":77,
			"componentType":5126,
			"count":2,
			"type":"VEC3"
		},
		{
			"bufferView":78,
			"componentType":5126,
			"count":2,
			"type":"VEC3"
		},
		{
			"bufferView":79,
			"componentType":5126,
			"count":62,
			"type":"VEC4"
		},
		{
			"bufferView":80,
			"componentType":5126,
			"count":2,
			"type":"VEC3"
		},
		{
			"bufferView":81,
			"componentType":5126,
			"count":2,
			"type":"VEC3"
		},
		{
			"bufferView":82,
			"componentType":5126,
			"count":62,
			"type":"VEC4"
		},
		{
			"bufferView":83,
			"componentType":5126,
			"count":2,
			"type":"VEC3"
		},
		{
			"bufferView":84,
			"componentType":5126,
			"count":2,
			"type":"VEC3"
		},
		{
			"bufferView":85,
			"componentType":5126,
			"count":2,
			"type":"VEC4"
		},
		{
			"bufferView":86,
			"componentType":5126,
			"count":2,
			"type":"VEC3"
		},
		{
			"bufferView":87,
			"componentType":5126,
			"count":2,
			"type":"VEC3"
		},
		{
			"bufferView":88,
			"componentType":5126,
			"count":2,
			"type":"VEC4"
		},
		{
			"bufferView":89,
			"componentType":5126,
			"count":2,
			"type":"VEC3"
		},
		{
			"bufferView":90,
			"componentType":5126,
			"count":2,
			"type":"VEC3"
		},
		{
			"bufferView":91,
			"componentType":5126,
			"count":62,
			"type":"VEC4"
		},
		{
			"bufferView":92,
			"componentType":5126,
			"count":2,
			"type":"VEC3"
		},
		{
			"bufferView":93,
			"componentType":5126,
			"count":2,
			"type":"VEC3"
		},
		{
			"bufferView":94,
			"componentType":5126,
			"count":62,
			"type":"VEC4"
		},
		{
			"bufferView":95,
			"componentType":5126,
			"count":2,
			"type":"VEC3"
		},
		{
			"bufferView":96,
			"componentType":5126,
			"count":2,
			"type":"VEC3"
		},
		{
			"bufferView":97,
			"componentType":5126,
			"count":2,
			"type":"VEC4"
		},
		{
			"bufferView":98,
			"componentType":5126,
			"count":2,
			"type":"VEC3"
		},
		{
			"bufferView":99,
			"componentType":5126,
			"count":2,
			"type":"VEC3"
		},
		{
			"bufferView":100,
			"componentType":5126,
			"count":2,
			"type":"VEC4"
		},
		{
			"bufferView":101,
			"componentType":5126,
			"count":2,
			"type":"VEC3"
		},
		{
			"bufferView":102,
			"componentType":5126,
			"count":2,
			"type":"VEC3"
		},
		{
			"bufferView":103,
			"componentType":5126,
			"count":62,
			"type":"VEC4"
		},
		{
			"bufferView":104,
			"componentType":5126,
			"count":2,
			"type":"VEC3"
		},
		{
			"bufferView":105,
			"componentType":5126,
			"count":2,
			"type":"VEC3"
		},
		{
			"bufferView":106,
			"componentType":5126,
			"count":62,
			"type":"VEC4"
		},
		{
			"bufferView":107,
			"componentType":5126,
			"count":2,
			"type":"VEC3"
		},
		{
			"bufferView":108,
			"componentType":5126,
			"count":2,
			"type":"VEC3"
		},
		{
			"bufferView":109,
			"componentType":5126,
			"count":62,
			"type":"VEC4"
		},
		{
			"bufferView":110,
			"componentType":5126,
			"count":2,
			"type":"VEC3"
		},
		{
			"bufferView":111,
			"componentType":5126,
			"count":2,
			"type":"VEC3"
		},
		{
			"bufferView":112,
			"componentType":5126,
			"count":62,
			"type":"VEC4"
		},
		{
			"bufferView":113,
			"componentType":5126,
			"count":2,
			"type":"VEC3"
		},
		{
			"bufferView":114,
			"componentType":5126,
			"count":2,
			"type":"VEC3"
		},
		{
			"bufferView":115,
			"componentType":5126,
			"count":62,
			"type":"VEC4"
		},
		{
			"bufferView":116,
			"componentType":5126,
			"count":2,
			"type":"VEC3"
		},
		{
			"bufferView":117,
			"componentType":5126,
			"count":2,
			"type":"VEC3"
		},
		{
			"bufferView":118,
			"componentType":5126,
			"count":62,
			"type":"VEC4"
		},
		{
			"bufferView":119,
			"componentType":5126,
			"count":2,
			"type":"VEC3"
		},
		{
			"bufferView":120,
			"componentType":5126,
			"count":2,
			"type":"VEC3"
		},
		{
			"bufferView":121,
			"componentType":5126,
			"count":2,
			"type":"VEC4"
		},
		{
			"bufferView":122,
			"componentType":5126,
			"count":2,
			"type":"VEC3"
		},
		{
			"bufferView":123,
			"componentType":5126,
			"count":2,
			"type":"VEC3"
		},
		{
			"bufferView":124,
			"componentType":5126,
			"count":2,
			"type":"VEC4"
		},
		{
			"bufferView":125,
			"componentType":5126,
			"count":2,
			"type":"VEC3"
		},
		{
			"bufferView":126,
			"componentType":5126,
			"count":2,
			"type":"VEC3"
		},
		{
			"bufferView":127,
			"componentType":5126,
			"count":62,
			"type":"VEC4"
		},
		{
			"bufferView":128,
			"componentType":5126,
			"count":2,
			"type":"VEC3"
		},
		{
			"bufferView":129,
			"componentType":5126,
			"count":2,
			"type":"VEC3"
		},
		{
			"bufferView":130,
			"componentType":5126,
			"count":62,
			"type":"VEC4"
		},
		{
			"bufferView":131,
			"componentType":5126,
			"count":2,
			"type":"VEC3"
		},
		{
			"bufferView":132,
			"componentType":5126,
			"count":2,
			"type":"VEC3"
		},
		{
			"bufferView":133,
			"componentType":5126,
			"count":2,
			"type":"VEC4"
		},
		{
			"bufferView":134,
			"componentType":5126,
			"count":2,
			"type":"VEC3"
		},
		{
			"bufferView":135,
			"componentType":5126,
			"count":2,
			"type":"VEC3"
		},
		{
			"bufferView":136,
			"componentType":5126,
			"count":2,
			"type":"VEC4"
		},
		{
			"bufferView":137,
			"componentType":5126,
			"count":2,
			"type":"VEC3"
		},
		{
			"bufferView":138,
			"componentType":5126,
			"count":2,
			"type":"VEC3"
		},
		{
			"bufferView":139,
			"componentType":5126,
			"count":62,
			"type":"VEC4"
		},
		{
			"bufferView":140,
			"componentType":5126,
			"count":2,
			"type":"VEC3"
		},
		{
			"bufferView":141,
			"componentType":5126,
			"count":2,
			"type":"VEC3"
		},
		{
			"bufferView":142,
			"componentType":5126,
			"count":62,
			"type":"VEC4"
		},
		{
			"bufferView":143,
			"componentType":5126,
			"count":2,
			"type":"VEC3"
		},
		{
			"bufferView":144,
			"componentType":5126,
			"count":2,
			"type":"VEC3"
		},
		{
			"bufferView":145,
			"componentType":5126,
			"count":2,
			"type":"VEC4"
		},
		{
			"bufferView":146,
			"componentType":5126,
			"count":2,
			"type":"VEC3"
		},
		{
			"bufferView":147,
			"componentType":5126,
			"count":2,
			"type":"VEC3"
		},
		{
			"bufferView":148,
			"componentType":5126,
			"count":2,
			"type":"VEC4"
		},
		{
			"bufferView":149,
			"componentType":5126,
			"count":2,
			"type":"VEC3"
		},
		{
			"bufferView":150,
			"componentType":5126,
			"count":2,
			"type":"VEC3"
		},
		{
			"bufferView":151,
			"componentType":5126,
			"count":62,
			"type":"VEC4"
		},
		{
			"bufferView":152,
			"componentType":5126,
			"count":2,
			"type":"VEC3"
		},
		{
			"bufferView":153,
			"componentType":5126,
			"count":2,
			"type":"VEC3"
		},
		{
			"bufferView":154,
			"componentType":5126,
			"count":62,
			"type":"VEC4"
		},
		{
			"bufferView":155,
			"componentType":5126,
			"count":2,
			"type":"VEC3"
		},
		{
			"bufferView":156,
			"componentType":5126,
			"count":2,
			"type":"VEC3"
		},
		{
			"bufferView":157,
			"componentType":5126,
			"count":2,
			"type":"VEC4"
		},
		{
			"bufferView":158,
			"componentType":5126,
			"count":2,
			"type":"VEC3"
		},
		{
			"bufferView":159,
			"componentType":5126,
			"count":2,
			"type":"VEC3"
		},
		{
			"bufferView":160,
			"componentType":5126,
			"count":2,
			"type":"VEC4"
		},
		{
			"bufferView":161,
			"componentType":5126,
			"count":2,
			"type":"VEC3"
		},
		{
			"bufferView":162,
			"componentType":5126,
			"count":2,
			"type":"VEC3"
		},
		{
			"bufferView":163,
			"componentType":5126,
			"count":62,
			"type":"VEC4"
		},
		{
			"bufferView":164,
			"componentType":5126,
			"count":2,
			"type":"VEC3"
		},
		{
			"bufferView":165,
			"componentType":5126,
			"count":2,
			"type":"VEC3"
		},
		{
			"bufferView":166,
			"componentType":5126,
			"count":62,
			"type":"VEC4"
		},
		{
			"bufferView":167,
			"componentType":5126,
			"count":2,
			"type":"VEC3"
		},
		{
			"bufferView":168,
			"componentType":5126,
			"count":2,
			"type":"VEC3"
		},
		{
			"bufferView":169,
			"componentType":5126,
			"count":2,
			"type":"VEC4"
		},
		{
			"bufferView":170,
			"componentType":5126,
			"count":2,
			"type":"VEC3"
		},
		{
			"bufferView":171,
			"componentType":5126,
			"count":2,
			"type":"VEC3"
		},
		{
			"bufferView":172,
			"componentType":5126,
			"count":2,
			"type":"VEC4"
		},
		{
			"bufferView":173,
			"componentType":5126,
			"count":2,
			"type":"VEC3"
		},
		{
			"bufferView":174,
			"componentType":5126,
			"count":2,
			"type":"VEC3"
		},
		{
			"bufferView":175,
			"componentType":5126,
			"count":62,
			"type":"VEC4"
		},
		{
			"bufferView":176,
			"componentType":5126,
			"count":2,
			"type":"VEC3"
		},
		{
			"bufferView":177,
			"componentType":5126,
			"count":2,
			"type":"VEC3"
		},
		{
			"bufferView":178,
			"componentType":5126,
			"count":62,
			"type":"VEC4"
		},
		{
			"bufferView":179,
			"componentType":5126,
			"count":2,
			"type":"VEC3"
		},
		{
			"bufferView":180,
			"componentType":5126,
			"count":2,
			"type":"VEC3"
		},
		{
			"bufferView":181,
			"componentType":5126,
			"count":62,
			"type":"VEC4"
		},
		{
			"bufferView":182,
			"componentType":5126,
			"count":2,
			"type":"VEC3"
		},
		{
			"bufferView":183,
			"componentType":5126,
			"count":2,
			"type":"VEC3"
		},
		{
			"bufferView":184,
			"componentType":5126,
			"count":62,
			"type":"VEC4"
		},
		{
			"bufferView":185,
			"componentType":5126,
			"count":2,
			"type":"VEC3"
		},
		{
			"bufferView":186,
			"componentType":5126,
			"count":2,
			"type":"VEC3"
		},
		{
			"bufferView":187,
			"componentType":5126,
			"count":2,
			"type":"VEC4"
		},
		{
			"bufferView":188,
			"componentType":5126,
			"count":2,
			"type":"VEC3"
		},
		{
			"bufferView":189,
			"componentType":5126,
			"count":2,
			"type":"VEC3"
		},
		{
			"bufferView":190,
			"componentType":5126,
			"count":62,
			"type":"VEC4"
		},
		{
			"bufferView":191,
			"componentType":5126,
			"count":2,
			"type":"VEC3"
		},
		{
			"bufferView":192,
			"componentType":5126,
			"count":2,
			"type":"VEC3"
		},
		{
			"bufferView":193,
			"componentType":5126,
			"count":62,
			"type":"VEC4"
		},
		{
			"bufferView":194,
			"componentType":5126,
			"count":2,
			"type":"VEC3"
		},
		{
			"bufferView":195,
			"componentType":5126,
			"count":2,
			"type":"VEC3"
		},
		{
			"bufferView":196,
			"componentType":5126,
			"count":62,
			"type":"VEC4"
		},
		{
			"bufferView":197,
			"componentType":5126,
			"count":2,
			"type":"VEC3"
		},
		{
			"bufferView":198,
			"componentType":5126,
			"count":2,
			"type":"VEC3"
		},
		{
			"bufferView":199,
			"componentType":5126,
			"count":62,
			"type":"VEC4"
		},
		{
			"bufferView":200,
			"componentType":5126,
			"count":2,
			"type":"VEC3"
		},
		{
			"bufferView":201,
			"componentType":5126,
			"count":2,
			"type":"VEC3"
		},
		{
			"bufferView":202,
			"componentType":5126,
			"count":2,
			"type":"VEC4"
		},
		{
			"bufferView":203,
			"componentType":5126,
			"count":2,
			"type":"VEC3"
		}
	],
	"bufferViews":[
		{
			"buffer":0,
			"byteLength":162456,
			"byteOffset":0,
			"target":34962
		},
		{
			"buffer":0,
			"byteLength":162456,
			"byteOffset":162456,
			"target":34962
		},
		{
			"buffer":0,
			"byteLength":108304,
			"byteOffset":324912,
			"target":34962
		},
		{
			"buffer":0,
			"byteLength":54152,
			"byteOffset":433216,
			"target":34962
		},
		{
			"buffer":0,
			"byteLength":216608,
			"byteOffset":487368,
			"target":34962
		},
		{
			"buffer":0,
			"byteLength":161760,
			"byteOffset":703976,
			"target":34963
		},
		{
			"buffer":0,
			"byteLength":4160,
			"byteOffset":865736
		},
		{
			"buffer":0,
			"byteLength":248,
			"byteOffset":869896
		},
		{
			"buffer":0,
			"byteLength":744,
			"byteOffset":870144
		},
		{
			"buffer":0,
			"byteLength":992,
			"byteOffset":870888
		},
		{
			"buffer":0,
			"byteLength":8,
			"byteOffset":871880
		},
		{
			"buffer":0,
			"byteLength":24,
			"byteOffset":871888
		},
		{
			"buffer":0,
			"byteLength":24,
			"byteOffset":871912
		},
		{
			"buffer":0,
			"byteLength":992,
			"byteOffset":871936
		},
		{
			"buffer":0,
			"byteLength":24,
			"byteOffset":872928
		},
		{
			"buffer":0,
			"byteLength":24,
			"byteOffset":872952
		},
		{
			"buffer":0,
			"byteLength":992,
			"byteOffset":872976
		},
		{
			"buffer":0,
			"byteLength":24,
			"byteOffset":873968
		},
		{
			"buffer":0,
			"byteLength":24,
			"byteOffset":873992
		},
		{
			"buffer":0,
			"byteLength":992,
			"byteOffset":874016
		},
		{
			"buffer":0,
			"byteLength":24,
			"byteOffset":875008
		},
		{
			"buffer":0,
			"byteLength":24,
			"byteOffset":875032
		},
		{
			"buffer":0,
			"byteLength":992,
			"byteOffset":875056
		},
		{
			"buffer":0,
			"byteLength":24,
			"byteOffset":876048
		},
		{
			"buffer":0,
			"byteLength":24,
			"byteOffset":876072
		},
		{
			"buffer":0,
			"byteLength":992,
			"byteOffset":876096
		},
		{
			"buffer":0,
			"byteLength":24,
			"byteOffset":877088
		},
		{
			"buffer":0,
			"byteLength":24,
			"byteOffset":877112
		},
		{
			"buffer":0,
			"byteLength":32,
			"byteOffset":877136
		},
		{
			"buffer":0,
			"byteLength":24,
			"byteOffset":877168
		},
		{
			"buffer":0,
			"byteLength":24,
			"byteOffset":877192
		},
		{
			"buffer":0,
			"byteLength":992,
			"byteOffset":877216
		},
		{
			"buffer":0,
			"byteLength":24,
			"byteOffset":878208
		},
		{
			"buffer":0,
			"byteLength":24,
			"byteOffset":878232
		},
		{
			"buffer":0,
			"byteLength":992,
			"byteOffset":878256
		},
		{
			"buffer":0,
			"byteLength":24,
			"byteOffset":879248
		},
		{
			"buffer":0,
			"byteLength":24,
			"byteOffset":879272
		},
		{
			"buffer":0,
			"byteLength":992,
			"byteOffset":879296
		},
		{
			"buffer":0,
			"byteLength":24,
			"byteOffset":880288
		},
		{
			"buffer":0,
			"byteLength":24,
			"byteOffset":880312
		},
		{
			"buffer":0,
			"byteLength":992,
			"byteOffset":880336
		},
		{
			"buffer":0,
			"byteLength":24,
			"byteOffset":881328
		},
		{
			"buffer":0,
			"byteLength":24,
			"byteOffset":881352
		},
		{
			"buffer":0,
			"byteLength":32,
			"byteOffset":881376
		},
		{
			"buffer":0,
			"byteLength":24,
			"byteOffset":881408
		},
		{
			"buffer":0,
			"byteLength":24,
			"byteOffset":881432
		},
		{
			"buffer":0,
			"byteLength":32,
			"byteOffset":881456
		},
		{
			"buffer":0,
			"byteLength":24,
			"byteOffset":881488
		},
		{
			"buffer":0,
			"byteLength":24,
			"byteOffset":881512
		},
		{
			"buffer":0,
			"byteLength":32,
			"byteOffset":881536
		},
		{
			"buffer":0,
			"byteLength":24,
			"byteOffset":881568
		},
		{
			"buffer":0,
			"byteLength":24,
			"byteOffset":881592
		},
		{
			"buffer":0,
			"byteLength":32,
			"byteOffset":881616
		},
		{
			"buffer":0,
			"byteLength":24,
			"byteOffset":881648
		},
		{
			"buffer":0,
			"byteLength":24,
			"byteOffset":881672
		},
		{
			"buffer":0,
			"byteLength":992,
			"byteOffset":881696
		},
		{
			"buffer":0,
			"byteLength":24,
			"byteOffset":882688
		},
		{
			"buffer":0,
			"byteLength":24,
			"byteOffset":882712
		},
		{
			"buffer":0,
			"byteLength":992,
			"byteOffset":882736
		},
		{
			"buffer":0,
			"byteLength":24,
			"byteOffset":883728
		},
		{
			"buffer":0,
			"byteLength":24,
			"byteOffset":883752
		},
		{
			"buffer":0,
			"byteLength":32,
			"byteOffset":883776
		},
		{
			"buffer":0,
			"byteLength":24,
			"byteOffset":883808
		},
		{
			"buffer":0,
			"byteLength":24,
			"byteOffset":883832
		},
		{
			"buffer":0,
			"byteLength":32,
			"byteOffset":883856
		},
		{
			"buffer":0,
			"byteLength":24,
			"byteOffset":883888
		},
		{
			"buffer":0,
			"byteLength":24,
			"byteOffset":883912
		},
		{
			"buffer":0,
			"byteLength":992,
			"byteOffset":883936
		},
		{
			"buffer":0,
			"byteLength":24,
			"byteOffset":884928
		},
		{
			"buffer":0,
			"byteLength":24,
			"byteOffset":884952
		},
		{
			"buffer":0,
			"byteLength":992,
			"byteOffset":884976
		},
		{
			"buffer":0,
			"byteLength":24,
			"byteOffset":885968
		},
		{
			"buffer":0,
			"byteLength":24,
			"byteOffset":885992
		},
		{
			"buffer":0,
			"byteLength":32,
			"byteOffset":886016
		},
		{
			"buffer":0,
			"byteLength":24,
			"byteOffset":886048
		},
		{
			"buffer":0,
			"byteLength":24,
			"byteOffset":886072
		},
		{
			"buffer":0,
			"byteLength":32,
			"byteOffset":886096
		},
		{
			"buffer":0,
			"byteLength":24,
			"byteOffset":886128
		},
		{
			"buffer":0,
			"byteLength":24,
			"byteOffset":886152
		},
		{
			"buffer":0,
			"byteLength":992,
			"byteOffset":886176
		},
		{
			"buffer":0,
			"byteLength":24,
			"byteOffset":887168
		},
		{
			"buffer":0,
			"byteLength":24,
			"byteOffset":887192
		},
		{
			"buffer":0,
			"byteLength":992,
			"byteOffset":887216
		},
		{
			"buffer":0,
			"byteLength":24,
			"byteOffset":888208
		},
		{
			"buffer":0,
			"byteLength":24,
			"byteOffset":888232
		},
		{
			"buffer":0,
			"byteLength":32,
			"byteOffset":888256
		},
		{
			"buffer":0,
			"byteLength":24,
			"byteOffset":888288
		},
		{
			"buffer":0,
			"byteLength":24,
			"byteOffset":888312
		},
		{
			"buffer":0,
			"byteLength":32,
			"byteOffset":888336
		},
		{
			"buffer":0,
			"byteLength":24,
			"byteOffset":888368
		},
		{
			"buffer":0,
			"byteLength":24,
			"byteOffset":888392
		},
		{
			"buffer":0,
			"byteLength":992,
			"byteOffset":888416
		},
		{
			"buffer":0,
			"byteLength":24,
			"byteOffset":889408
		},
		{
			"buffer":0,
			"byteLength":24,
			"byteOffset":889432
		},
		{
			"buffer":0,
			"byteLength":992,
			"byteOffset":889456
		},
		{
			"buffer":0,
			"byteLength":24,
			"byteOffset":890448
		},
		{
			"buffer":0,
			"byteLength":24,
			"byteOffset":890472
		},
		{
			"buffer":0,
			"byteLength":32,
			"byteOffset":890496
		},
		{
			"buffer":0,
			"byteLength":24,
			"byteOffset":890528
		},
		{
			"buffer":0,
			"byteLength":24,
			"byteOffset":890552
		},
		{
			"buffer":0,
			"byteLength":32,
			"byteOffset":890576
		},
		{
			"buffer":0,
			"byteLength":24,
			"byteOffset":890608
		},
		{
			"buffer":0,
			"byteLength":24,
			"byteOffset":890632
		},
		{
			"buffer":0,
			"byteLength":992,
			"byteOffset":890656
		},
		{
			"buffer":0,
			"byteLength":24,
			"byteOffset":891648
		},
		{
			"buffer":0,
			"byteLength":24,
			"byteOffset":891672
		},
		{
			"buffer":0,
			"byteLength":992,
			"byteOffset":891696
		},
		{
			"buffer":0,
			"byteLength":24,
			"byteOffset":892688
		},
		{
			"buffer":0,
			"byteLength":24,
			"byteOffset":892712
		},
		{
			"buffer":0,
			"byteLength":992,
			"byteOffset":892736
		},
		{
			"buffer":0,
			"byteLength":24,
			"byteOffset":893728
		},
		{
			"buffer":0,
			"byteLength":24,
			"byteOffset":893752
		},
		{
			"buffer":0,
			"byteLength":992,
			"byteOffset":893776
		},
		{
			"buffer":0,
			"byteLength":24,
			"byteOffset":894768
		},
		{
			"buffer":0,
			"byteLength":24,
			"byteOffset":894792
		},
		{
			"buffer":0,
			"byteLength":992,
			"byteOffset":894816
		},
		{
			"buffer":0,
			"byteLength":24,
			"byteOffset":895808
		},
		{
			"buffer":0,
			"byteLength":24,
			"byteOffset":895832
		},
		{
			"buffer":0,
			"byteLength":992,
			"byteOffset":895856
		},
		{
			"buffer":0,
			"byteLength":24,
			"byteOffset":896848
		},
		{
			"buffer":0,
			"byteLength":24,
			"byteOffset":896872
		},
		{
			"buffer":0,
			"byteLength":32,
			"byteOffset":896896
		},
		{
			"buffer":0,
			"byteLength":24,
			"byteOffset":896928
		},
		{
			"buffer":0,
			"byteLength":24,
			"byteOffset":896952
		},
		{
			"buffer":0,
			"byteLength":32,
			"byteOffset":896976
		},
		{
			"buffer":0,
			"byteLength":24,
			"byteOffset":897008
		},
		{
			"buffer":0,
			"byteLength":24,
			"byteOffset":897032
		},
		{
			"buffer":0,
			"byteLength":992,
			"byteOffset":897056
		},
		{
			"buffer":0,
			"byteLength":24,
			"byteOffset":898048
		},
		{
			"buffer":0,
			"byteLength":24,
			"byteOffset":898072
		},
		{
			"buffer":0,
			"byteLength":992,
			"byteOffset":898096
		},
		{
			"buffer":0,
			"byteLength":24,
			"byteOffset":899088
		},
		{
			"buffer":0,
			"byteLength":24,
			"byteOffset":899112
		},
		{
			"buffer":0,
			"byteLength":32,
			"byteOffset":899136
		},
		{
			"buffer":0,
			"byteLength":24,
			"byteOffset":899168
		},
		{
			"buffer":0,
			"byteLength":24,
			"byteOffset":899192
		},
		{
			"buffer":0,
			"byteLength":32,
			"byteOffset":899216
		},
		{
			"buffer":0,
			"byteLength":24,
			"byteOffset":899248
		},
		{
			"buffer":0,
			"byteLength":24,
			"byteOffset":899272
		},
		{
			"buffer":0,
			"byteLength":992,
			"byteOffset":899296
		},
		{
			"buffer":0,
			"byteLength":24,
			"byteOffset":900288
		},
		{
			"buffer":0,
			"byteLength":24,
			"byteOffset":900312
		},
		{
			"buffer":0,
			"byteLength":992,
			"byteOffset":900336
		},
		{
			"buffer":0,
			"byteLength":24,
			"byteOffset":901328
		},
		{
			"buffer":0,
			"byteLength":24,
			"byteOffset":901352
		},
		{
			"buffer":0,
			"byteLength":32,
			"byteOffset":901376
		},
		{
			"buffer":0,
			"byteLength":24,
			"byteOffset":901408
		},
		{
			"buffer":0,
			"byteLength":24,
			"byteOffset":901432
		},
		{
			"buffer":0,
			"byteLength":32,
			"byteOffset":901456
		},
		{
			"buffer":0,
			"byteLength":24,
			"byteOffset":901488
		},
		{
			"buffer":0,
			"byteLength":24,
			"byteOffset":901512
		},
		{
			"buffer":0,
			"byteLength":992,
			"byteOffset":901536
		},
		{
			"buffer":0,
			"byteLength":24,
			"byteOffset":902528
		},
		{
			"buffer":0,
			"byteLength":24,
			"byteOffset":902552
		},
		{
			"buffer":0,
			"byteLength":992,
			"byteOffset":902576
		},
		{
			"buffer":0,
			"byteLength":24,
			"byteOffset":903568
		},
		{
			"buffer":0,
			"byteLength":24,
			"byteOffset":903592
		},
		{
			"buffer":0,
			"byteLength":32,
			"byteOffset":903616
		},
		{
			"buffer":0,
			"byteLength":24,
			"byteOffset":903648
		},
		{
			"buffer":0,
			"byteLength":24,
			"byteOffset":903672
		},
		{
			"buffer":0,
			"byteLength":32,
			"byteOffset":903696
		},
		{
			"buffer":0,
			"byteLength":24,
			"byteOffset":903728
		},
		{
			"buffer":0,
			"byteLength":24,
			"byteOffset":903752
		},
		{
			"buffer":0,
			"byteLength":992,
			"byteOffset":903776
		},
		{
			"buffer":0,
			"byteLength":24,
			"byteOffset":904768
		},
		{
			"buffer":0,
			"byteLength":24,
			"byteOffset":904792
		},
		{
			"buffer":0,
			"byteLength":992,
			"byteOffset":904816
		},
		{
			"buffer":0,
			"byteLength":24,
			"byteOffset":905808
		},
		{
			"buffer":0,
			"byteLength":24,
			"byteOffset":905832
		},
		{
			"buffer":0,
			"byteLength":32,
			"byteOffset":905856
		},
		{
			"buffer":0,
			"byteLength":24,
			"byteOffset":905888
		},
		{
			"buffer":0,
			"byteLength":24,
			"byteOffset":905912
		},
		{
			"buffer":0,
			"byteLength":32,
			"byteOffset":905936
		},
		{
			"buffer":0,
			"byteLength":24,
			"byteOffset":905968
		},
		{
			"buffer":0,
			"byteLength":24,
			"byteOffset":905992
		},
		{
			"buffer":0,
			"byteLength":992,
			"byteOffset":906016
		},
		{
			"buffer":0,
			"byteLength":24,
			"byteOffset":907008
		},
		{
			"buffer":0,
			"byteLength":24,
			"byteOffset":907032
		},
		{
			"buffer":0,
			"byteLength":992,
			"byteOffset":907056
		},
		{
			"buffer":0,
			"byteLength":24,
			"byteOffset":908048
		},
		{
			"buffer":0,
			"byteLength":24,
			"byteOffset":908072
		},
		{
			"buffer":0,
			"byteLength":992,
			"byteOffset":908096
		},
		{
			"buffer":0,
			"byteLength":24,
			"byteOffset":909088
		},
		{
			"buffer":0,
			"byteLength":24,
			"byteOffset":909112
		},
		{
			"buffer":0,
			"byteLength":992,
			"byteOffset":909136
		},
		{
			"buffer":0,
			"byteLength":24,
			"byteOffset":910128
		},
		{
			"buffer":0,
			"byteLength":24,
			"byteOffset":910152
		},
		{
			"buffer":0,
			"byteLength":32,
			"byteOffset":910176
		},
		{
			"buffer":0,
			"byteLength":24,
			"byteOffset":910208
		},
		{
			"buffer":0,
			"byteLength":24,
			"byteOffset":910232
		},
		{
			"buffer":0,
			"byteLength":992,
			"byteOffset":910256
		},
		{
			"buffer":0,
			"byteLength":24,
			"byteOffset":911248
		},
		{
			"buffer":0,
			"byteLength":24,
			"byteOffset":911272
		},
		{
			"buffer":0,
			"byteLength":992,
			"byteOffset":911296
		},
		{
			"buffer":0,
			"byteLength":24,
			"byteOffset":912288
		},
		{
			"buffer":0,
			"byteLength":24,
			"byteOffset":912312
		},
		{
			"buffer":0,
			"byteLength":992,
			"byteOffset":912336
		},
		{
			"buffer":0,
			"byteLength":24,
			"byteOffset":913328
		},
		{
			"buffer":0,
			"byteLength":24,
			"byteOffset":913352
		},
		{
			"buffer":0,
			"byteLength":992,
			"byteOffset":913376
		},
		{
			"buffer":0,
			"byteLength":24,
			"byteOffset":914368
		},
		{
			"buffer":0,
			"byteLength":24,
			"byteOffset":914392
		},
		{
			"buffer":0,
			"byteLength":32,
			"byteOffset":914416
		},
		{
			"buffer":0,
			"byteLength":24,
			"byteOffset":914448
		}
	],
	"samplers":[
		{
			"magFilter":9729,
			"minFilter":9987
		}
	],
	"buffers":[
		{
			"byteLength":914472,
			"uri":"walk.bin"
		}
	]
}
