{
	"asset":{
		"generator":"Khronos glTF Blender I/O v4.5.48",
		"version":"2.0"
	},
	"extensionsUsed":[
		"KHR_materials_specular"
	],
	"scene":0,
	"scenes":[
		{
			"name":"Scene",
			"nodes":[
				77
			]
		}
	],
	"nodes":[
		{
			"mesh":0,
			"name":"Belt_low_001_Chicken_0"
		},
		{
			"children":[
				0
			],
			"name":"Belt_low_001",
			"rotation":[
				-0.70710688829422,
				0,
				0,
				0.7071066498756409
			],
			"scale":[
				0.3937009871006012,
				0.39370107650756836,
				0.39370104670524597
			]
		},
		{
			"mesh":1,
			"name":"Body_low_001_Chicken_0"
		},
		{
			"children":[
				2
			],
			"name":"Body_low_001",
			"rotation":[
				-0.70710688829422,
				0,
				0,
				0.7071066498756409
			],
			"scale":[
				0.3937009871006012,
				0.39370107650756836,
				0.39370104670524597
			]
		},
		{
			"mesh":2,
			"name":"Bracelet_low001_Chicken_0"
		},
		{
			"children":[
				4
			],
			"name":"Bracelet_low001"
		},
		{
			"children":[
				5
			],
			"name":"Bracelet_low",
			"rotation":[
				-0.888758659362793,
				0,
				0,
				0.4583754539489746
			],
			"scale":[
				0.3937009871006012,
				0.3937009871006012,
				0.3937009871006012
			],
			"translation":[
				-0.12380610406398773,
				0.05737743154168129,
				0.632704496383667
			]
		},
		{
			"name":"ChinSack_low_001",
			"rotation":[
				-0.70710688829422,
				0,
				0,
				0.7071066498756409
			],
			"scale":[
				0.3937009871006012,
				0.39370107650756836,
				0.39370104670524597
			]
		},
		{
			"name":"Cloth_low_001",
			"rotation":[
				-0.70710688829422,
				0,
				0,
				0.7071066498756409
			],
			"scale":[
				0.3937009871006012,
				0.39370107650756836,
				0.39370104670524597
			]
		},
		{
			"mesh":3,
			"name":"EyeLids_low001_Frog_0"
		},
		{
			"children":[
				9
			],
			"name":"EyeLids_low001",
			"scale":[
				1.2709001302719116,
				1.270900011062622,
				1.270900011062622
			],
			"translation":[
				0.2576037049293518,
				-0.2083434909582138,
				-0.70328688621521
			]
		},
		{
			"children":[
				10
			],
			"name":"EyeLids_low",
			"scale":[
				0.3937009871006012,
				0.3937009871006012,
				0.3937009572982788
			],
			"translation":[
				0,
				0.41063499450683594,
				0.26959729194641113
			]
		},
		{
			"mesh":4,
			"name":"EyesChicken_low_001_Chicken_0"
		},
		{
			"children":[
				12
			],
			"name":"EyesChicken_low_001",
			"rotation":[
				-0.70710688829422,
				0,
				0,
				0.7071066498756409
			],
			"scale":[
				0.3937009871006012,
				0.39370107650756836,
				0.39370104670524597
			]
		},
		{
			"mesh":5,
			"name":"EyesFrog_low001_Frog_0"
		},
		{
			"children":[
				14
			],
			"name":"EyesFrog_low001",
			"scale":[
				1.2709001302719116,
				1.270900011062622,
				1.270900011062622
			],
			"translation":[
				0.2576037049293518,
				-0.2083434909582138,
				-0.70328688621521
			]
		},
		{
			"children":[
				15
			],
			"name":"EyesFrog_low",
			"scale":[
				0.3937009871006012,
				0.3937009871006012,
				0.3937009572982788
			],
			"translation":[
				0,
				0.41063499450683594,
				0.26959729194641113
			]
		},
		{
			"mesh":6,
			"name":"FeathersArms_low_001_Chicken_0"
		},
		{
			"children":[
				17
			],
			"name":"FeathersArms_low_001",
			"rotation":[
				-0.70710688829422,
				0,
				0,
				0.7071066498756409
			],
			"scale":[
				0.3937009871006012,
				0.39370107650756836,
				0.39370104670524597
			]
		},
		{
			"name":"FeathersAss_low_001",
			"rotation":[
				-0.70710688829422,
				0,
				0,
				0.7071066498756409
			],
			"scale":[
				0.3937009871006012,
				0.39370107650756836,
				0.39370104670524597
			]
		},
		{
			"mesh":7,
			"name":"FeathersBack_low_001_Chicken_0"
		},
		{
			"children":[
				20
			],
			"name":"FeathersBack_low_001",
			"rotation":[
				-0.70710688829422,
				0,
				0,
				0.7071066498756409
			],
			"scale":[
				0.3937009871006012,
				0.39370107650756836,
				0.39370104670524597
			]
		},
		{
			"name":"FeathersHead_low_001",
			"rotation":[
				-0.70710688829422,
				0,
				0,
				0.7071066498756409
			],
			"scale":[
				0.3937009871006012,
				0.39370107650756836,
				0.39370104670524597
			]
		},
		{
			"name":"Fireball_low001",
			"translation":[
				0,
				0.13220131397247314,
				0.3317625820636749
			]
		},
		{
			"children":[
				23
			],
			"name":"Fireball_low",
			"scale":[
				0.3937009871006012,
				0.3937009871006012,
				0.3937009572982788
			],
			"translation":[
				0,
				0.41063499450683594,
				0.26959726214408875
			]
		},
		{
			"name":"FireballOuter_low001",
			"translation":[
				0,
				0.13220131397247314,
				0.3317625820636749
			]
		},
		{
			"children":[
				25
			],
			"name":"FireballOuter_low",
			"scale":[
				0.3937009871006012,
				0.3937009871006012,
				0.3937009572982788
			],
			"translation":[
				0,
				0.41063499450683594,
				0.26959726214408875
			]
		},
		{
			"mesh":8,
			"name":"FrogArmour_low001_Frog_0"
		},
		{
			"children":[
				27
			],
			"name":"FrogArmour_low001",
			"scale":[
				1.2709001302719116,
				1.270900011062622,
				1.270900011062622
			],
			"translation":[
				0.2576037049293518,
				-0.2083434909582138,
				-0.70328688621521
			]
		},
		{
			"children":[
				28
			],
			"name":"FrogArmour_low",
			"scale":[
				0.3937009871006012,
				0.3937009871006012,
				0.3937009572982788
			],
			"translation":[
				0,
				0.41063499450683594,
				0.26959729194641113
			]
		},
		{
			"mesh":9,
			"name":"FrogBody_low001_Frog_0"
		},
		{
			"children":[
				30
			],
			"name":"FrogBody_low001",
			"scale":[
				1.2709001302719116,
				1.270900011062622,
				1.270900011062622
			],
			"translation":[
				0.2576037049293518,
				-0.2083434909582138,
				-0.70328688621521
			]
		},
		{
			"children":[
				31
			],
			"name":"FrogBody_low",
			"scale":[
				0.3937009871006012,
				0.3937009871006012,
				0.3937009572982788
			],
			"translation":[
				0,
				0.41063499450683594,
				0.26959729194641113
			]
		},
		{
			"name":"Grenade2ndBot_low_001",
			"rotation":[
				-0.70710688829422,
				0,
				0,
				0.7071066498756409
			],
			"scale":[
				0.3937009871006012,
				0.39370107650756836,
				0.39370104670524597
			]
		},
		{
			"name":"GrenadeBack_low_002",
			"rotation":[
				-0.70710688829422,
				0,
				0,
				0.7071066498756409
			],
			"scale":[
				0.3937009871006012,
				0.39370107650756836,
				0.39370104670524597
			]
		},
		{
			"name":"Object_74",
			"translation":[
				-0.498119056224823,
				-0.05100197717547417,
				-3.129641056060791
			]
		},
		{
			"children":[
				35
			],
			"name":"GrenadeBack_low_003",
			"rotation":[
				-0.6758317351341248,
				0.022151408717036247,
				0.20797018706798553,
				0.7067597508430481
			],
			"scale":[
				0.3937010169029236,
				0.39370104670524597,
				0.39370107650756836
			],
			"translation":[
				0.3018837869167328,
				1.2066903114318848,
				0.49853619933128357
			]
		},
		{
			"name":"GrenadeBot_low_002",
			"rotation":[
				-0.70710688829422,
				0,
				0,
				0.7071066498756409
			],
			"scale":[
				0.3937009871006012,
				0.39370107650756836,
				0.39370104670524597
			]
		},
		{
			"name":"Object_79",
			"translation":[
				0.8096529245376587,
				1.1081031560897827,
				-1.4308841228485107
			]
		},
		{
			"children":[
				38
			],
			"name":"GrenadeBot_low_003",
			"rotation":[
				0.24641115963459015,
				-0.6160115599632263,
				0.6890484094619751,
				0.2915881276130676
			],
			"scale":[
				0.3937009871006012,
				0.3937009871006012,
				0.3937009871006012
			],
			"translation":[
				0.09359252452850342,
				-0.1628560721874237,
				0.43534550070762634
			]
		},
		{
			"name":"GrenadeCenter_low_002",
			"rotation":[
				-0.70710688829422,
				0,
				0,
				0.7071066498756409
			],
			"scale":[
				0.3937009871006012,
				0.39370107650756836,
				0.39370104670524597
			]
		},
		{
			"name":"Object_84",
			"translation":[
				-0.05914768949151039,
				1.961042881011963,
				-2.0116822719573975
			]
		},
		{
			"children":[
				41
			],
			"name":"GrenadeCenter_low_003",
			"rotation":[
				-0.7018987536430359,
				-0.08566395193338394,
				0.08566394448280334,
				0.7018986344337463
			],
			"scale":[
				0.3937009871006012,
				0.39370107650756836,
				0.39370104670524597
			],
			"translation":[
				0.23684847354888916,
				-0.4089268743991852,
				-0.23043841123580933
			]
		},
		{
			"name":"GrenadeTop_low_001",
			"rotation":[
				-0.70710688829422,
				0,
				0,
				0.7071066498756409
			],
			"scale":[
				0.3937009871006012,
				0.39370107650756836,
				0.39370104670524597
			]
		},
		{
			"name":"GunOrb_low001",
			"scale":[
				1.2709001302719116,
				1.270900011062622,
				1.270900011062622
			],
			"translation":[
				0.2576037049293518,
				-0.2083434909582138,
				-0.70328688621521
			]
		},
		{
			"children":[
				44
			],
			"name":"GunOrb_low",
			"scale":[
				0.3937009871006012,
				0.3937009871006012,
				0.3937009572982788
			],
			"translation":[
				0,
				0.41063499450683594,
				0.26959729194641113
			]
		},
		{
			"mesh":10,
			"name":"GunRope_low001_Frog_0"
		},
		{
			"children":[
				46
			],
			"name":"GunRope_low001",
			"scale":[
				1.2709001302719116,
				1.270900011062622,
				1.270900011062622
			],
			"translation":[
				0.2576037049293518,
				-0.2083434909582138,
				-0.70328688621521
			]
		},
		{
			"children":[
				47
			],
			"name":"GunRope_low",
			"scale":[
				0.3937009871006012,
				0.3937009871006012,
				0.3937009572982788
			],
			"translation":[
				0,
				0.41063499450683594,
				0.26959729194641113
			]
		},
		{
			"name":"Kneepad_low_001",
			"rotation":[
				-0.70710688829422,
				0,
				0,
				0.7071066498756409
			],
			"scale":[
				0.3937009871006012,
				0.39370107650756836,
				0.39370104670524597
			]
		},
		{
			"mesh":11,
			"name":"LegArmourFrog_low001_Frog_0"
		},
		{
			"children":[
				50
			],
			"name":"LegArmourFrog_low001",
			"scale":[
				1.2709001302719116,
				1.270900011062622,
				1.270900011062622
			],
			"translation":[
				0.2576037049293518,
				-0.2083434909582138,
				-0.70328688621521
			]
		},
		{
			"children":[
				51
			],
			"name":"LegArmourFrog_low",
			"scale":[
				0.3937009871006012,
				0.3937009871006012,
				0.3937009572982788
			],
			"translation":[
				0,
				0.41063499450683594,
				0.26959729194641113
			]
		},
		{
			"mesh":12,
			"name":"LegArmourRope_low001_Frog_0"
		},
		{
			"children":[
				53
			],
			"name":"LegArmourRope_low001",
			"scale":[
				1.2709001302719116,
				1.270900011062622,
				1.270900011062622
			],
			"translation":[
				0.2576037049293518,
				-0.2083434909582138,
				-0.70328688621521
			]
		},
		{
			"children":[
				54
			],
			"name":"LegArmourRope_low",
			"scale":[
				0.3937009871006012,
				0.3937009871006012,
				0.3937009572982788
			],
			"translation":[
				0,
				0.41063499450683594,
				0.26959729194641113
			]
		},
		{
			"mesh":13,
			"name":"OrbMetal_low001_Frog_0"
		},
		{
			"children":[
				56
			],
			"name":"OrbMetal_low001",
			"scale":[
				1.2709001302719116,
				1.270900011062622,
				1.270900011062622
			],
			"translation":[
				0.2576037049293518,
				-0.2083434909582138,
				-0.70328688621521
			]
		},
		{
			"children":[
				57
			],
			"name":"OrbMetal_low",
			"scale":[
				0.3937009871006012,
				0.3937009871006012,
				0.3937009572982788
			],
			"translation":[
				0,
				0.41063499450683594,
				0.26959729194641113
			]
		},
		{
			"name":"Pedestal_low001"
		},
		{
			"children":[
				59
			],
			"name":"Pedestal_low",
			"scale":[
				0.3937009871006012,
				0.3937009871006012,
				0.3937009572982788
			]
		},
		{
			"mesh":14,
			"name":"Platebody_low_001_Chicken_0"
		},
		{
			"children":[
				61
			],
			"name":"Platebody_low_001",
			"rotation":[
				-0.70710688829422,
				0,
				0,
				0.7071066498756409
			],
			"scale":[
				0.3937009871006012,
				0.39370107650756836,
				0.39370104670524597
			]
		},
		{
			"mesh":15,
			"name":"Plateskirt_low_001_Chicken_0"
		},
		{
			"children":[
				63
			],
			"name":"Plateskirt_low_001",
			"rotation":[
				-0.70710688829422,
				0,
				0,
				0.7071066498756409
			],
			"scale":[
				0.3937009871006012,
				0.39370107650756836,
				0.39370104670524597
			]
		},
		{
			"name":"Rope_low_001",
			"rotation":[
				-0.70710688829422,
				0,
				0,
				0.7071066498756409
			],
			"scale":[
				0.3937009871006012,
				0.39370107650756836,
				0.39370104670524597
			]
		},
		{
			"name":"ShoulderPieces_low001"
		},
		{
			"children":[
				66
			],
			"name":"ShoulderPieces_low",
			"rotation":[
				-0.70710688829422,
				0,
				0,
				0.7071066498756409
			],
			"scale":[
				0.3937009871006012,
				0.39370107650756836,
				0.39370104670524597
			],
			"translation":[
				0.00048052475904114544,
				-0.10121878981590271,
				0.1483212262392044
			]
		},
		{
			"name":"Smoke_low001",
			"translation":[
				0,
				0.13220131397247314,
				0.3317625820636749
			]
		},
		{
			"children":[
				68
			],
			"name":"Smoke_low",
			"scale":[
				0.3937009871006012,
				0.3937009871006012,
				0.3937009572982788
			],
			"translation":[
				0,
				0.41063499450683594,
				0.26959726214408875
			]
		},
		{
			"mesh":16,
			"name":"TongueChicken_low_001_Chicken_0"
		},
		{
			"children":[
				70
			],
			"name":"TongueChicken_low_001",
			"rotation":[
				-0.70710688829422,
				0,
				0,
				0.7071066498756409
			],
			"scale":[
				0.3937009871006012,
				0.39370107650756836,
				0.39370104670524597
			]
		},
		{
			"mesh":17,
			"name":"TongueFrog_low001_Frog_0"
		},
		{
			"children":[
				72
			],
			"name":"TongueFrog_low001",
			"scale":[
				1.2709001302719116,
				1.270900011062622,
				1.270900011062622
			],
			"translation":[
				0.2576037049293518,
				-0.2083434909582138,
				-0.70328688621521
			]
		},
		{
			"children":[
				73
			],
			"name":"TongueFrog_low",
			"scale":[
				0.3937009871006012,
				0.3937009871006012,
				0.3937009572982788
			],
			"translation":[
				0,
				0.41063499450683594,
				0.26959729194641113
			]
		},
		{
			"children":[
				1,
				3,
				6,
				7,
				8,
				11,
				13,
				16,
				18,
				19,
				21,
				22,
				24,
				26,
				29,
				32,
				33,
				34,
				36,
				37,
				39,
				40,
				42,
				43,
				45,
				48,
				49,
				52,
				55,
				58,
				60,
				62,
				64,
				65,
				67,
				69,
				71,
				74
			],
			"name":"RootNode"
		},
		{
			"children":[
				75
			],
			"name":"aa94bc76487c4181859e912ada38c8bd.fbx",
			"scale":[
				1.2699999809265137,
				1.0160002708435059,
				1.2700003385543823
			]
		},
		{
			"children":[
				76
			],
			"name":"Sketchfab_model",
			"translation":[
				0,
				-0.4999999701976776,
				-0.23999999463558197
			]
		}
	],
	"materials":[
		{
			"doubleSided":true,
			"extensions":{
				"KHR_materials_specular":{
					"specularFactor":0.1243569627404213
				}
			},
			"name":"Chicken",
			"normalTexture":{
				"index":0
			},
			"occlusionTexture":{
				"index":1
			},
			"pbrMetallicRoughness":{
				"baseColorTexture":{
					"index":2
				},
				"metallicRoughnessTexture":{
					"index":1
				}
			}
		},
		{
			"doubleSided":true,
			"emissiveFactor":[
				0.1731552630662918,
				0.1731552630662918,
				0.1731552630662918
			],
			"emissiveTexture":{
				"index":3
			},
			"extensions":{
				"KHR_materials_specular":{
					"specularFactor":0.26288118958473206
				}
			},
			"name":"Frog",
			"normalTexture":{
				"index":4
			},
			"occlusionTexture":{
				"index":5
			},
			"pbrMetallicRoughness":{
				"baseColorTexture":{
					"index":6
				},
				"metallicRoughnessTexture":{
					"index":5
				}
			}
		}
	],
	"meshes":[
		{
			"name":"Belt_low_001_Chicken_0",
			"primitives":[
				{
					"attributes":{
						"POSITION":0,
						"NORMAL":1,
						"TEXCOORD_0":2
					},
					"indices":3,
					"material":0
				}
			]
		},
		{
			"name":"Body_low_001_Chicken_0",
			"primitives":[
				{
					"attributes":{
						"POSITION":4,
						"NORMAL":5,
						"TEXCOORD_0":6
					},
					"indices":7,
					"material":0
				}
			]
		},
		{
			"name":"Bracelet_low001_Chicken_0",
			"primitives":[
				{
					"attributes":{
						"POSITION":8,
						"NORMAL":9,
						"TEXCOORD_0":10
					},
					"indices":11,
					"material":0
				}
			]
		},
		{
			"name":"EyeLids_low001_Frog_0",
			"primitives":[
				{
					"attributes":{
						"POSITION":12,
						"NORMAL":13,
						"TEXCOORD_0":14
					},
					"indices":15,
					"material":1
				}
			]
		},
		{
			"name":"EyesChicken_low_001_Chicken_0",
			"primitives":[
				{
					"attributes":{
						"POSITION":16,
						"NORMAL":17,
						"TEXCOORD_0":18
					},
					"indices":19,
					"material":0
				}
			]
		},
		{
			"name":"EyesFrog_low001_Frog_0",
			"primitives":[
				{
					"attributes":{
						"POSITION":20,
						"NORMAL":21,
						"TEXCOORD_0":22
					},
					"indices":23,
					"material":1
				}
			]
		},
		{
			"name":"FeathersArms_low_001_Chicken_0",
			"primitives":[
				{
					"attributes":{
						"POSITION":24,
						"NORMAL":25,
						"TEXCOORD_0":26
					},
					"indices":27,
					"material":0
				}
			]
		},
		{
			"name":"FeathersBack_low_001_Chicken_0",
			"primitives":[
				{
					"attributes":{
						"POSITION":28,
						"NORMAL":29,
						"TEXCOORD_0":30
					},
					"indices":31,
					"material":0
				}
			]
		},
		{
			"name":"FrogArmour_low001_Frog_0",
			"primitives":[
				{
					"attributes":{
						"POSITION":32,
						"NORMAL":33,
						"TEXCOORD_0":34
					},
					"indices":35,
					"material":1
				}
			]
		},
		{
			"name":"FrogBody_low001_Frog_0",
			"primitives":[
				{
					"attributes":{
						"POSITION":36,
						"NORMAL":37,
						"TEXCOORD_0":38
					},
					"indices":39,
					"material":1
				}
			]
		},
		{
			"name":"GunRope_low001_Frog_0",
			"primitives":[
				{
					"attributes":{
						"POSITION":40,
						"NORMAL":41,
						"TEXCOORD_0":42
					},
					"indices":43,
					"material":1
				}
			]
		},
		{
			"name":"LegArmourFrog_low001_Frog_0",
			"primitives":[
				{
					"attributes":{
						"POSITION":44,
						"NORMAL":45,
						"TEXCOORD_0":46
					},
					"indices":47,
					"material":1
				}
			]
		},
		{
			"name":"LegArmourRope_low001_Frog_0",
			"primitives":[
				{
					"attributes":{
						"POSITION":48,
						"NORMAL":49,
						"TEXCOORD_0":50
					},
					"indices":51,
					"material":1
				}
			]
		},
		{
			"name":"OrbMetal_low001_Frog_0",
			"primitives":[
				{
					"attributes":{
						"POSITION":52,
						"NORMAL":53,
						"TEXCOORD_0":54
					},
					"indices":55,
					"material":1
				}
			]
		},
		{
			"name":"Platebody_low_001_Chicken_0",
			"primitives":[
				{
					"attributes":{
						"POSITION":56,
						"NORMAL":57,
						"TEXCOORD_0":58
					},
					"indices":59,
					"material":0
				}
			]
		},
		{
			"name":"Plateskirt_low_001_Chicken_0",
			"primitives":[
				{
					"attributes":{
						"POSITION":60,
						"NORMAL":61,
						"TEXCOORD_0":62
					},
					"indices":63,
					"material":0
				}
			]
		},
		{
			"name":"TongueChicken_low_001_Chicken_0",
			"primitives":[
				{
					"attributes":{
						"POSITION":64,
						"NORMAL":65,
						"TEXCOORD_0":66
					},
					"indices":67,
					"material":0
				}
			]
		},
		{
			"name":"TongueFrog_low001_Frog_0",
			"primitives":[
				{
					"attributes":{
						"POSITION":68,
						"NORMAL":69,
						"TEXCOORD_0":70
					},
					"indices":71,
					"material":1
				}
			]
		}
	],
	"textures":[
		{
			"sampler":0,
			"source":0
		},
		{
			"sampler":0,
			"source":1
		},
		{
			"sampler":0,
			"source":2
		},
		{
			"sampler":0,
			"source":3
		},
		{
			"sampler":0,
			"source":4
		},
		{
			"sampler":0,
			"source":5
		},
		{
			"sampler":0,
			"source":6
		}
	],
	"images":[
		{
			"mimeType":"image/png",
			"name":"Chicken_normal",
			"uri":"Chicken_normal.png"
		},
		{
			"mimeType":"image/png",
			"name":"Chicken_metallicRoughness",
			"uri":"Chicken_metallicRoughness.png"
		},
		{
			"mimeType":"image/jpeg",
			"name":"Chicken_baseColor",
			"uri":"Chicken_baseColor.jpg"
		},
		{
			"mimeType":"image/jpeg",
			"name":"Frog_emissive",
			"uri":"Frog_emissive.jpg"
		},
		{
			"mimeType":"image/png",
			"name":"Frog_normal",
			"uri":"Frog_normal.png"
		},
		{
			"mimeType":"image/png",
			"name":"Frog_metallicRoughness",
			"uri":"Frog_metallicRoughness.png"
		},
		{
			"mimeType":"image/jpeg",
			"name":"Frog_baseColor",
			"uri":"Frog_baseColor.jpg"
		}
	],
	"accessors":[
		{
			"bufferView":0,
			"componentType":5126,
			"count":480,
			"max":[
				0.7933608293533325,
				0.1328314244747162,
				3.1487274169921875
			],
			"min":[
				-0.8473284244537354,
				-1.8017059564590454,
				1.4399012327194214
			],
			"type":"VEC3"
		},
		{
			"bufferView":1,
			"componentType":5126,
			"count":480,
			"type":"VEC3"
		},
		{
			"bufferView":2,
			"componentType":5126,
			"count":480,
			"type":"VEC2"
		},
		{
			"bufferView":3,
			"componentType":5123,
			"count":2574,
			"type":"SCALAR"
		},
		{
			"bufferView":4,
			"componentType":5126,
			"count":6060,
			"max":[
				1.55600905418396,
				2.034339666366577,
				5.138744354248047
			],
			"min":[
				-1.4878456592559814,
				-3.7113759517669678,
				-1.242788553237915
			],
			"type":"VEC3"
		},
		{
			"bufferView":5,
			"componentType":5126,
			"count":6060,
			"type":"VEC3"
		},
		{
			"bufferView":6,
			"componentType":5126,
			"count":6060,
			"type":"VEC2"
		},
		{
			"bufferView":7,
			"componentType":5123,
			"count":30984,
			"type":"SCALAR"
		},
		{
			"bufferView":8,
			"componentType":5126,
			"count":2632,
			"max":[
				1.7351289987564087,
				0.05505114793777466,
				1.0397709608078003
			],
			"min":[
				-0.7701886296272278,
				-1.6998062133789062,
				-0.06024962663650513
			],
			"type":"VEC3"
		},
		{
			"bufferView":9,
			"componentType":5126,
			"count":2632,
			"type":"VEC3"
		},
		{
			"bufferView":10,
			"componentType":5126,
			"count":2632,
			"type":"VEC2"
		},
		{
			"bufferView":11,
			"componentType":5123,
			"count":14400,
			"type":"SCALAR"
		},
		{
			"bufferView":12,
			"componentType":5126,
			"count":1236,
			"max":[
				0.33350133895874023,
				1.0078386068344116,
				3.432422399520874
			],
			"min":[
				-0.33350127935409546,
				0.8637905120849609,
				3.1923651695251465
			],
			"type":"VEC3"
		},
		{
			"bufferView":13,
			"componentType":5126,
			"count":1236,
			"type":"VEC3"
		},
		{
			"bufferView":14,
			"componentType":5126,
			"count":1236,
			"type":"VEC2"
		},
		{
			"bufferView":15,
			"componentType":5123,
			"count":6816,
			"type":"SCALAR"
		},
		{
			"bufferView":16,
			"componentType":5126,
			"count":228,
			"max":[
				0.5220266580581665,
				-0.2748604118824005,
				4.590941429138184
			],
			"min":[
				-0.4751761853694916,
				-0.8002805709838867,
				4.05481481552124
			],
			"type":"VEC3"
		},
		{
			"bufferView":17,
			"componentType":5126,
			"count":228,
			"type":"VEC3"
		},
		{
			"bufferView":18,
			"componentType":5126,
			"count":228,
			"type":"VEC2"
		},
		{
			"bufferView":19,
			"componentType":5123,
			"count":1152,
			"type":"SCALAR"
		},
		{
			"bufferView":20,
			"componentType":5126,
			"count":852,
			"max":[
				0.3300216495990753,
				1.1537904739379883,
				3.4294233322143555
			],
			"min":[
				-0.3300216495990753,
				0.9176892638206482,
				3.1790771484375
			],
			"type":"VEC3"
		},
		{
			"bufferView":21,
			"componentType":5126,
			"count":852,
			"type":"VEC3"
		},
		{
			"bufferView":22,
			"componentType":5126,
			"count":852,
			"type":"VEC2"
		},
		{
			"bufferView":23,
			"componentType":5123,
			"count":4704,
			"type":"SCALAR"
		},
		{
			"bufferView":24,
			"componentType":5126,
			"count":1368,
			"max":[
				1.4905881881713867,
				-0.5622739791870117,
				1.2484301328659058
			],
			"min":[
				-1.3826316595077515,
				-2.282015562057495,
				0.653146505355835
			],
			"type":"VEC3"
		},
		{
			"bufferView":25,
			"componentType":5126,
			"count":1368,
			"type":"VEC3"
		},
		{
			"bufferView":26,
			"componentType":5126,
			"count":1368,
			"type":"VEC2"
		},
		{
			"bufferView":27,
			"componentType":5123,
			"count":6912,
			"type":"SCALAR"
		},
		{
			"bufferView":28,
			"componentType":5126,
			"count":5928,
			"max":[
				0.7499480843544006,
				2.0364322662353516,
				2.3311634063720703
			],
			"min":[
				-0.8044533729553223,
				0.11480238288640976,
				0.568378210067749
			],
			"type":"VEC3"
		},
		{
			"bufferView":29,
			"componentType":5126,
			"count":5928,
			"type":"VEC3"
		},
		{
			"bufferView":30,
			"componentType":5126,
			"count":5928,
			"type":"VEC2"
		},
		{
			"bufferView":31,
			"componentType":5123,
			"count":29952,
			"type":"SCALAR"
		},
		{
			"bufferView":32,
			"componentType":5126,
			"count":8150,
			"max":[
				0.56966233253479,
				1.04227876663208,
				2.5507822036743164
			],
			"min":[
				-0.56966233253479,
				0.5147297382354736,
				1.847975254058838
			],
			"type":"VEC3"
		},
		{
			"bufferView":33,
			"componentType":5126,
			"count":8150,
			"type":"VEC3"
		},
		{
			"bufferView":34,
			"componentType":5126,
			"count":8150,
			"type":"VEC2"
		},
		{
			"bufferView":35,
			"componentType":5123,
			"count":46260,
			"type":"SCALAR"
		},
		{
			"bufferView":36,
			"componentType":5126,
			"count":3764,
			"max":[
				0.6809430718421936,
				1.0408309698104858,
				3.7844817638397217
			],
			"min":[
				-0.6809430718421936,
				-0.4890837073326111,
				1.475021243095398
			],
			"type":"VEC3"
		},
		{
			"bufferView":37,
			"componentType":5126,
			"count":3764,
			"type":"VEC3"
		},
		{
			"bufferView":38,
			"componentType":5126,
			"count":3764,
			"type":"VEC2"
		},
		{
			"bufferView":39,
			"componentType":5123,
			"count":19740,
			"type":"SCALAR"
		},
		{
			"bufferView":40,
			"componentType":5126,
			"count":1145,
			"max":[
				0.4043732285499573,
				0.6914904713630676,
				2.1552865505218506
			],
			"min":[
				-0.41183847188949585,
				0.23436084389686584,
				2.0235180854797363
			],
			"type":"VEC3"
		},
		{
			"bufferView":41,
			"componentType":5126,
			"count":1145,
			"type":"VEC3"
		},
		{
			"bufferView":42,
			"componentType":5126,
			"count":1145,
			"type":"VEC2"
		},
		{
			"bufferView":43,
			"componentType":5123,
			"count":6192,
			"type":"SCALAR"
		},
		{
			"bufferView":44,
			"componentType":5126,
			"count":232,
			"max":[
				0.22771236300468445,
				0.11075995117425919,
				2.0339579582214355
			],
			"min":[
				-0.4795915484428406,
				-0.2511850595474243,
				1.6956137418746948
			],
			"type":"VEC3"
		},
		{
			"bufferView":45,
			"componentType":5126,
			"count":232,
			"type":"VEC3"
		},
		{
			"bufferView":46,
			"componentType":5126,
			"count":232,
			"type":"VEC2"
		},
		{
			"bufferView":47,
			"componentType":5123,
			"count":1104,
			"type":"SCALAR"
		},
		{
			"bufferView":48,
			"componentType":5126,
			"count":684,
			"max":[
				0.1556776911020279,
				0.03250601515173912,
				2.0207674503326416
			],
			"min":[
				-0.4331003427505493,
				-0.20791247487068176,
				1.7262232303619385
			],
			"type":"VEC3"
		},
		{
			"bufferView":49,
			"componentType":5126,
			"count":684,
			"type":"VEC3"
		},
		{
			"bufferView":50,
			"componentType":5126,
			"count":684,
			"type":"VEC2"
		},
		{
			"bufferView":51,
			"componentType":5123,
			"count":3468,
			"type":"SCALAR"
		},
		{
			"bufferView":52,
			"componentType":5126,
			"count":192,
			"max":[
				0.21843458712100983,
				1.0152897834777832,
				2.4095067977905273
			],
			"min":[
				-0.18589603900909424,
				0.8041030168533325,
				2.007889986038208
			],
			"type":"VEC3"
		},
		{
			"bufferView":53,
			"componentType":5126,
			"count":192,
			"type":"VEC3"
		},
		{
			"bufferView":54,
			"componentType":5126,
			"count":192,
			"type":"VEC2"
		},
		{
			"bufferView":55,
			"componentType":5123,
			"count":960,
			"type":"SCALAR"
		},
		{
			"bufferView":56,
			"componentType":5126,
			"count":854,
			"max":[
				1.018254280090332,
				0.06932616978883743,
				3.121835470199585
			],
			"min":[
				-0.9164258241653442,
				-1.7043625116348267,
				1.08802330493927
			],
			"type":"VEC3"
		},
		{
			"bufferView":57,
			"componentType":5126,
			"count":854,
			"type":"VEC3"
		},
		{
			"bufferView":58,
			"componentType":5126,
			"count":854,
			"type":"VEC2"
		},
		{
			"bufferView":59,
			"componentType":5123,
			"count":4320,
			"type":"SCALAR"
		},
		{
			"bufferView":60,
			"componentType":5126,
			"count":324,
			"max":[
				1.1086328029632568,
				0.9042505025863647,
				2.3375537395477295
			],
			"min":[
				-1.127148985862732,
				-1.205283284187317,
				0.24980024993419647
			],
			"type":"VEC3"
		},
		{
			"bufferView":61,
			"componentType":5126,
			"count":324,
			"type":"VEC3"
		},
		{
			"bufferView":62,
			"componentType":5126,
			"count":324,
			"type":"VEC2"
		},
		{
			"bufferView":63,
			"componentType":5123,
			"count":1620,
			"type":"SCALAR"
		},
		{
			"bufferView":64,
			"componentType":5126,
			"count":102,
			"max":[
				0.11759517341852188,
				-0.7998827695846558,
				3.7776107788085938
			],
			"min":[
				0.018447715789079666,
				-0.9546878933906555,
				3.5286271572113037
			],
			"type":"VEC3"
		},
		{
			"bufferView":65,
			"componentType":5126,
			"count":102,
			"type":"VEC3"
		},
		{
			"bufferView":66,
			"componentType":5126,
			"count":102,
			"type":"VEC2"
		},
		{
			"bufferView":67,
			"componentType":5123,
			"count":468,
			"type":"SCALAR"
		},
		{
			"bufferView":68,
			"componentType":5126,
			"count":458,
			"max":[
				0.23667530715465546,
				0.29788583517074585,
				3.651663303375244
			],
			"min":[
				-0.23667530715465546,
				0.13558973371982574,
				3.131152629852295
			],
			"type":"VEC3"
		},
		{
			"bufferView":69,
			"componentType":5126,
			"count":458,
			"type":"VEC3"
		},
		{
			"bufferView":70,
			"componentType":5126,
			"count":458,
			"type":"VEC2"
		},
		{
			"bufferView":71,
			"componentType":5123,
			"count":2352,
			"type":"SCALAR"
		}
	],
	"bufferViews":[
		{
			"buffer":0,
			"byteLength":5760,
			"byteOffset":0,
			"target":34962
		},
		{
			"buffer":0,
			"byteLength":5760,
			"byteOffset":5760,
			"target":34962
		},
		{
			"buffer":0,
			"byteLength":3840,
			"byteOffset":11520,
			"target":34962
		},
		{
			"buffer":0,
			"byteLength":5148,
			"byteOffset":15360,
			"target":34963
		},
		{
			"buffer":0,
			"byteLength":72720,
			"byteOffset":20508,
			"target":34962
		},
		{
			"buffer":0,
			"byteLength":72720,
			"byteOffset":93228,
			"target":34962
		},
		{
			"buffer":0,
			"byteLength":48480,
			"byteOffset":165948,
			"target":34962
		},
		{
			"buffer":0,
			"byteLength":61968,
			"byteOffset":214428,
			"target":34963
		},
		{
			"buffer":0,
			"byteLength":31584,
			"byteOffset":276396,
			"target":34962
		},
		{
			"buffer":0,
			"byteLength":31584,
			"byteOffset":307980,
			"target":34962
		},
		{
			"buffer":0,
			"byteLength":21056,
			"byteOffset":339564,
			"target":34962
		},
		{
			"buffer":0,
			"byteLength":28800,
			"byteOffset":360620,
			"target":34963
		},
		{
			"buffer":0,
			"byteLength":14832,
			"byteOffset":389420,
			"target":34962
		},
		{
			"buffer":0,
			"byteLength":14832,
			"byteOffset":404252,
			"target":34962
		},
		{
			"buffer":0,
			"byteLength":9888,
			"byteOffset":419084,
			"target":34962
		},
		{
			"buffer":0,
			"byteLength":13632,
			"byteOffset":428972,
			"target":34963
		},
		{
			"buffer":0,
			"byteLength":2736,
			"byteOffset":442604,
			"target":34962
		},
		{
			"buffer":0,
			"byteLength":2736,
			"byteOffset":445340,
			"target":34962
		},
		{
			"buffer":0,
			"byteLength":1824,
			"byteOffset":448076,
			"target":34962
		},
		{
			"buffer":0,
			"byteLength":2304,
			"byteOffset":449900,
			"target":34963
		},
		{
			"buffer":0,
			"byteLength":10224,
			"byteOffset":452204,
			"target":34962
		},
		{
			"buffer":0,
			"byteLength":10224,
			"byteOffset":462428,
			"target":34962
		},
		{
			"buffer":0,
			"byteLength":6816,
			"byteOffset":472652,
			"target":34962
		},
		{
			"buffer":0,
			"byteLength":9408,
			"byteOffset":479468,
			"target":34963
		},
		{
			"buffer":0,
			"byteLength":16416,
			"byteOffset":488876,
			"target":34962
		},
		{
			"buffer":0,
			"byteLength":16416,
			"byteOffset":505292,
			"target":34962
		},
		{
			"buffer":0,
			"byteLength":10944,
			"byteOffset":521708,
			"target":34962
		},
		{
			"buffer":0,
			"byteLength":13824,
			"byteOffset":532652,
			"target":34963
		},
		{
			"buffer":0,
			"byteLength":71136,
			"byteOffset":546476,
			"target":34962
		},
		{
			"buffer":0,
			"byteLength":71136,
			"byteOffset":617612,
			"target":34962
		},
		{
			"buffer":0,
			"byteLength":47424,
			"byteOffset":688748,
			"target":34962
		},
		{
			"buffer":0,
			"byteLength":59904,
			"byteOffset":736172,
			"target":34963
		},
		{
			"buffer":0,
			"byteLength":97800,
			"byteOffset":796076,
			"target":34962
		},
		{
			"buffer":0,
			"byteLength":97800,
			"byteOffset":893876,
			"target":34962
		},
		{
			"buffer":0,
			"byteLength":65200,
			"byteOffset":991676,
			"target":34962
		},
		{
			"buffer":0,
			"byteLength":92520,
			"byteOffset":1056876,
			"target":34963
		},
		{
			"buffer":0,
			"byteLength":45168,
			"byteOffset":1149396,
			"target":34962
		},
		{
			"buffer":0,
			"byteLength":45168,
			"byteOffset":1194564,
			"target":34962
		},
		{
			"buffer":0,
			"byteLength":30112,
			"byteOffset":1239732,
			"target":34962
		},
		{
			"buffer":0,
			"byteLength":39480,
			"byteOffset":1269844,
			"target":34963
		},
		{
			"buffer":0,
			"byteLength":13740,
			"byteOffset":1309324,
			"target":34962
		},
		{
			"buffer":0,
			"byteLength":13740,
			"byteOffset":1323064,
			"target":34962
		},
		{
			"buffer":0,
			"byteLength":9160,
			"byteOffset":1336804,
			"target":34962
		},
		{
			"buffer":0,
			"byteLength":12384,
			"byteOffset":1345964,
			"target":34963
		},
		{
			"buffer":0,
			"byteLength":2784,
			"byteOffset":1358348,
			"target":34962
		},
		{
			"buffer":0,
			"byteLength":2784,
			"byteOffset":1361132,
			"target":34962
		},
		{
			"buffer":0,
			"byteLength":1856,
			"byteOffset":1363916,
			"target":34962
		},
		{
			"buffer":0,
			"byteLength":2208,
			"byteOffset":1365772,
			"target":34963
		},
		{
			"buffer":0,
			"byteLength":8208,
			"byteOffset":1367980,
			"target":34962
		},
		{
			"buffer":0,
			"byteLength":8208,
			"byteOffset":1376188,
			"target":34962
		},
		{
			"buffer":0,
			"byteLength":5472,
			"byteOffset":1384396,
			"target":34962
		},
		{
			"buffer":0,
			"byteLength":6936,
			"byteOffset":1389868,
			"target":34963
		},
		{
			"buffer":0,
			"byteLength":2304,
			"byteOffset":1396804,
			"target":34962
		},
		{
			"buffer":0,
			"byteLength":2304,
			"byteOffset":1399108,
			"target":34962
		},
		{
			"buffer":0,
			"byteLength":1536,
			"byteOffset":1401412,
			"target":34962
		},
		{
			"buffer":0,
			"byteLength":1920,
			"byteOffset":1402948,
			"target":34963
		},
		{
			"buffer":0,
			"byteLength":10248,
			"byteOffset":1404868,
			"target":34962
		},
		{
			"buffer":0,
			"byteLength":10248,
			"byteOffset":1415116,
			"target":34962
		},
		{
			"buffer":0,
			"byteLength":6832,
			"byteOffset":1425364,
			"target":34962
		},
		{
			"buffer":0,
			"byteLength":8640,
			"byteOffset":1432196,
			"target":34963
		},
		{
			"buffer":0,
			"byteLength":3888,
			"byteOffset":1440836,
			"target":34962
		},
		{
			"buffer":0,
			"byteLength":3888,
			"byteOffset":1444724,
			"target":34962
		},
		{
			"buffer":0,
			"byteLength":2592,
			"byteOffset":1448612,
			"target":34962
		},
		{
			"buffer":0,
			"byteLength":3240,
			"byteOffset":1451204,
			"target":34963
		},
		{
			"buffer":0,
			"byteLength":1224,
			"byteOffset":1454444,
			"target":34962
		},
		{
			"buffer":0,
			"byteLength":1224,
			"byteOffset":1455668,
			"target":34962
		},
		{
			"buffer":0,
			"byteLength":816,
			"byteOffset":1456892,
			"target":34962
		},
		{
			"buffer":0,
			"byteLength":936,
			"byteOffset":1457708,
			"target":34963
		},
		{
			"buffer":0,
			"byteLength":5496,
			"byteOffset":1458644,
			"target":34962
		},
		{
			"buffer":0,
			"byteLength":5496,
			"byteOffset":1464140,
			"target":34962
		},
		{
			"buffer":0,
			"byteLength":3664,
			"byteOffset":1469636,
			"target":34962
		},
		{
			"buffer":0,
			"byteLength":4704,
			"byteOffset":1473300,
			"target":34963
		}
	],
	"samplers":[
		{
			"magFilter":9729,
			"minFilter":9987
		}
	],
	"buffers":[
		{
			"byteLength":1478004,
			"uri":"chiken.bin"
		}
	]
}
