{
	"asset":{
		"generator":"Khronos glTF Blender I/O v4.5.48",
		"version":"2.0"
	},
	"scene":0,
	"scenes":[
		{
			"name":"Scene",
			"nodes":[
				66
			]
		}
	],
	"nodes":[
		{
			"name":"mixamorig:HeadTop_End",
			"rotation":[
				8.881784197001252e-16,
				0,
				0,
				1
			],
			"scale":[
				1,
				1.0000001192092896,
				1
			],
			"translation":[
				0,
				34.499671936035156,
				5.643826961517334
			]
		},
		{
			"children":[
				0
			],
			"name":"mixamorig:Head",
			"rotation":[
				8.881784197001252e-16,
				0,
				0,
				1
			],
			"scale":[
				1,
				1.0000001192092896,
				1
			],
			"translation":[
				0,
				17.73291778564453,
				2.9009387493133545
			]
		},
		{
			"children":[
				1
			],
			"name":"mixamorig:Neck",
			"rotation":[
				0.015256263315677643,
				0,
				0,
				0.9998836517333984
			],
			"scale":[
				1,
				1,
				0.9999999403953552
			],
			"translation":[
				0,
				25.752012252807617,
				-5.960464477539063e-08
			]
		},
		{
			"name":"mixamorig:LeftHandThumb4",
			"rotation":[
				-1.862644971595273e-08,
				2.5890767574310303e-07,
				5.3085386753082275e-08,
				1
			],
			"scale":[
				1,
				1,
				1.0000001192092896
			],
			"translation":[
				0.8007354736328125,
				7.356591701507568,
				1.2993812561035156e-05
			]
		},
		{
			"children":[
				3
			],
			"name":"mixamorig:LeftHandThumb3",
			"rotation":[
				-0.0004893104778602719,
				-5.438924972622772e-07,
				-3.166497464235363e-08,
				0.9999998807907104
			],
			"scale":[
				0.9999999403953552,
				0.9999998807907104,
				0.9999999403953552
			],
			"translation":[
				-0.20232868194580078,
				7.7441325187683105,
				1.1920928955078125e-06
			]
		},
		{
			"children":[
				4
			],
			"name":"mixamorig:LeftHandThumb2",
			"rotation":[
				0.005454552825540304,
				-5.588018936464323e-09,
				-7.63695808814191e-08,
				0.9999851584434509
			],
			"scale":[
				1.0000001192092896,
				1.0000001192092896,
				1
			],
			"translation":[
				-0.5984106063842773,
				6.640410900115967,
				-3.039836883544922e-05
			]
		},
		{
			"children":[
				5
			],
			"name":"mixamorig:LeftHandThumb1",
			"rotation":[
				0.18526123464107513,
				0.049027543514966965,
				0.25109076499938965,
				0.9488034844398499
			],
			"scale":[
				1,
				0.9999999403953552,
				0.9999998211860657
			],
			"translation":[
				-4.454272270202637,
				6.314088821411133,
				3.1224563121795654
			]
		},
		{
			"name":"mixamorig:LeftHandIndex4",
			"rotation":[
				-1.1338853767028922e-07,
				1.4901162970204496e-08,
				1.4319086361069822e-08,
				1
			],
			"scale":[
				0.9999999403953552,
				0.9999999403953552,
				0.9999999403953552
			],
			"translation":[
				-0.06901457905769348,
				3.125943660736084,
				-1.0192394256591797e-05
			]
		},
		{
			"children":[
				7
			],
			"name":"mixamorig:LeftHandIndex3",
			"rotation":[
				-0.20432938635349274,
				2.5729283947839576e-07,
				1.2635712209885241e-07,
				0.9789022207260132
			],
			"translation":[
				0.04357677698135376,
				4.103573799133301,
				-5.304813385009766e-06
			]
		},
		{
			"children":[
				8
			],
			"name":"mixamorig:LeftHandIndex2",
			"rotation":[
				0.028642995283007622,
				-2.3310093411055277e-07,
				-4.250903629099412e-08,
				0.999589741230011
			],
			"scale":[
				0.9999999403953552,
				1,
				0.9999998807907104
			],
			"translation":[
				0.025437355041503906,
				4.467645168304443,
				-4.410743713378906e-06
			]
		},
		{
			"children":[
				9
			],
			"name":"mixamorig:LeftHandIndex1",
			"rotation":[
				0.0602056048810482,
				0.005653849802911282,
				0.09332568198442459,
				0.9937976002693176
			],
			"scale":[
				1,
				0.9999999403953552,
				0.9999998807907104
			],
			"translation":[
				-7.670678615570068,
				25.92800521850586,
				0.3607902526855469
			]
		},
		{
			"name":"mixamorig:LeftHandMiddle4",
			"rotation":[
				-1.571607199934988e-08,
				5.8673329306202504e-08,
				-1.0477381184870183e-09,
				1
			],
			"scale":[
				0.9999999403953552,
				0.9999998211860657,
				0.9999999403953552
			],
			"translation":[
				0.045823514461517334,
				3.604309558868408,
				-1.0415911674499512e-05
			]
		},
		{
			"children":[
				11
			],
			"name":"mixamorig:LeftHandMiddle3",
			"rotation":[
				0.08576513826847076,
				-6.201009341566532e-07,
				-4.2590318827251394e-08,
				0.9963153600692749
			],
			"scale":[
				0.9999999403953552,
				1,
				1
			],
			"translation":[
				0.017040014266967773,
				4.646289825439453,
				-4.410743713378906e-06
			]
		},
		{
			"children":[
				12
			],
			"name":"mixamorig:LeftHandMiddle2",
			"rotation":[
				0.10406798124313354,
				2.420612190690008e-07,
				1.2524444592543205e-08,
				0.9945701956748962
			],
			"scale":[
				1,
				1,
				0.9999999403953552
			],
			"translation":[
				-0.0628630518913269,
				5.186501502990723,
				-2.562999725341797e-06
			]
		},
		{
			"children":[
				13
			],
			"name":"mixamorig:LeftHandMiddle1",
			"rotation":[
				-0.033423129469156265,
				-0.002811822108924389,
				0.0837889015674591,
				0.995918869972229
			],
			"scale":[
				0.9999999403953552,
				0.9999999403953552,
				0.9999999403953552
			],
			"translation":[
				-2.263758897781372,
				24.853496551513672,
				-0.6524415016174316
			]
		},
		{
			"name":"mixamorig:LeftHandRing4",
			"rotation":[
				4.132743569584818e-08,
				1.555308699607849e-07,
				2.3283064365386963e-09,
				1
			],
			"scale":[
				1,
				1,
				1.0000001192092896
			],
			"translation":[
				0.0512087345123291,
				3.836113214492798,
				1.2636184692382812e-05
			]
		},
		{
			"children":[
				15
			],
			"name":"mixamorig:LeftHandRing3",
			"rotation":[
				0.06752267479896545,
				3.866828421905666e-07,
				1.0221308599511758e-07,
				0.9977177381515503
			],
			"scale":[
				1.0000001192092896,
				1.0000001192092896,
				1.0000001192092896
			],
			"translation":[
				0.013794660568237305,
				4.718828201293945,
				5.3942203521728516e-06
			]
		},
		{
			"children":[
				16
			],
			"name":"mixamorig:LeftHandRing2",
			"rotation":[
				0.10225924849510193,
				3.0427493413753837e-08,
				-4.2130374744431265e-09,
				0.9947577714920044
			],
			"scale":[
				1,
				1,
				0.9999999403953552
			],
			"translation":[
				-0.0650019645690918,
				4.86865758895874,
				-3.0249357223510742e-05
			]
		},
		{
			"children":[
				17
			],
			"name":"mixamorig:LeftHandRing1",
			"rotation":[
				-0.07545482367277145,
				-0.00014507082232739776,
				0.0019172868924215436,
				0.9971473813056946
			],
			"scale":[
				1,
				1,
				0.9999999403953552
			],
			"translation":[
				3.139591693878174,
				22.869848251342773,
				0.03411366045475006
			]
		},
		{
			"name":"mixamorig:LeftHandPinky4",
			"rotation":[
				-9.650828758367425e-08,
				9.778885257105685e-09,
				4.1909511416804435e-09,
				1
			],
			"scale":[
				1.0000001192092896,
				1.0000001192092896,
				1.0000001192092896
			],
			"translation":[
				-0.01761341094970703,
				1.6388124227523804,
				-1.8477439880371094e-06
			]
		},
		{
			"children":[
				19
			],
			"name":"mixamorig:LeftHandPinky3",
			"rotation":[
				-0.04971754923462868,
				3.109806812062743e-07,
				7.646301725117155e-08,
				0.9987633228302002
			],
			"scale":[
				1,
				0.9999999403953552,
				0.9999999403953552
			],
			"translation":[
				-0.0015664100646972656,
				2.519925355911255,
				-1.6927719116210938e-05
			]
		},
		{
			"children":[
				20
			],
			"name":"mixamorig:LeftHandPinky2",
			"rotation":[
				-0.031166493892669678,
				-6.727416916874063e-07,
				-1.625947732009081e-07,
				0.9995142221450806
			],
			"scale":[
				1.0000001192092896,
				1,
				0.9999999403953552
			],
			"translation":[
				0.01917719841003418,
				3.2614245414733887,
				-1.5795230865478516e-06
			]
		},
		{
			"children":[
				21
			],
			"name":"mixamorig:LeftHandPinky1",
			"rotation":[
				0.05885804444551468,
				-0.0003328764869365841,
				-0.005651307757943869,
				0.9982503056526184
			],
			"scale":[
				1,
				1,
				0.9999999403953552
			],
			"translation":[
				6.794848918914795,
				22.979890823364258,
				0.2838212251663208
			]
		},
		{
			"children":[
				6,
				10,
				14,
				18,
				22
			],
			"name":"mixamorig:LeftHand",
			"rotation":[
				-0.01963815838098526,
				0.12975923717021942,
				-0.030183618888258934,
				0.9908914566040039
			],
			"scale":[
				1,
				1,
				0.9999999403953552
			],
			"translation":[
				-1.6689300537109375e-06,
				43.14337921142578,
				-6.198883056640625e-06
			]
		},
		{
			"children":[
				23
			],
			"name":"mixamorig:LeftForeArm",
			"rotation":[
				-0.028801679611206055,
				0.0027565460186451674,
				-0.09523195028305054,
				0.9950345158576965
			],
			"translation":[
				-1.2874603271484375e-05,
				41.526100158691406,
				-1.1920928955078125e-06
			]
		},
		{
			"children":[
				24
			],
			"name":"mixamorig:LeftArm",
			"rotation":[
				0.2617754340171814,
				-0.16253744065761566,
				0.044773977249860764,
				0.9502897262573242
			],
			"scale":[
				0.9999999403953552,
				0.9999999403953552,
				0.9999998807907104
			],
			"translation":[
				5.960464477539063e-08,
				23.760101318359375,
				3.56137752532959e-06
			]
		},
		{
			"children":[
				25
			],
			"name":"mixamorig:LeftShoulder",
			"rotation":[
				0.5765333771705627,
				0.4008209705352783,
				-0.5979251861572266,
				0.38657134771347046
			],
			"scale":[
				0.9999999403953552,
				1.0000001192092896,
				0.9999998807907104
			],
			"translation":[
				10.965033531188965,
				21.169559478759766,
				-0.40107011795043945
			]
		},
		{
			"name":"mixamorig:RightHandThumb4",
			"rotation":[
				2.1886080503463745e-08,
				4.6100467443466187e-08,
				-1.210719524635806e-08,
				1
			],
			"scale":[
				0.9999999403953552,
				0.9999999403953552,
				1.0000001192092896
			],
			"translation":[
				-0.9552726745605469,
				4.778706073760986,
				-3.933906555175781e-06
			]
		},
		{
			"children":[
				27
			],
			"name":"mixamorig:RightHandThumb3",
			"rotation":[
				-0.010704311542212963,
				-6.473063081102737e-07,
				-9.965722824745171e-08,
				0.9999427199363708
			],
			"translation":[
				0.19221115112304688,
				6.907308578491211,
				1.0669231414794922e-05
			]
		},
		{
			"children":[
				28
			],
			"name":"mixamorig:RightHandThumb2",
			"rotation":[
				-0.03321344777941704,
				7.007412250459311e-07,
				8.572898479997093e-08,
				0.9994482398033142
			],
			"scale":[
				1,
				0.9999999403953552,
				0.9999999403953552
			],
			"translation":[
				0.7630672454833984,
				7.965338230133057,
				-1.1563301086425781e-05
			]
		},
		{
			"children":[
				29
			],
			"name":"mixamorig:RightHandThumb1",
			"rotation":[
				0.20332013070583344,
				-0.05018537864089012,
				-0.23432312905788422,
				0.9493340253829956
			],
			"scale":[
				0.9999998211860657,
				0.9999998807907104,
				0.9999998807907104
			],
			"translation":[
				5.070831298828125,
				7.596244812011719,
				4.077815532684326
			]
		},
		{
			"name":"mixamorig:RightHandIndex4",
			"rotation":[
				-1.5133991837501526e-08,
				-6.05359673500061e-08,
				-1.862645149230957e-09,
				1
			],
			"scale":[
				1,
				1.0000001192092896,
				1
			],
			"translation":[
				-0.010914325714111328,
				2.9518773555755615,
				-2.0682811737060547e-05
			]
		},
		{
			"children":[
				31
			],
			"name":"mixamorig:RightHandIndex3",
			"rotation":[
				-0.031202349811792374,
				-4.6216101168283785e-07,
				-1.2718744812900695e-07,
				0.9995130896568298
			],
			"translation":[
				-0.012682199478149414,
				4.040968894958496,
				1.3589859008789062e-05
			]
		},
		{
			"children":[
				32
			],
			"name":"mixamorig:RightHandIndex2",
			"rotation":[
				0.05042969435453415,
				1.3148377320248983e-07,
				2.5643998924351763e-08,
				0.9987276196479797
			],
			"scale":[
				1,
				1.0000001192092896,
				1
			],
			"translation":[
				0.023595571517944336,
				4.64980411529541,
				6.198883056640625e-06
			]
		},
		{
			"children":[
				33
			],
			"name":"mixamorig:RightHandIndex1",
			"rotation":[
				0.038134168833494186,
				-0.0022464299108833075,
				-0.05876554548740387,
				0.9975406527519226
			],
			"scale":[
				0.9999998807907104,
				0.9999997019767761,
				0.9999998211860657
			],
			"translation":[
				7.394880294799805,
				25.95038604736328,
				0.6188104152679443
			]
		},
		{
			"name":"mixamorig:RightHandMiddle4",
			"rotation":[
				-4.668254049988718e-08,
				-1.7043203115463257e-07,
				-1.3969839507410597e-08,
				1
			],
			"scale":[
				0.9999999403953552,
				1,
				1.0000001192092896
			],
			"translation":[
				-0.0027828216552734375,
				3.5236597061157227,
				2.9802322387695312e-06
			]
		},
		{
			"children":[
				35
			],
			"name":"mixamorig:RightHandMiddle3",
			"rotation":[
				-0.004961108323186636,
				6.705604960188793e-08,
				9.313340099126322e-10,
				0.9999877214431763
			],
			"translation":[
				-0.02291250228881836,
				4.395310878753662,
				-1.2576580047607422e-05
			]
		},
		{
			"children":[
				36
			],
			"name":"mixamorig:RightHandMiddle2",
			"rotation":[
				0.0692949965596199,
				-1.1156122070588026e-07,
				3.034091733411515e-08,
				0.997596263885498
			],
			"scale":[
				1,
				0.9999999403953552,
				0.9999998807907104
			],
			"translation":[
				0.025693416595458984,
				4.807185173034668,
				2.1457672119140625e-06
			]
		},
		{
			"children":[
				37
			],
			"name":"mixamorig:RightHandMiddle1",
			"rotation":[
				0.007638340350240469,
				-0.0005574359674938023,
				-0.07276865839958191,
				0.9973194599151611
			],
			"scale":[
				0.9999998807907104,
				0.9999998807907104,
				0.9999998807907104
			],
			"translation":[
				2.4348304271698,
				25.990161895751953,
				-0.8799533843994141
			]
		},
		{
			"name":"mixamorig:RightHandRing4",
			"rotation":[
				-1.548323602662549e-08,
				2.8172506105761386e-08,
				2.421438694000244e-08,
				1
			],
			"scale":[
				1,
				1,
				1.0000001192092896
			],
			"translation":[
				0.03410613536834717,
				3.3130133152008057,
				-4.872679710388184e-06
			]
		},
		{
			"children":[
				39
			],
			"name":"mixamorig:RightHandRing3",
			"rotation":[
				-0.12413942068815231,
				-5.537638259056621e-08,
				-8.681890761863542e-09,
				0.9922648072242737
			],
			"scale":[
				0.9999999403953552,
				0.9999999403953552,
				0.9999999403953552
			],
			"translation":[
				-0.03857553005218506,
				4.629215240478516,
				-6.183981895446777e-06
			]
		},
		{
			"children":[
				40
			],
			"name":"mixamorig:RightHandRing2",
			"rotation":[
				0.06196879222989082,
				-7.371615851070601e-08,
				-1.213050726533993e-08,
				0.9980781078338623
			],
			"scale":[
				1,
				0.9999998807907104,
				0.9999998807907104
			],
			"translation":[
				0.0044667720794677734,
				4.687337398529053,
				1.2800097465515137e-05
			]
		},
		{
			"children":[
				41
			],
			"name":"mixamorig:RightHandRing1",
			"rotation":[
				-0.013865428976714611,
				5.9453173889778554e-05,
				-0.004276543390005827,
				0.9998947381973267
			],
			"scale":[
				0.9999998807907104,
				0.9999997615814209,
				0.9999998211860657
			],
			"translation":[
				-3.1416125297546387,
				23.732023239135742,
				-0.5990033149719238
			]
		},
		{
			"name":"mixamorig:RightHandPinky4",
			"rotation":[
				-1.8100253100783448e-06,
				-1.3047829270362854e-06,
				-4.7124922275543213e-07,
				1
			],
			"scale":[
				1,
				1,
				1.0000001192092896
			],
			"translation":[
				0.014113903045654297,
				1.397315502166748,
				1.6987323760986328e-06
			]
		},
		{
			"children":[
				43
			],
			"name":"mixamorig:RightHandPinky3",
			"rotation":[
				-0.0805906280875206,
				9.474427997702151e-07,
				2.3172171381702356e-07,
				0.9967473149299622
			],
			"scale":[
				1,
				1.0000001192092896,
				1.0000001192092896
			],
			"translation":[
				-0.004544734954833984,
				2.365051746368408,
				-6.318092346191406e-06
			]
		},
		{
			"children":[
				44
			],
			"name":"mixamorig:RightHandPinky2",
			"rotation":[
				-0.008241984061896801,
				-3.138663942081621e-07,
				-4.656771679378835e-08,
				0.999966025352478
			],
			"scale":[
				0.9999998807907104,
				0.9999998211860657,
				0.9999998807907104
			],
			"translation":[
				-0.009564876556396484,
				3.033088207244873,
				-1.0132789611816406e-06
			]
		},
		{
			"children":[
				45
			],
			"name":"mixamorig:RightHandPinky1",
			"rotation":[
				0.019954493269324303,
				0.0007163666887208819,
				0.0358758345246315,
				0.9991567730903625
			],
			"scale":[
				0.9999998211860657,
				0.9999997615814209,
				0.9999998211860657
			],
			"translation":[
				-6.68808126449585,
				24.301496505737305,
				0.6937965154647827
			]
		},
		{
			"children":[
				30,
				34,
				38,
				42,
				46
			],
			"name":"mixamorig:RightHand",
			"rotation":[
				-0.013512549921870232,
				-0.06168220192193985,
				0.008581887930631638,
				0.9979674816131592
			],
			"scale":[
				0.9999998807907104,
				0.9999998807907104,
				0.9999999403953552
			],
			"translation":[
				1.430511474609375e-06,
				43.18996810913086,
				-1.6093254089355469e-06
			]
		},
		{
			"children":[
				47
			],
			"name":"mixamorig:RightForeArm",
			"rotation":[
				-0.019321439787745476,
				-0.00199318234808743,
				0.10259616374969482,
				0.9945334196090698
			],
			"scale":[
				0.9999998807907104,
				0.9999999403953552,
				1
			],
			"translation":[
				4.76837158203125e-07,
				41.409847259521484,
				-4.887580871582031e-06
			]
		},
		{
			"children":[
				48
			],
			"name":"mixamorig:RightArm",
			"rotation":[
				0.25433674454689026,
				0.12207302451133728,
				-0.03238067403435707,
				0.9588339328765869
			],
			"scale":[
				1.0000001192092896,
				0.9999999403953552,
				1
			],
			"translation":[
				-2.980232238769531e-07,
				23.760101318359375,
				4.17511910200119e-06
			]
		},
		{
			"children":[
				49
			],
			"name":"mixamorig:RightShoulder",
			"rotation":[
				0.5908687114715576,
				-0.3911101222038269,
				0.584337055683136,
				0.39554694294929504
			],
			"scale":[
				0.9999998807907104,
				1,
				0.9999999403953552
			],
			"translation":[
				-10.965033531188965,
				21.153629302978516,
				0.1208416223526001
			]
		},
		{
			"children":[
				2,
				26,
				50
			],
			"name":"mixamorig:Spine2",
			"rotation":[
				-3.725290742551124e-09,
				0,
				0,
				1
			],
			"scale":[
				1,
				0.9999999403953552,
				0.9999999403953552
			],
			"translation":[
				0,
				22.89069175720215,
				2.9802322387695312e-08
			]
		},
		{
			"children":[
				51
			],
			"name":"mixamorig:Spine1",
			"rotation":[
				3.725290742551124e-09,
				0,
				0,
				1
			],
			"scale":[
				1,
				0.9999999403953552,
				0.9999999403953552
			],
			"translation":[
				0,
				20.029354095458984,
				4.172325134277344e-07
			]
		},
		{
			"children":[
				52
			],
			"name":"mixamorig:Spine",
			"rotation":[
				-0.015256260521709919,
				0,
				0,
				0.9998836517333984
			],
			"translation":[
				0,
				17.160011291503906,
				-0.5237782001495361
			]
		},
		{
			"name":"mixamorig:LeftToe_End",
			"rotation":[
				1.2713718433587928e-06,
				6.910705252494154e-08,
				-1.0622899537793273e-07,
				1
			],
			"scale":[
				0.9999998807907104,
				0.9999999403953552,
				0.9999998807907104
			],
			"translation":[
				1.9073486328125e-06,
				12.038277626037598,
				-3.714859485626221e-05
			]
		},
		{
			"children":[
				54
			],
			"name":"mixamorig:LeftToeBase",
			"rotation":[
				0.3256590664386749,
				-0.017264997586607933,
				0.005947802681475878,
				0.9453108906745911
			],
			"scale":[
				1,
				1.0000001192092896,
				1.000000238418579
			],
			"translation":[
				1.7285346984863281e-06,
				28.860918045043945,
				2.384185791015625e-06
			]
		},
		{
			"children":[
				55
			],
			"name":"mixamorig:LeftFoot",
			"rotation":[
				0.4636678695678711,
				-0.05458850413560867,
				0.028636695817112923,
				0.8838620781898499
			],
			"scale":[
				0.9999998211860657,
				1,
				1
			],
			"translation":[
				1.135544152930379e-06,
				68.4706039428711,
				-9.294599294662476e-07
			]
		},
		{
			"children":[
				56
			],
			"name":"mixamorig:LeftLeg",
			"rotation":[
				-0.023582862690091133,
				0.00026194757083430886,
				-0.011077800765633583,
				0.9996604919433594
			],
			"scale":[
				1,
				1,
				0.9999999403953552
			],
			"translation":[
				1.2213131412863731e-06,
				74.84110260009766,
				-3.7493919080588967e-08
			]
		},
		{
			"children":[
				57
			],
			"name":"mixamorig:LeftUpLeg",
			"rotation":[
				8.147169864969328e-05,
				0.010756256990134716,
				-0.9999133348464966,
				0.007588339038193226
			],
			"scale":[
				1,
				1.000000238418579,
				1
			],
			"translation":[
				16.746877670288086,
				-9.542236328125,
				2.0360400676727295
			]
		},
		{
			"name":"mixamorig:RightToe_End",
			"rotation":[
				6.396440426215122e-07,
				1.5067055869621981e-07,
				-1.431217526715045e-07,
				1
			],
			"scale":[
				0.9999998211860657,
				0.9999999403953552,
				0.9999998807907104
			],
			"translation":[
				-2.384185791015625e-06,
				12.3296537399292,
				5.264580249786377e-05
			]
		},
		{
			"children":[
				59
			],
			"name":"mixamorig:RightToeBase",
			"rotation":[
				0.3307470679283142,
				0.011500049382448196,
				-0.004030738957226276,
				0.9436407685279846
			],
			"scale":[
				1,
				0.9999998807907104,
				1
			],
			"translation":[
				1.0207295417785645e-06,
				28.483797073364258,
				1.3113021850585938e-05
			]
		},
		{
			"children":[
				60
			],
			"name":"mixamorig:RightFoot",
			"rotation":[
				0.4533195495605469,
				0.0565328411757946,
				-0.028824491426348686,
				0.8890863656997681
			],
			"scale":[
				0.9999998211860657,
				1,
				1
			],
			"translation":[
				6.967165973037481e-07,
				68.41632843017578,
				-1.6205012798309326e-07
			]
		},
		{
			"children":[
				61
			],
			"name":"mixamorig:RightLeg",
			"rotation":[
				-0.010284281335771084,
				-0.00011440082016633824,
				0.0110769122838974,
				0.9998857975006104
			],
			"scale":[
				1,
				0.9999999403953552,
				0.9999998211860657
			],
			"translation":[
				-1.230393536388874e-06,
				74.87067413330078,
				-1.0424714673717972e-06
			]
		},
		{
			"children":[
				62
			],
			"name":"mixamorig:RightUpLeg",
			"rotation":[
				0.00013428436068352312,
				-0.017698043957352638,
				0.9998146295547485,
				0.007584586273878813
			],
			"scale":[
				1,
				0.9999999403953552,
				1.0000004768371582
			],
			"translation":[
				-16.746875762939453,
				-9.542236328125,
				3.0806562900543213
			]
		},
		{
			"children":[
				53,
				58,
				63
			],
			"name":"mixamorig:Hips",
			"rotation":[
				-0.7071067690849304,
				0,
				0,
				0.7071067690849304
			],
			"translation":[
				-0.036800384521484375,
				1.4258060455322266,
				-16.546173095703125
			]
		},
		{
			"mesh":0,
			"name":"Object_7",
			"skin":0
		},
		{
			"children":[
				65,
				64
			],
			"name":"Armature",
			"rotation":[
				0.7071068286895752,
				0,
				0,
				0.7071068286895752
			],
			"scale":[
				0.009999999776482582,
				0.009999999776482582,
				0.009999999776482582
			],
			"translation":[
				0,
				-1.2000000476837158,
				0
			]
		}
	],
	"animations":[
		{
			"channels":[
				{
					"sampler":0,
					"target":{
						"node":64,
						"path":"translation"
					}
				},
				{
					"sampler":1,
					"target":{
						"node":64,
						"path":"rotation"
					}
				},
				{
					"sampler":2,
					"target":{
						"node":64,
						"path":"scale"
					}
				},
				{
					"sampler":3,
					"target":{
						"node":53,
						"path":"translation"
					}
				},
				{
					"sampler":4,
					"target":{
						"node":53,
						"path":"rotation"
					}
				},
				{
					"sampler":5,
					"target":{
						"node":53,
						"path":"scale"
					}
				},
				{
					"sampler":6,
					"target":{
						"node":52,
						"path":"translation"
					}
				},
				{
					"sampler":7,
					"target":{
						"node":52,
						"path":"rotation"
					}
				},
				{
					"sampler":8,
					"target":{
						"node":52,
						"path":"scale"
					}
				},
				{
					"sampler":9,
					"target":{
						"node":51,
						"path":"translation"
					}
				},
				{
					"sampler":10,
					"target":{
						"node":51,
						"path":"rotation"
					}
				},
				{
					"sampler":11,
					"target":{
						"node":51,
						"path":"scale"
					}
				},
				{
					"sampler":12,
					"target":{
						"node":2,
						"path":"translation"
					}
				},
				{
					"sampler":13,
					"target":{
						"node":2,
						"path":"rotation"
					}
				},
				{
					"sampler":14,
					"target":{
						"node":2,
						"path":"scale"
					}
				},
				{
					"sampler":15,
					"target":{
						"node":1,
						"path":"translation"
					}
				},
				{
					"sampler":16,
					"target":{
						"node":1,
						"path":"rotation"
					}
				},
				{
					"sampler":17,
					"target":{
						"node":1,
						"path":"scale"
					}
				},
				{
					"sampler":18,
					"target":{
						"node":0,
						"path":"translation"
					}
				},
				{
					"sampler":19,
					"target":{
						"node":0,
						"path":"rotation"
					}
				},
				{
					"sampler":20,
					"target":{
						"node":0,
						"path":"scale"
					}
				},
				{
					"sampler":21,
					"target":{
						"node":26,
						"path":"translation"
					}
				},
				{
					"sampler":22,
					"target":{
						"node":26,
						"path":"rotation"
					}
				},
				{
					"sampler":23,
					"target":{
						"node":26,
						"path":"scale"
					}
				},
				{
					"sampler":24,
					"target":{
						"node":25,
						"path":"translation"
					}
				},
				{
					"sampler":25,
					"target":{
						"node":25,
						"path":"rotation"
					}
				},
				{
					"sampler":26,
					"target":{
						"node":25,
						"path":"scale"
					}
				},
				{
					"sampler":27,
					"target":{
						"node":24,
						"path":"translation"
					}
				},
				{
					"sampler":28,
					"target":{
						"node":24,
						"path":"rotation"
					}
				},
				{
					"sampler":29,
					"target":{
						"node":24,
						"path":"scale"
					}
				},
				{
					"sampler":30,
					"target":{
						"node":23,
						"path":"translation"
					}
				},
				{
					"sampler":31,
					"target":{
						"node":23,
						"path":"rotation"
					}
				},
				{
					"sampler":32,
					"target":{
						"node":23,
						"path":"scale"
					}
				},
				{
					"sampler":33,
					"target":{
						"node":6,
						"path":"translation"
					}
				},
				{
					"sampler":34,
					"target":{
						"node":6,
						"path":"rotation"
					}
				},
				{
					"sampler":35,
					"target":{
						"node":6,
						"path":"scale"
					}
				},
				{
					"sampler":36,
					"target":{
						"node":5,
						"path":"translation"
					}
				},
				{
					"sampler":37,
					"target":{
						"node":5,
						"path":"rotation"
					}
				},
				{
					"sampler":38,
					"target":{
						"node":5,
						"path":"scale"
					}
				},
				{
					"sampler":39,
					"target":{
						"node":4,
						"path":"translation"
					}
				},
				{
					"sampler":40,
					"target":{
						"node":4,
						"path":"rotation"
					}
				},
				{
					"sampler":41,
					"target":{
						"node":4,
						"path":"scale"
					}
				},
				{
					"sampler":42,
					"target":{
						"node":3,
						"path":"translation"
					}
				},
				{
					"sampler":43,
					"target":{
						"node":3,
						"path":"rotation"
					}
				},
				{
					"sampler":44,
					"target":{
						"node":3,
						"path":"scale"
					}
				},
				{
					"sampler":45,
					"target":{
						"node":10,
						"path":"translation"
					}
				},
				{
					"sampler":46,
					"target":{
						"node":10,
						"path":"rotation"
					}
				},
				{
					"sampler":47,
					"target":{
						"node":10,
						"path":"scale"
					}
				},
				{
					"sampler":48,
					"target":{
						"node":9,
						"path":"translation"
					}
				},
				{
					"sampler":49,
					"target":{
						"node":9,
						"path":"rotation"
					}
				},
				{
					"sampler":50,
					"target":{
						"node":9,
						"path":"scale"
					}
				},
				{
					"sampler":51,
					"target":{
						"node":8,
						"path":"translation"
					}
				},
				{
					"sampler":52,
					"target":{
						"node":8,
						"path":"rotation"
					}
				},
				{
					"sampler":53,
					"target":{
						"node":8,
						"path":"scale"
					}
				},
				{
					"sampler":54,
					"target":{
						"node":7,
						"path":"translation"
					}
				},
				{
					"sampler":55,
					"target":{
						"node":7,
						"path":"rotation"
					}
				},
				{
					"sampler":56,
					"target":{
						"node":7,
						"path":"scale"
					}
				},
				{
					"sampler":57,
					"target":{
						"node":14,
						"path":"translation"
					}
				},
				{
					"sampler":58,
					"target":{
						"node":14,
						"path":"rotation"
					}
				},
				{
					"sampler":59,
					"target":{
						"node":14,
						"path":"scale"
					}
				},
				{
					"sampler":60,
					"target":{
						"node":13,
						"path":"translation"
					}
				},
				{
					"sampler":61,
					"target":{
						"node":13,
						"path":"rotation"
					}
				},
				{
					"sampler":62,
					"target":{
						"node":13,
						"path":"scale"
					}
				},
				{
					"sampler":63,
					"target":{
						"node":12,
						"path":"translation"
					}
				},
				{
					"sampler":64,
					"target":{
						"node":12,
						"path":"rotation"
					}
				},
				{
					"sampler":65,
					"target":{
						"node":12,
						"path":"scale"
					}
				},
				{
					"sampler":66,
					"target":{
						"node":11,
						"path":"translation"
					}
				},
				{
					"sampler":67,
					"target":{
						"node":11,
						"path":"rotation"
					}
				},
				{
					"sampler":68,
					"target":{
						"node":11,
						"path":"scale"
					}
				},
				{
					"sampler":69,
					"target":{
						"node":18,
						"path":"translation"
					}
				},
				{
					"sampler":70,
					"target":{
						"node":18,
						"path":"rotation"
					}
				},
				{
					"sampler":71,
					"target":{
						"node":18,
						"path":"scale"
					}
				},
				{
					"sampler":72,
					"target":{
						"node":17,
						"path":"translation"
					}
				},
				{
					"sampler":73,
					"target":{
						"node":17,
						"path":"rotation"
					}
				},
				{
					"sampler":74,
					"target":{
						"node":17,
						"path":"scale"
					}
				},
				{
					"sampler":75,
					"target":{
						"node":16,
						"path":"translation"
					}
				},
				{
					"sampler":76,
					"target":{
						"node":16,
						"path":"rotation"
					}
				},
				{
					"sampler":77,
					"target":{
						"node":16,
						"path":"scale"
					}
				},
				{
					"sampler":78,
					"target":{
						"node":15,
						"path":"translation"
					}
				},
				{
					"sampler":79,
					"target":{
						"node":15,
						"path":"rotation"
					}
				},
				{
					"sampler":80,
					"target":{
						"node":15,
						"path":"scale"
					}
				},
				{
					"sampler":81,
					"target":{
						"node":22,
						"path":"translation"
					}
				},
				{
					"sampler":82,
					"target":{
						"node":22,
						"path":"rotation"
					}
				},
				{
					"sampler":83,
					"target":{
						"node":22,
						"path":"scale"
					}
				},
				{
					"sampler":84,
					"target":{
						"node":21,
						"path":"translation"
					}
				},
				{
					"sampler":85,
					"target":{
						"node":21,
						"path":"rotation"
					}
				},
				{
					"sampler":86,
					"target":{
						"node":21,
						"path":"scale"
					}
				},
				{
					"sampler":87,
					"target":{
						"node":20,
						"path":"translation"
					}
				},
				{
					"sampler":88,
					"target":{
						"node":20,
						"path":"rotation"
					}
				},
				{
					"sampler":89,
					"target":{
						"node":20,
						"path":"scale"
					}
				},
				{
					"sampler":90,
					"target":{
						"node":19,
						"path":"translation"
					}
				},
				{
					"sampler":91,
					"target":{
						"node":19,
						"path":"rotation"
					}
				},
				{
					"sampler":92,
					"target":{
						"node":19,
						"path":"scale"
					}
				},
				{
					"sampler":93,
					"target":{
						"node":50,
						"path":"translation"
					}
				},
				{
					"sampler":94,
					"target":{
						"node":50,
						"path":"rotation"
					}
				},
				{
					"sampler":95,
					"target":{
						"node":50,
						"path":"scale"
					}
				},
				{
					"sampler":96,
					"target":{
						"node":49,
						"path":"translation"
					}
				},
				{
					"sampler":97,
					"target":{
						"node":49,
						"path":"rotation"
					}
				},
				{
					"sampler":98,
					"target":{
						"node":49,
						"path":"scale"
					}
				},
				{
					"sampler":99,
					"target":{
						"node":48,
						"path":"translation"
					}
				},
				{
					"sampler":100,
					"target":{
						"node":48,
						"path":"rotation"
					}
				},
				{
					"sampler":101,
					"target":{
						"node":48,
						"path":"scale"
					}
				},
				{
					"sampler":102,
					"target":{
						"node":47,
						"path":"translation"
					}
				},
				{
					"sampler":103,
					"target":{
						"node":47,
						"path":"rotation"
					}
				},
				{
					"sampler":104,
					"target":{
						"node":47,
						"path":"scale"
					}
				},
				{
					"sampler":105,
					"target":{
						"node":30,
						"path":"translation"
					}
				},
				{
					"sampler":106,
					"target":{
						"node":30,
						"path":"rotation"
					}
				},
				{
					"sampler":107,
					"target":{
						"node":30,
						"path":"scale"
					}
				},
				{
					"sampler":108,
					"target":{
						"node":29,
						"path":"translation"
					}
				},
				{
					"sampler":109,
					"target":{
						"node":29,
						"path":"rotation"
					}
				},
				{
					"sampler":110,
					"target":{
						"node":29,
						"path":"scale"
					}
				},
				{
					"sampler":111,
					"target":{
						"node":28,
						"path":"translation"
					}
				},
				{
					"sampler":112,
					"target":{
						"node":28,
						"path":"rotation"
					}
				},
				{
					"sampler":113,
					"target":{
						"node":28,
						"path":"scale"
					}
				},
				{
					"sampler":114,
					"target":{
						"node":27,
						"path":"translation"
					}
				},
				{
					"sampler":115,
					"target":{
						"node":27,
						"path":"rotation"
					}
				},
				{
					"sampler":116,
					"target":{
						"node":27,
						"path":"scale"
					}
				},
				{
					"sampler":117,
					"target":{
						"node":34,
						"path":"translation"
					}
				},
				{
					"sampler":118,
					"target":{
						"node":34,
						"path":"rotation"
					}
				},
				{
					"sampler":119,
					"target":{
						"node":34,
						"path":"scale"
					}
				},
				{
					"sampler":120,
					"target":{
						"node":33,
						"path":"translation"
					}
				},
				{
					"sampler":121,
					"target":{
						"node":33,
						"path":"rotation"
					}
				},
				{
					"sampler":122,
					"target":{
						"node":33,
						"path":"scale"
					}
				},
				{
					"sampler":123,
					"target":{
						"node":32,
						"path":"translation"
					}
				},
				{
					"sampler":124,
					"target":{
						"node":32,
						"path":"rotation"
					}
				},
				{
					"sampler":125,
					"target":{
						"node":32,
						"path":"scale"
					}
				},
				{
					"sampler":126,
					"target":{
						"node":31,
						"path":"translation"
					}
				},
				{
					"sampler":127,
					"target":{
						"node":31,
						"path":"rotation"
					}
				},
				{
					"sampler":128,
					"target":{
						"node":31,
						"path":"scale"
					}
				},
				{
					"sampler":129,
					"target":{
						"node":38,
						"path":"translation"
					}
				},
				{
					"sampler":130,
					"target":{
						"node":38,
						"path":"rotation"
					}
				},
				{
					"sampler":131,
					"target":{
						"node":38,
						"path":"scale"
					}
				},
				{
					"sampler":132,
					"target":{
						"node":37,
						"path":"translation"
					}
				},
				{
					"sampler":133,
					"target":{
						"node":37,
						"path":"rotation"
					}
				},
				{
					"sampler":134,
					"target":{
						"node":37,
						"path":"scale"
					}
				},
				{
					"sampler":135,
					"target":{
						"node":36,
						"path":"translation"
					}
				},
				{
					"sampler":136,
					"target":{
						"node":36,
						"path":"rotation"
					}
				},
				{
					"sampler":137,
					"target":{
						"node":36,
						"path":"scale"
					}
				},
				{
					"sampler":138,
					"target":{
						"node":35,
						"path":"translation"
					}
				},
				{
					"sampler":139,
					"target":{
						"node":35,
						"path":"rotation"
					}
				},
				{
					"sampler":140,
					"target":{
						"node":35,
						"path":"scale"
					}
				},
				{
					"sampler":141,
					"target":{
						"node":42,
						"path":"translation"
					}
				},
				{
					"sampler":142,
					"target":{
						"node":42,
						"path":"rotation"
					}
				},
				{
					"sampler":143,
					"target":{
						"node":42,
						"path":"scale"
					}
				},
				{
					"sampler":144,
					"target":{
						"node":41,
						"path":"translation"
					}
				},
				{
					"sampler":145,
					"target":{
						"node":41,
						"path":"rotation"
					}
				},
				{
					"sampler":146,
					"target":{
						"node":41,
						"path":"scale"
					}
				},
				{
					"sampler":147,
					"target":{
						"node":40,
						"path":"translation"
					}
				},
				{
					"sampler":148,
					"target":{
						"node":40,
						"path":"rotation"
					}
				},
				{
					"sampler":149,
					"target":{
						"node":40,
						"path":"scale"
					}
				},
				{
					"sampler":150,
					"target":{
						"node":39,
						"path":"translation"
					}
				},
				{
					"sampler":151,
					"target":{
						"node":39,
						"path":"rotation"
					}
				},
				{
					"sampler":152,
					"target":{
						"node":39,
						"path":"scale"
					}
				},
				{
					"sampler":153,
					"target":{
						"node":46,
						"path":"translation"
					}
				},
				{
					"sampler":154,
					"target":{
						"node":46,
						"path":"rotation"
					}
				},
				{
					"sampler":155,
					"target":{
						"node":46,
						"path":"scale"
					}
				},
				{
					"sampler":156,
					"target":{
						"node":45,
						"path":"translation"
					}
				},
				{
					"sampler":157,
					"target":{
						"node":45,
						"path":"rotation"
					}
				},
				{
					"sampler":158,
					"target":{
						"node":45,
						"path":"scale"
					}
				},
				{
					"sampler":159,
					"target":{
						"node":44,
						"path":"translation"
					}
				},
				{
					"sampler":160,
					"target":{
						"node":44,
						"path":"rotation"
					}
				},
				{
					"sampler":161,
					"target":{
						"node":44,
						"path":"scale"
					}
				},
				{
					"sampler":162,
					"target":{
						"node":43,
						"path":"translation"
					}
				},
				{
					"sampler":163,
					"target":{
						"node":43,
						"path":"rotation"
					}
				},
				{
					"sampler":164,
					"target":{
						"node":43,
						"path":"scale"
					}
				},
				{
					"sampler":165,
					"target":{
						"node":58,
						"path":"translation"
					}
				},
				{
					"sampler":166,
					"target":{
						"node":58,
						"path":"rotation"
					}
				},
				{
					"sampler":167,
					"target":{
						"node":58,
						"path":"scale"
					}
				},
				{
					"sampler":168,
					"target":{
						"node":57,
						"path":"translation"
					}
				},
				{
					"sampler":169,
					"target":{
						"node":57,
						"path":"rotation"
					}
				},
				{
					"sampler":170,
					"target":{
						"node":57,
						"path":"scale"
					}
				},
				{
					"sampler":171,
					"target":{
						"node":56,
						"path":"translation"
					}
				},
				{
					"sampler":172,
					"target":{
						"node":56,
						"path":"rotation"
					}
				},
				{
					"sampler":173,
					"target":{
						"node":56,
						"path":"scale"
					}
				},
				{
					"sampler":174,
					"target":{
						"node":55,
						"path":"translation"
					}
				},
				{
					"sampler":175,
					"target":{
						"node":55,
						"path":"rotation"
					}
				},
				{
					"sampler":176,
					"target":{
						"node":55,
						"path":"scale"
					}
				},
				{
					"sampler":177,
					"target":{
						"node":54,
						"path":"translation"
					}
				},
				{
					"sampler":178,
					"target":{
						"node":54,
						"path":"rotation"
					}
				},
				{
					"sampler":179,
					"target":{
						"node":54,
						"path":"scale"
					}
				},
				{
					"sampler":180,
					"target":{
						"node":63,
						"path":"translation"
					}
				},
				{
					"sampler":181,
					"target":{
						"node":63,
						"path":"rotation"
					}
				},
				{
					"sampler":182,
					"target":{
						"node":63,
						"path":"scale"
					}
				},
				{
					"sampler":183,
					"target":{
						"node":62,
						"path":"translation"
					}
				},
				{
					"sampler":184,
					"target":{
						"node":62,
						"path":"rotation"
					}
				},
				{
					"sampler":185,
					"target":{
						"node":62,
						"path":"scale"
					}
				},
				{
					"sampler":186,
					"target":{
						"node":61,
						"path":"translation"
					}
				},
				{
					"sampler":187,
					"target":{
						"node":61,
						"path":"rotation"
					}
				},
				{
					"sampler":188,
					"target":{
						"node":61,
						"path":"scale"
					}
				},
				{
					"sampler":189,
					"target":{
						"node":60,
						"path":"translation"
					}
				},
				{
					"sampler":190,
					"target":{
						"node":60,
						"path":"rotation"
					}
				},
				{
					"sampler":191,
					"target":{
						"node":60,
						"path":"scale"
					}
				},
				{
					"sampler":192,
					"target":{
						"node":59,
						"path":"translation"
					}
				},
				{
					"sampler":193,
					"target":{
						"node":59,
						"path":"rotation"
					}
				},
				{
					"sampler":194,
					"target":{
						"node":59,
						"path":"scale"
					}
				}
			],
			"name":"Armature|mixamo.com|Layer0",
			"samplers":[
				{
					"input":7,
					"interpolation":"LINEAR",
					"output":8
				},
				{
					"input":7,
					"interpolation":"LINEAR",
					"output":9
				},
				{
					"input":10,
					"interpolation":"STEP",
					"output":11
				},
				{
					"input":10,
					"interpolation":"LINEAR",
					"output":12
				},
				{
					"input":7,
					"interpolation":"LINEAR",
					"output":13
				},
				{
					"input":10,
					"interpolation":"LINEAR",
					"output":14
				},
				{
					"input":10,
					"interpolation":"LINEAR",
					"output":15
				},
				{
					"input":7,
					"interpolation":"LINEAR",
					"output":16
				},
				{
					"input":10,
					"interpolation":"LINEAR",
					"output":17
				},
				{
					"input":10,
					"interpolation":"LINEAR",
					"output":18
				},
				{
					"input":7,
					"interpolation":"LINEAR",
					"output":19
				},
				{
					"input":10,
					"interpolation":"LINEAR",
					"output":20
				},
				{
					"input":10,
					"interpolation":"LINEAR",
					"output":21
				},
				{
					"input":7,
					"interpolation":"LINEAR",
					"output":22
				},
				{
					"input":10,
					"interpolation":"LINEAR",
					"output":23
				},
				{
					"input":10,
					"interpolation":"LINEAR",
					"output":24
				},
				{
					"input":7,
					"interpolation":"LINEAR",
					"output":25
				},
				{
					"input":10,
					"interpolation":"LINEAR",
					"output":26
				},
				{
					"input":10,
					"interpolation":"STEP",
					"output":27
				},
				{
					"input":10,
					"interpolation":"STEP",
					"output":28
				},
				{
					"input":10,
					"interpolation":"STEP",
					"output":29
				},
				{
					"input":10,
					"interpolation":"LINEAR",
					"output":30
				},
				{
					"input":7,
					"interpolation":"LINEAR",
					"output":31
				},
				{
					"input":10,
					"interpolation":"STEP",
					"output":32
				},
				{
					"input":10,
					"interpolation":"LINEAR",
					"output":33
				},
				{
					"input":7,
					"interpolation":"LINEAR",
					"output":34
				},
				{
					"input":10,
					"interpolation":"STEP",
					"output":35
				},
				{
					"input":10,
					"interpolation":"LINEAR",
					"output":36
				},
				{
					"input":7,
					"interpolation":"LINEAR",
					"output":37
				},
				{
					"input":10,
					"interpolation":"STEP",
					"output":38
				},
				{
					"input":10,
					"interpolation":"LINEAR",
					"output":39
				},
				{
					"input":7,
					"interpolation":"LINEAR",
					"output":40
				},
				{
					"input":10,
					"interpolation":"LINEAR",
					"output":41
				},
				{
					"input":10,
					"interpolation":"LINEAR",
					"output":42
				},
				{
					"input":10,
					"interpolation":"LINEAR",
					"output":43
				},
				{
					"input":10,
					"interpolation":"STEP",
					"output":44
				},
				{
					"input":10,
					"interpolation":"LINEAR",
					"output":45
				},
				{
					"input":10,
					"interpolation":"LINEAR",
					"output":46
				},
				{
					"input":10,
					"interpolation":"STEP",
					"output":47
				},
				{
					"input":10,
					"interpolation":"LINEAR",
					"output":48
				},
				{
					"input":10,
					"interpolation":"LINEAR",
					"output":49
				},
				{
					"input":10,
					"interpolation":"LINEAR",
					"output":50
				},
				{
					"input":10,
					"interpolation":"STEP",
					"output":51
				},
				{
					"input":10,
					"interpolation":"STEP",
					"output":52
				},
				{
					"input":10,
					"interpolation":"STEP",
					"output":53
				},
				{
					"input":10,
					"interpolation":"LINEAR",
					"output":54
				},
				{
					"input":10,
					"interpolation":"LINEAR",
					"output":55
				},
				{
					"input":10,
					"interpolation":"STEP",
					"output":56
				},
				{
					"input":10,
					"interpolation":"LINEAR",
					"output":57
				},
				{
					"input":10,
					"interpolation":"LINEAR",
					"output":58
				},
				{
					"input":10,
					"interpolation":"STEP",
					"output":59
				},
				{
					"input":10,
					"interpolation":"LINEAR",
					"output":60
				},
				{
					"input":10,
					"interpolation":"LINEAR",
					"output":61
				},
				{
					"input":10,
					"interpolation":"STEP",
					"output":62
				},
				{
					"input":10,
					"interpolation":"STEP",
					"output":63
				},
				{
					"input":10,
					"interpolation":"STEP",
					"output":64
				},
				{
					"input":10,
					"interpolation":"STEP",
					"output":65
				},
				{
					"input":10,
					"interpolation":"LINEAR",
					"output":66
				},
				{
					"input":10,
					"interpolation":"LINEAR",
					"output":67
				},
				{
					"input":10,
					"interpolation":"LINEAR",
					"output":68
				},
				{
					"input":10,
					"interpolation":"LINEAR",
					"output":69
				},
				{
					"input":10,
					"interpolation":"LINEAR",
					"output":70
				},
				{
					"input":10,
					"interpolation":"STEP",
					"output":71
				},
				{
					"input":10,
					"interpolation":"LINEAR",
					"output":72
				},
				{
					"input":10,
					"interpolation":"LINEAR",
					"output":73
				},
				{
					"input":10,
					"interpolation":"STEP",
					"output":74
				},
				{
					"input":10,
					"interpolation":"STEP",
					"output":75
				},
				{
					"input":10,
					"interpolation":"STEP",
					"output":76
				},
				{
					"input":10,
					"interpolation":"STEP",
					"output":77
				},
				{
					"input":10,
					"interpolation":"LINEAR",
					"output":78
				},
				{
					"input":10,
					"interpolation":"LINEAR",
					"output":79
				},
				{
					"input":10,
					"interpolation":"LINEAR",
					"output":80
				},
				{
					"input":10,
					"interpolation":"LINEAR",
					"output":81
				},
				{
					"input":10,
					"interpolation":"LINEAR",
					"output":82
				},
				{
					"input":10,
					"interpolation":"STEP",
					"output":83
				},
				{
					"input":10,
					"interpolation":"LINEAR",
					"output":84
				},
				{
					"input":10,
					"interpolation":"LINEAR",
					"output":85
				},
				{
					"input":10,
					"interpolation":"LINEAR",
					"output":86
				},
				{
					"input":10,
					"interpolation":"STEP",
					"output":87
				},
				{
					"input":10,
					"interpolation":"STEP",
					"output":88
				},
				{
					"input":10,
					"interpolation":"STEP",
					"output":89
				},
				{
					"input":10,
					"interpolation":"LINEAR",
					"output":90
				},
				{
					"input":10,
					"interpolation":"LINEAR",
					"output":91
				},
				{
					"input":10,
					"interpolation":"LINEAR",
					"output":92
				},
				{
					"input":10,
					"interpolation":"LINEAR",
					"output":93
				},
				{
					"input":10,
					"interpolation":"LINEAR",
					"output":94
				},
				{
					"input":10,
					"interpolation":"LINEAR",
					"output":95
				},
				{
					"input":10,
					"interpolation":"LINEAR",
					"output":96
				},
				{
					"input":10,
					"interpolation":"LINEAR",
					"output":97
				},
				{
					"input":10,
					"interpolation":"STEP",
					"output":98
				},
				{
					"input":10,
					"interpolation":"STEP",
					"output":99
				},
				{
					"input":10,
					"interpolation":"STEP",
					"output":100
				},
				{
					"input":10,
					"interpolation":"STEP",
					"output":101
				},
				{
					"input":10,
					"interpolation":"LINEAR",
					"output":102
				},
				{
					"input":7,
					"interpolation":"LINEAR",
					"output":103
				},
				{
					"input":10,
					"interpolation":"LINEAR",
					"output":104
				},
				{
					"input":10,
					"interpolation":"LINEAR",
					"output":105
				},
				{
					"input":7,
					"interpolation":"LINEAR",
					"output":106
				},
				{
					"input":10,
					"interpolation":"LINEAR",
					"output":107
				},
				{
					"input":10,
					"interpolation":"LINEAR",
					"output":108
				},
				{
					"input":7,
					"interpolation":"LINEAR",
					"output":109
				},
				{
					"input":10,
					"interpolation":"LINEAR",
					"output":110
				},
				{
					"input":10,
					"interpolation":"LINEAR",
					"output":111
				},
				{
					"input":7,
					"interpolation":"LINEAR",
					"output":112
				},
				{
					"input":10,
					"interpolation":"LINEAR",
					"output":113
				},
				{
					"input":10,
					"interpolation":"LINEAR",
					"output":114
				},
				{
					"input":10,
					"interpolation":"LINEAR",
					"output":115
				},
				{
					"input":10,
					"interpolation":"LINEAR",
					"output":116
				},
				{
					"input":10,
					"interpolation":"LINEAR",
					"output":117
				},
				{
					"input":10,
					"interpolation":"LINEAR",
					"output":118
				},
				{
					"input":10,
					"interpolation":"STEP",
					"output":119
				},
				{
					"input":10,
					"interpolation":"LINEAR",
					"output":120
				},
				{
					"input":10,
					"interpolation":"LINEAR",
					"output":121
				},
				{
					"input":10,
					"interpolation":"LINEAR",
					"output":122
				},
				{
					"input":10,
					"interpolation":"STEP",
					"output":123
				},
				{
					"input":10,
					"interpolation":"STEP",
					"output":124
				},
				{
					"input":10,
					"interpolation":"STEP",
					"output":125
				},
				{
					"input":10,
					"interpolation":"LINEAR",
					"output":126
				},
				{
					"input":10,
					"interpolation":"LINEAR",
					"output":127
				},
				{
					"input":10,
					"interpolation":"LINEAR",
					"output":128
				},
				{
					"input":10,
					"interpolation":"LINEAR",
					"output":129
				},
				{
					"input":10,
					"interpolation":"LINEAR",
					"output":130
				},
				{
					"input":10,
					"interpolation":"STEP",
					"output":131
				},
				{
					"input":10,
					"interpolation":"LINEAR",
					"output":132
				},
				{
					"input":10,
					"interpolation":"LINEAR",
					"output":133
				},
				{
					"input":10,
					"interpolation":"STEP",
					"output":134
				},
				{
					"input":10,
					"interpolation":"STEP",
					"output":135
				},
				{
					"input":10,
					"interpolation":"STEP",
					"output":136
				},
				{
					"input":10,
					"interpolation":"STEP",
					"output":137
				},
				{
					"input":10,
					"interpolation":"LINEAR",
					"output":138
				},
				{
					"input":10,
					"interpolation":"LINEAR",
					"output":139
				},
				{
					"input":10,
					"interpolation":"LINEAR",
					"output":140
				},
				{
					"input":10,
					"interpolation":"LINEAR",
					"output":141
				},
				{
					"input":10,
					"interpolation":"LINEAR",
					"output":142
				},
				{
					"input":10,
					"interpolation":"STEP",
					"output":143
				},
				{
					"input":10,
					"interpolation":"LINEAR",
					"output":144
				},
				{
					"input":10,
					"interpolation":"LINEAR",
					"output":145
				},
				{
					"input":10,
					"interpolation":"STEP",
					"output":146
				},
				{
					"input":10,
					"interpolation":"STEP",
					"output":147
				},
				{
					"input":10,
					"interpolation":"STEP",
					"output":148
				},
				{
					"input":10,
					"interpolation":"STEP",
					"output":149
				},
				{
					"input":10,
					"interpolation":"LINEAR",
					"output":150
				},
				{
					"input":10,
					"interpolation":"LINEAR",
					"output":151
				},
				{
					"input":10,
					"interpolation":"STEP",
					"output":152
				},
				{
					"input":10,
					"interpolation":"LINEAR",
					"output":153
				},
				{
					"input":10,
					"interpolation":"LINEAR",
					"output":154
				},
				{
					"input":10,
					"interpolation":"STEP",
					"output":155
				},
				{
					"input":10,
					"interpolation":"LINEAR",
					"output":156
				},
				{
					"input":10,
					"interpolation":"LINEAR",
					"output":157
				},
				{
					"input":10,
					"interpolation":"LINEAR",
					"output":158
				},
				{
					"input":10,
					"interpolation":"STEP",
					"output":159
				},
				{
					"input":10,
					"interpolation":"STEP",
					"output":160
				},
				{
					"input":10,
					"interpolation":"STEP",
					"output":161
				},
				{
					"input":10,
					"interpolation":"LINEAR",
					"output":162
				},
				{
					"input":10,
					"interpolation":"LINEAR",
					"output":163
				},
				{
					"input":10,
					"interpolation":"LINEAR",
					"output":164
				},
				{
					"input":10,
					"interpolation":"LINEAR",
					"output":165
				},
				{
					"input":10,
					"interpolation":"LINEAR",
					"output":166
				},
				{
					"input":10,
					"interpolation":"LINEAR",
					"output":167
				},
				{
					"input":10,
					"interpolation":"LINEAR",
					"output":168
				},
				{
					"input":10,
					"interpolation":"LINEAR",
					"output":169
				},
				{
					"input":10,
					"interpolation":"STEP",
					"output":170
				},
				{
					"input":10,
					"interpolation":"STEP",
					"output":171
				},
				{
					"input":10,
					"interpolation":"STEP",
					"output":172
				},
				{
					"input":10,
					"interpolation":"STEP",
					"output":173
				},
				{
					"input":10,
					"interpolation":"LINEAR",
					"output":174
				},
				{
					"input":7,
					"interpolation":"LINEAR",
					"output":175
				},
				{
					"input":10,
					"interpolation":"LINEAR",
					"output":176
				},
				{
					"input":10,
					"interpolation":"LINEAR",
					"output":177
				},
				{
					"input":7,
					"interpolation":"LINEAR",
					"output":178
				},
				{
					"input":10,
					"interpolation":"LINEAR",
					"output":179
				},
				{
					"input":10,
					"interpolation":"LINEAR",
					"output":180
				},
				{
					"input":7,
					"interpolation":"LINEAR",
					"output":181
				},
				{
					"input":10,
					"interpolation":"LINEAR",
					"output":182
				},
				{
					"input":10,
					"interpolation":"LINEAR",
					"output":183
				},
				{
					"input":7,
					"interpolation":"LINEAR",
					"output":184
				},
				{
					"input":10,
					"interpolation":"STEP",
					"output":185
				},
				{
					"input":10,
					"interpolation":"STEP",
					"output":186
				},
				{
					"input":10,
					"interpolation":"STEP",
					"output":187
				},
				{
					"input":10,
					"interpolation":"STEP",
					"output":188
				},
				{
					"input":10,
					"interpolation":"LINEAR",
					"output":189
				},
				{
					"input":7,
					"interpolation":"LINEAR",
					"output":190
				},
				{
					"input":10,
					"interpolation":"LINEAR",
					"output":191
				},
				{
					"input":10,
					"interpolation":"LINEAR",
					"output":192
				},
				{
					"input":7,
					"interpolation":"LINEAR",
					"output":193
				},
				{
					"input":10,
					"interpolation":"LINEAR",
					"output":194
				},
				{
					"input":10,
					"interpolation":"LINEAR",
					"output":195
				},
				{
					"input":7,
					"interpolation":"LINEAR",
					"output":196
				},
				{
					"input":10,
					"interpolation":"LINEAR",
					"output":197
				},
				{
					"input":10,
					"interpolation":"LINEAR",
					"output":198
				},
				{
					"input":7,
					"interpolation":"LINEAR",
					"output":199
				},
				{
					"input":10,
					"interpolation":"LINEAR",
					"output":200
				},
				{
					"input":10,
					"interpolation":"STEP",
					"output":201
				},
				{
					"input":10,
					"interpolation":"STEP",
					"output":202
				},
				{
					"input":10,
					"interpolation":"STEP",
					"output":203
				}
			]
		}
	],
	"materials":[
		{
			"doubleSided":true,
			"name":"Material.005",
			"pbrMetallicRoughness":{
				"baseColorTexture":{
					"index":0
				},
				"metallicFactor":0,
				"roughnessFactor":0.5
			}
		}
	],
	"meshes":[
		{
			"name":"Object_0",
			"primitives":[
				{
					"attributes":{
						"POSITION":0,
						"NORMAL":1,
						"TEXCOORD_0":2,
						"JOINTS_0":3,
						"WEIGHTS_0":4
					},
					"indices":5,
					"material":0
				}
			]
		}
	],
	"textures":[
		{
			"sampler":0,
			"source":0
		}
	],
	"images":[
		{
			"mimeType":"image/png",
			"name":"Material.005_baseColor",
			"uri":"Material.005_baseColor.png"
		}
	],
	"skins":[
		{
			"inverseBindMatrices":6,
			"joints":[
				64,
				53,
				52,
				51,
				2,
				1,
				0,
				26,
				25,
				24,
				23,
				6,
				5,
				4,
				3,
				10,
				9,
				8,
				7,
				14,
				13,
				12,
				11,
				18,
				17,
				16,
				15,
				22,
				21,
				20,
				19,
				50,
				49,
				48,
				47,
				30,
				29,
				28,
				27,
				34,
				33,
				32,
				31,
				38,
				37,
				36,
				35,
				42,
				41,
				40,
				39,
				46,
				45,
				44,
				43,
				58,
				57,
				56,
				55,
				54,
				63,
				62,
				61,
				60,
				59
			],
			"name":"Armature"
		}
	],
	"accessors":[
		{
			"bufferView":0,
			"componentType":5126,
			"count":10117,
			"max":[
				1.1090123653411865,
				0.34651482105255127,
				0.4039992690086365
			],
			"min":[
				-1.109748363494873,
				-2.7821998596191406,
				-0.3650830388069153
			],
			"type":"VEC3"
		},
		{
			"bufferView":1,
			"componentType":5126,
			"count":10117,
			"type":"VEC3"
		},
		{
			"bufferView":2,
			"componentType":5126,
			"count":10117,
			"type":"VEC2"
		},
		{
			"bufferView":3,
			"componentType":5121,
			"count":10117,
			"type":"VEC4"
		},
		{
			"bufferView":4,
			"componentType":5126,
			"count":10117,
			"type":"VEC4"
		},
		{
			"bufferView":5,
			"componentType":5123,
			"count":41202,
			"type":"SCALAR"
		},
		{
			"bufferView":6,
			"componentType":5126,
			"count":65,
			"type":"MAT4"
		},
		{
			"bufferView":7,
			"componentType":5126,
			"count":31,
			"max":[
				1.0333333333333334
			],
			"min":[
				0.03333333333333333
			],
			"type":"SCALAR"
		},
		{
			"bufferView":8,
			"componentType":5126,
			"count":31,
			"type":"VEC3"
		},
		{
			"bufferView":9,
			"componentType":5126,
			"count":31,
			"type":"VEC4"
		},
		{
			"bufferView":10,
			"componentType":5126,
			"count":2,
			"max":[
				1.0333333333333334
			],
			"min":[
				0.03333333333333333
			],
			"type":"SCALAR"
		},
		{
			"bufferView":11,
			"componentType":5126,
			"count":2,
			"type":"VEC3"
		},
		{
			"bufferView":12,
			"componentType":5126,
			"count":2,
			"type":"VEC3"
		},
		{
			"bufferView":13,
			"componentType":5126,
			"count":31,
			"type":"VEC4"
		},
		{
			"bufferView":14,
			"componentType":5126,
			"count":2,
			"type":"VEC3"
		},
		{
			"bufferView":15,
			"componentType":5126,
			"count":2,
			"type":"VEC3"
		},
		{
			"bufferView":16,
			"componentType":5126,
			"count":31,
			"type":"VEC4"
		},
		{
			"bufferView":17,
			"componentType":5126,
			"count":2,
			"type":"VEC3"
		},
		{
			"bufferView":18,
			"componentType":5126,
			"count":2,
			"type":"VEC3"
		},
		{
			"bufferView":19,
			"componentType":5126,
			"count":31,
			"type":"VEC4"
		},
		{
			"bufferView":20,
			"componentType":5126,
			"count":2,
			"type":"VEC3"
		},
		{
			"bufferView":21,
			"componentType":5126,
			"count":2,
			"type":"VEC3"
		},
		{
			"bufferView":22,
			"componentType":5126,
			"count":31,
			"type":"VEC4"
		},
		{
			"bufferView":23,
			"componentType":5126,
			"count":2,
			"type":"VEC3"
		},
		{
			"bufferView":24,
			"componentType":5126,
			"count":2,
			"type":"VEC3"
		},
		{
			"bufferView":25,
			"componentType":5126,
			"count":31,
			"type":"VEC4"
		},
		{
			"bufferView":26,
			"componentType":5126,
			"count":2,
			"type":"VEC3"
		},
		{
			"bufferView":27,
			"componentType":5126,
			"count":2,
			"type":"VEC3"
		},
		{
			"bufferView":28,
			"componentType":5126,
			"count":2,
			"type":"VEC4"
		},
		{
			"bufferView":29,
			"componentType":5126,
			"count":2,
			"type":"VEC3"
		},
		{
			"bufferView":30,
			"componentType":5126,
			"count":2,
			"type":"VEC3"
		},
		{
			"bufferView":31,
			"componentType":5126,
			"count":31,
			"type":"VEC4"
		},
		{
			"bufferView":32,
			"componentType":5126,
			"count":2,
			"type":"VEC3"
		},
		{
			"bufferView":33,
			"componentType":5126,
			"count":2,
			"type":"VEC3"
		},
		{
			"bufferView":34,
			"componentType":5126,
			"count":31,
			"type":"VEC4"
		},
		{
			"bufferView":35,
			"componentType":5126,
			"count":2,
			"type":"VEC3"
		},
		{
			"bufferView":36,
			"componentType":5126,
			"count":2,
			"type":"VEC3"
		},
		{
			"bufferView":37,
			"componentType":5126,
			"count":31,
			"type":"VEC4"
		},
		{
			"bufferView":38,
			"componentType":5126,
			"count":2,
			"type":"VEC3"
		},
		{
			"bufferView":39,
			"componentType":5126,
			"count":2,
			"type":"VEC3"
		},
		{
			"bufferView":40,
			"componentType":5126,
			"count":31,
			"type":"VEC4"
		},
		{
			"bufferView":41,
			"componentType":5126,
			"count":2,
			"type":"VEC3"
		},
		{
			"bufferView":42,
			"componentType":5126,
			"count":2,
			"type":"VEC3"
		},
		{
			"bufferView":43,
			"componentType":5126,
			"count":2,
			"type":"VEC4"
		},
		{
			"bufferView":44,
			"componentType":5126,
			"count":2,
			"type":"VEC3"
		},
		{
			"bufferView":45,
			"componentType":5126,
			"count":2,
			"type":"VEC3"
		},
		{
			"bufferView":46,
			"componentType":5126,
			"count":2,
			"type":"VEC4"
		},
		{
			"bufferView":47,
			"componentType":5126,
			"count":2,
			"type":"VEC3"
		},
		{
			"bufferView":48,
			"componentType":5126,
			"count":2,
			"type":"VEC3"
		},
		{
			"bufferView":49,
			"componentType":5126,
			"count":2,
			"type":"VEC4"
		},
		{
			"bufferView":50,
			"componentType":5126,
			"count":2,
			"type":"VEC3"
		},
		{
			"bufferView":51,
			"componentType":5126,
			"count":2,
			"type":"VEC3"
		},
		{
			"bufferView":52,
			"componentType":5126,
			"count":2,
			"type":"VEC4"
		},
		{
			"bufferView":53,
			"componentType":5126,
			"count":2,
			"type":"VEC3"
		},
		{
			"bufferView":54,
			"componentType":5126,
			"count":2,
			"type":"VEC3"
		},
		{
			"bufferView":55,
			"componentType":5126,
			"count":2,
			"type":"VEC4"
		},
		{
			"bufferView":56,
			"componentType":5126,
			"count":2,
			"type":"VEC3"
		},
		{
			"bufferView":57,
			"componentType":5126,
			"count":2,
			"type":"VEC3"
		},
		{
			"bufferView":58,
			"componentType":5126,
			"count":2,
			"type":"VEC4"
		},
		{
			"bufferView":59,
			"componentType":5126,
			"count":2,
			"type":"VEC3"
		},
		{
			"bufferView":60,
			"componentType":5126,
			"count":2,
			"type":"VEC3"
		},
		{
			"bufferView":61,
			"componentType":5126,
			"count":2,
			"type":"VEC4"
		},
		{
			"bufferView":62,
			"componentType":5126,
			"count":2,
			"type":"VEC3"
		},
		{
			"bufferView":63,
			"componentType":5126,
			"count":2,
			"type":"VEC3"
		},
		{
			"bufferView":64,
			"componentType":5126,
			"count":2,
			"type":"VEC4"
		},
		{
			"bufferView":65,
			"componentType":5126,
			"count":2,
			"type":"VEC3"
		},
		{
			"bufferView":66,
			"componentType":5126,
			"count":2,
			"type":"VEC3"
		},
		{
			"bufferView":67,
			"componentType":5126,
			"count":2,
			"type":"VEC4"
		},
		{
			"bufferView":68,
			"componentType":5126,
			"count":2,
			"type":"VEC3"
		},
		{
			"bufferView":69,
			"componentType":5126,
			"count":2,
			"type":"VEC3"
		},
		{
			"bufferView":70,
			"componentType":5126,
			"count":2,
			"type":"VEC4"
		},
		{
			"bufferView":71,
			"componentType":5126,
			"count":2,
			"type":"VEC3"
		},
		{
			"bufferView":72,
			"componentType":5126,
			"count":2,
			"type":"VEC3"
		},
		{
			"bufferView":73,
			"componentType":5126,
			"count":2,
			"type":"VEC4"
		},
		{
			"bufferView":74,
			"componentType":5126,
			"count":2,
			"type":"VEC3"
		},
		{
			"bufferView":75,
			"componentType":5126,
			"count":2,
			"type":"VEC3"
		},
		{
			"bufferView":76,
			"componentType":5126,
			"count":2,
			"type":"VEC4"
		},
		{
			"bufferView":77,
			"componentType":5126,
			"count":2,
			"type":"VEC3"
		},
		{
			"bufferView":78,
			"componentType":5126,
			"count":2,
			"type":"VEC3"
		},
		{
			"bufferView":79,
			"componentType":5126,
			"count":2,
			"type":"VEC4"
		},
		{
			"bufferView":80,
			"componentType":5126,
			"count":2,
			"type":"VEC3"
		},
		{
			"bufferView":81,
			"componentType":5126,
			"count":2,
			"type":"VEC3"
		},
		{
			"bufferView":82,
			"componentType":5126,
			"count":2,
			"type":"VEC4"
		},
		{
			"bufferView":83,
			"componentType":5126,
			"count":2,
			"type":"VEC3"
		},
		{
			"bufferView":84,
			"componentType":5126,
			"count":2,
			"type":"VEC3"
		},
		{
			"bufferView":85,
			"componentType":5126,
			"count":2,
			"type":"VEC4"
		},
		{
			"bufferView":86,
			"componentType":5126,
			"count":2,
			"type":"VEC3"
		},
		{
			"bufferView":87,
			"componentType":5126,
			"count":2,
			"type":"VEC3"
		},
		{
			"bufferView":88,
			"componentType":5126,
			"count":2,
			"type":"VEC4"
		},
		{
			"bufferView":89,
			"componentType":5126,
			"count":2,
			"type":"VEC3"
		},
		{
			"bufferView":90,
			"componentType":5126,
			"count":2,
			"type":"VEC3"
		},
		{
			"bufferView":91,
			"componentType":5126,
			"count":2,
			"type":"VEC4"
		},
		{
			"bufferView":92,
			"componentType":5126,
			"count":2,
			"type":"VEC3"
		},
		{
			"bufferView":93,
			"componentType":5126,
			"count":2,
			"type":"VEC3"
		},
		{
			"bufferView":94,
			"componentType":5126,
			"count":2,
			"type":"VEC4"
		},
		{
			"bufferView":95,
			"componentType":5126,
			"count":2,
			"type":"VEC3"
		},
		{
			"bufferView":96,
			"componentType":5126,
			"count":2,
			"type":"VEC3"
		},
		{
			"bufferView":97,
			"componentType":5126,
			"count":2,
			"type":"VEC4"
		},
		{
			"bufferView":98,
			"componentType":5126,
			"count":2,
			"type":"VEC3"
		},
		{
			"bufferView":99,
			"componentType":5126,
			"count":2,
			"type":"VEC3"
		},
		{
			"bufferView":100,
			"componentType":5126,
			"count":2,
			"type":"VEC4"
		},
		{
			"bufferView":101,
			"componentType":5126,
			"count":2,
			"type":"VEC3"
		},
		{
			"bufferView":102,
			"componentType":5126,
			"count":2,
			"type":"VEC3"
		},
		{
			"bufferView":103,
			"componentType":5126,
			"count":31,
			"type":"VEC4"
		},
		{
			"bufferView":104,
			"componentType":5126,
			"count":2,
			"type":"VEC3"
		},
		{
			"bufferView":105,
			"componentType":5126,
			"count":2,
			"type":"VEC3"
		},
		{
			"bufferView":106,
			"componentType":5126,
			"count":31,
			"type":"VEC4"
		},
		{
			"bufferView":107,
			"componentType":5126,
			"count":2,
			"type":"VEC3"
		},
		{
			"bufferView":108,
			"componentType":5126,
			"count":2,
			"type":"VEC3"
		},
		{
			"bufferView":109,
			"componentType":5126,
			"count":31,
			"type":"VEC4"
		},
		{
			"bufferView":110,
			"componentType":5126,
			"count":2,
			"type":"VEC3"
		},
		{
			"bufferView":111,
			"componentType":5126,
			"count":2,
			"type":"VEC3"
		},
		{
			"bufferView":112,
			"componentType":5126,
			"count":31,
			"type":"VEC4"
		},
		{
			"bufferView":113,
			"componentType":5126,
			"count":2,
			"type":"VEC3"
		},
		{
			"bufferView":114,
			"componentType":5126,
			"count":2,
			"type":"VEC3"
		},
		{
			"bufferView":115,
			"componentType":5126,
			"count":2,
			"type":"VEC4"
		},
		{
			"bufferView":116,
			"componentType":5126,
			"count":2,
			"type":"VEC3"
		},
		{
			"bufferView":117,
			"componentType":5126,
			"count":2,
			"type":"VEC3"
		},
		{
			"bufferView":118,
			"componentType":5126,
			"count":2,
			"type":"VEC4"
		},
		{
			"bufferView":119,
			"componentType":5126,
			"count":2,
			"type":"VEC3"
		},
		{
			"bufferView":120,
			"componentType":5126,
			"count":2,
			"type":"VEC3"
		},
		{
			"bufferView":121,
			"componentType":5126,
			"count":2,
			"type":"VEC4"
		},
		{
			"bufferView":122,
			"componentType":5126,
			"count":2,
			"type":"VEC3"
		},
		{
			"bufferView":123,
			"componentType":5126,
			"count":2,
			"type":"VEC3"
		},
		{
			"bufferView":124,
			"componentType":5126,
			"count":2,
			"type":"VEC4"
		},
		{
			"bufferView":125,
			"componentType":5126,
			"count":2,
			"type":"VEC3"
		},
		{
			"bufferView":126,
			"componentType":5126,
			"count":2,
			"type":"VEC3"
		},
		{
			"bufferView":127,
			"componentType":5126,
			"count":2,
			"type":"VEC4"
		},
		{
			"bufferView":128,
			"componentType":5126,
			"count":2,
			"type":"VEC3"
		},
		{
			"bufferView":129,
			"componentType":5126,
			"count":2,
			"type":"VEC3"
		},
		{
			"bufferView":130,
			"componentType":5126,
			"count":2,
			"type":"VEC4"
		},
		{
			"bufferView":131,
			"componentType":5126,
			"count":2,
			"type":"VEC3"
		},
		{
			"bufferView":132,
			"componentType":5126,
			"count":2,
			"type":"VEC3"
		},
		{
			"bufferView":133,
			"componentType":5126,
			"count":2,
			"type":"VEC4"
		},
		{
			"bufferView":134,
			"componentType":5126,
			"count":2,
			"type":"VEC3"
		},
		{
			"bufferView":135,
			"componentType":5126,
			"count":2,
			"type":"VEC3"
		},
		{
			"bufferView":136,
			"componentType":5126,
			"count":2,
			"type":"VEC4"
		},
		{
			"bufferView":137,
			"componentType":5126,
			"count":2,
			"type":"VEC3"
		},
		{
			"bufferView":138,
			"componentType":5126,
			"count":2,
			"type":"VEC3"
		},
		{
			"bufferView":139,
			"componentType":5126,
			"count":2,
			"type":"VEC4"
		},
		{
			"bufferView":140,
			"componentType":5126,
			"count":2,
			"type":"VEC3"
		},
		{
			"bufferView":141,
			"componentType":5126,
			"count":2,
			"type":"VEC3"
		},
		{
			"bufferView":142,
			"componentType":5126,
			"count":2,
			"type":"VEC4"
		},
		{
			"bufferView":143,
			"componentType":5126,
			"count":2,
			"type":"VEC3"
		},
		{
			"bufferView":144,
			"componentType":5126,
			"count":2,
			"type":"VEC3"
		},
		{
			"bufferView":145,
			"componentType":5126,
			"count":2,
			"type":"VEC4"
		},
		{
			"bufferView":146,
			"componentType":5126,
			"count":2,
			"type":"VEC3"
		},
		{
			"bufferView":147,
			"componentType":5126,
			"count":2,
			"type":"VEC3"
		},
		{
			"bufferView":148,
			"componentType":5126,
			"count":2,
			"type":"VEC4"
		},
		{
			"bufferView":149,
			"componentType":5126,
			"count":2,
			"type":"VEC3"
		},
		{
			"bufferView":150,
			"componentType":5126,
			"count":2,
			"type":"VEC3"
		},
		{
			"bufferView":151,
			"componentType":5126,
			"count":2,
			"type":"VEC4"
		},
		{
			"bufferView":152,
			"componentType":5126,
			"count":2,
			"type":"VEC3"
		},
		{
			"bufferView":153,
			"componentType":5126,
			"count":2,
			"type":"VEC3"
		},
		{
			"bufferView":154,
			"componentType":5126,
			"count":2,
			"type":"VEC4"
		},
		{
			"bufferView":155,
			"componentType":5126,
			"count":2,
			"type":"VEC3"
		},
		{
			"bufferView":156,
			"componentType":5126,
			"count":2,
			"type":"VEC3"
		},
		{
			"bufferView":157,
			"componentType":5126,
			"count":2,
			"type":"VEC4"
		},
		{
			"bufferView":158,
			"componentType":5126,
			"count":2,
			"type":"VEC3"
		},
		{
			"bufferView":159,
			"componentType":5126,
			"count":2,
			"type":"VEC3"
		},
		{
			"bufferView":160,
			"componentType":5126,
			"count":2,
			"type":"VEC4"
		},
		{
			"bufferView":161,
			"componentType":5126,
			"count":2,
			"type":"VEC3"
		},
		{
			"bufferView":162,
			"componentType":5126,
			"count":2,
			"type":"VEC3"
		},
		{
			"bufferView":163,
			"componentType":5126,
			"count":2,
			"type":"VEC4"
		},
		{
			"bufferView":164,
			"componentType":5126,
			"count":2,
			"type":"VEC3"
		},
		{
			"bufferView":165,
			"componentType":5126,
			"count":2,
			"type":"VEC3"
		},
		{
			"bufferView":166,
			"componentType":5126,
			"count":2,
			"type":"VEC4"
		},
		{
			"bufferView":167,
			"componentType":5126,
			"count":2,
			"type":"VEC3"
		},
		{
			"bufferView":168,
			"componentType":5126,
			"count":2,
			"type":"VEC3"
		},
		{
			"bufferView":169,
			"componentType":5126,
			"count":2,
			"type":"VEC4"
		},
		{
			"bufferView":170,
			"componentType":5126,
			"count":2,
			"type":"VEC3"
		},
		{
			"bufferView":171,
			"componentType":5126,
			"count":2,
			"type":"VEC3"
		},
		{
			"bufferView":172,
			"componentType":5126,
			"count":2,
			"type":"VEC4"
		},
		{
			"bufferView":173,
			"componentType":5126,
			"count":2,
			"type":"VEC3"
		},
		{
			"bufferView":174,
			"componentType":5126,
			"count":2,
			"type":"VEC3"
		},
		{
			"bufferView":175,
			"componentType":5126,
			"count":31,
			"type":"VEC4"
		},
		{
			"bufferView":176,
			"componentType":5126,
			"count":2,
			"type":"VEC3"
		},
		{
			"bufferView":177,
			"componentType":5126,
			"count":2,
			"type":"VEC3"
		},
		{
			"bufferView":178,
			"componentType":5126,
			"count":31,
			"type":"VEC4"
		},
		{
			"bufferView":179,
			"componentType":5126,
			"count":2,
			"type":"VEC3"
		},
		{
			"bufferView":180,
			"componentType":5126,
			"count":2,
			"type":"VEC3"
		},
		{
			"bufferView":181,
			"componentType":5126,
			"count":31,
			"type":"VEC4"
		},
		{
			"bufferView":182,
			"componentType":5126,
			"count":2,
			"type":"VEC3"
		},
		{
			"bufferView":183,
			"componentType":5126,
			"count":2,
			"type":"VEC3"
		},
		{
			"bufferView":184,
			"componentType":5126,
			"count":31,
			"type":"VEC4"
		},
		{
			"bufferView":185,
			"componentType":5126,
			"count":2,
			"type":"VEC3"
		},
		{
			"bufferView":186,
			"componentType":5126,
			"count":2,
			"type":"VEC3"
		},
		{
			"bufferView":187,
			"componentType":5126,
			"count":2,
			"type":"VEC4"
		},
		{
			"bufferView":188,
			"componentType":5126,
			"count":2,
			"type":"VEC3"
		},
		{
			"bufferView":189,
			"componentType":5126,
			"count":2,
			"type":"VEC3"
		},
		{
			"bufferView":190,
			"componentType":5126,
			"count":31,
			"type":"VEC4"
		},
		{
			"bufferView":191,
			"componentType":5126,
			"count":2,
			"type":"VEC3"
		},
		{
			"bufferView":192,
			"componentType":5126,
			"count":2,
			"type":"VEC3"
		},
		{
			"bufferView":193,
			"componentType":5126,
			"count":31,
			"type":"VEC4"
		},
		{
			"bufferView":194,
			"componentType":5126,
			"count":2,
			"type":"VEC3"
		},
		{
			"bufferView":195,
			"componentType":5126,
			"count":2,
			"type":"VEC3"
		},
		{
			"bufferView":196,
			"componentType":5126,
			"count":31,
			"type":"VEC4"
		},
		{
			"bufferView":197,
			"componentType":5126,
			"count":2,
			"type":"VEC3"
		},
		{
			"bufferView":198,
			"componentType":5126,
			"count":2,
			"type":"VEC3"
		},
		{
			"bufferView":199,
			"componentType":5126,
			"count":31,
			"type":"VEC4"
		},
		{
			"bufferView":200,
			"componentType":5126,
			"count":2,
			"type":"VEC3"
		},
		{
			"bufferView":201,
			"componentType":5126,
			"count":2,
			"type":"VEC3"
		},
		{
			"bufferView":202,
			"componentType":5126,
			"count":2,
			"type":"VEC4"
		},
		{
			"bufferView":203,
			"componentType":5126,
			"count":2,
			"type":"VEC3"
		}
	],
	"bufferViews":[
		{
			"buffer":0,
			"byteLength":121404,
			"byteOffset":0,
			"target":34962
		},
		{
			"buffer":0,
			"byteLength":121404,
			"byteOffset":121404,
			"target":34962
		},
		{
			"buffer":0,
			"byteLength":80936,
			"byteOffset":242808,
			"target":34962
		},
		{
			"buffer":0,
			"byteLength":40468,
			"byteOffset":323744,
			"target":34962
		},
		{
			"buffer":0,
			"byteLength":161872,
			"byteOffset":364212,
			"target":34962
		},
		{
			"buffer":0,
			"byteLength":82404,
			"byteOffset":526084,
			"target":34963
		},
		{
			"buffer":0,
			"byteLength":4160,
			"byteOffset":608488
		},
		{
			"buffer":0,
			"byteLength":124,
			"byteOffset":612648
		},
		{
			"buffer":0,
			"byteLength":372,
			"byteOffset":612772
		},
		{
			"buffer":0,
			"byteLength":496,
			"byteOffset":613144
		},
		{
			"buffer":0,
			"byteLength":8,
			"byteOffset":613640
		},
		{
			"buffer":0,
			"byteLength":24,
			"byteOffset":613648
		},
		{
			"buffer":0,
			"byteLength":24,
			"byteOffset":613672
		},
		{
			"buffer":0,
			"byteLength":496,
			"byteOffset":613696
		},
		{
			"buffer":0,
			"byteLength":24,
			"byteOffset":614192
		},
		{
			"buffer":0,
			"byteLength":24,
			"byteOffset":614216
		},
		{
			"buffer":0,
			"byteLength":496,
			"byteOffset":614240
		},
		{
			"buffer":0,
			"byteLength":24,
			"byteOffset":614736
		},
		{
			"buffer":0,
			"byteLength":24,
			"byteOffset":614760
		},
		{
			"buffer":0,
			"byteLength":496,
			"byteOffset":614784
		},
		{
			"buffer":0,
			"byteLength":24,
			"byteOffset":615280
		},
		{
			"buffer":0,
			"byteLength":24,
			"byteOffset":615304
		},
		{
			"buffer":0,
			"byteLength":496,
			"byteOffset":615328
		},
		{
			"buffer":0,
			"byteLength":24,
			"byteOffset":615824
		},
		{
			"buffer":0,
			"byteLength":24,
			"byteOffset":615848
		},
		{
			"buffer":0,
			"byteLength":496,
			"byteOffset":615872
		},
		{
			"buffer":0,
			"byteLength":24,
			"byteOffset":616368
		},
		{
			"buffer":0,
			"byteLength":24,
			"byteOffset":616392
		},
		{
			"buffer":0,
			"byteLength":32,
			"byteOffset":616416
		},
		{
			"buffer":0,
			"byteLength":24,
			"byteOffset":616448
		},
		{
			"buffer":0,
			"byteLength":24,
			"byteOffset":616472
		},
		{
			"buffer":0,
			"byteLength":496,
			"byteOffset":616496
		},
		{
			"buffer":0,
			"byteLength":24,
			"byteOffset":616992
		},
		{
			"buffer":0,
			"byteLength":24,
			"byteOffset":617016
		},
		{
			"buffer":0,
			"byteLength":496,
			"byteOffset":617040
		},
		{
			"buffer":0,
			"byteLength":24,
			"byteOffset":617536
		},
		{
			"buffer":0,
			"byteLength":24,
			"byteOffset":617560
		},
		{
			"buffer":0,
			"byteLength":496,
			"byteOffset":617584
		},
		{
			"buffer":0,
			"byteLength":24,
			"byteOffset":618080
		},
		{
			"buffer":0,
			"byteLength":24,
			"byteOffset":618104
		},
		{
			"buffer":0,
			"byteLength":496,
			"byteOffset":618128
		},
		{
			"buffer":0,
			"byteLength":24,
			"byteOffset":618624
		},
		{
			"buffer":0,
			"byteLength":24,
			"byteOffset":618648
		},
		{
			"buffer":0,
			"byteLength":32,
			"byteOffset":618672
		},
		{
			"buffer":0,
			"byteLength":24,
			"byteOffset":618704
		},
		{
			"buffer":0,
			"byteLength":24,
			"byteOffset":618728
		},
		{
			"buffer":0,
			"byteLength":32,
			"byteOffset":618752
		},
		{
			"buffer":0,
			"byteLength":24,
			"byteOffset":618784
		},
		{
			"buffer":0,
			"byteLength":24,
			"byteOffset":618808
		},
		{
			"buffer":0,
			"byteLength":32,
			"byteOffset":618832
		},
		{
			"buffer":0,
			"byteLength":24,
			"byteOffset":618864
		},
		{
			"buffer":0,
			"byteLength":24,
			"byteOffset":618888
		},
		{
			"buffer":0,
			"byteLength":32,
			"byteOffset":618912
		},
		{
			"buffer":0,
			"byteLength":24,
			"byteOffset":618944
		},
		{
			"buffer":0,
			"byteLength":24,
			"byteOffset":618968
		},
		{
			"buffer":0,
			"byteLength":32,
			"byteOffset":618992
		},
		{
			"buffer":0,
			"byteLength":24,
			"byteOffset":619024
		},
		{
			"buffer":0,
			"byteLength":24,
			"byteOffset":619048
		},
		{
			"buffer":0,
			"byteLength":32,
			"byteOffset":619072
		},
		{
			"buffer":0,
			"byteLength":24,
			"byteOffset":619104
		},
		{
			"buffer":0,
			"byteLength":24,
			"byteOffset":619128
		},
		{
			"buffer":0,
			"byteLength":32,
			"byteOffset":619152
		},
		{
			"buffer":0,
			"byteLength":24,
			"byteOffset":619184
		},
		{
			"buffer":0,
			"byteLength":24,
			"byteOffset":619208
		},
		{
			"buffer":0,
			"byteLength":32,
			"byteOffset":619232
		},
		{
			"buffer":0,
			"byteLength":24,
			"byteOffset":619264
		},
		{
			"buffer":0,
			"byteLength":24,
			"byteOffset":619288
		},
		{
			"buffer":0,
			"byteLength":32,
			"byteOffset":619312
		},
		{
			"buffer":0,
			"byteLength":24,
			"byteOffset":619344
		},
		{
			"buffer":0,
			"byteLength":24,
			"byteOffset":619368
		},
		{
			"buffer":0,
			"byteLength":32,
			"byteOffset":619392
		},
		{
			"buffer":0,
			"byteLength":24,
			"byteOffset":619424
		},
		{
			"buffer":0,
			"byteLength":24,
			"byteOffset":619448
		},
		{
			"buffer":0,
			"byteLength":32,
			"byteOffset":619472
		},
		{
			"buffer":0,
			"byteLength":24,
			"byteOffset":619504
		},
		{
			"buffer":0,
			"byteLength":24,
			"byteOffset":619528
		},
		{
			"buffer":0,
			"byteLength":32,
			"byteOffset":619552
		},
		{
			"buffer":0,
			"byteLength":24,
			"byteOffset":619584
		},
		{
			"buffer":0,
			"byteLength":24,
			"byteOffset":619608
		},
		{
			"buffer":0,
			"byteLength":32,
			"byteOffset":619632
		},
		{
			"buffer":0,
			"byteLength":24,
			"byteOffset":619664
		},
		{
			"buffer":0,
			"byteLength":24,
			"byteOffset":619688
		},
		{
			"buffer":0,
			"byteLength":32,
			"byteOffset":619712
		},
		{
			"buffer":0,
			"byteLength":24,
			"byteOffset":619744
		},
		{
			"buffer":0,
			"byteLength":24,
			"byteOffset":619768
		},
		{
			"buffer":0,
			"byteLength":32,
			"byteOffset":619792
		},
		{
			"buffer":0,
			"byteLength":24,
			"byteOffset":619824
		},
		{
			"buffer":0,
			"byteLength":24,
			"byteOffset":619848
		},
		{
			"buffer":0,
			"byteLength":32,
			"byteOffset":619872
		},
		{
			"buffer":0,
			"byteLength":24,
			"byteOffset":619904
		},
		{
			"buffer":0,
			"byteLength":24,
			"byteOffset":619928
		},
		{
			"buffer":0,
			"byteLength":32,
			"byteOffset":619952
		},
		{
			"buffer":0,
			"byteLength":24,
			"byteOffset":619984
		},
		{
			"buffer":0,
			"byteLength":24,
			"byteOffset":620008
		},
		{
			"buffer":0,
			"byteLength":32,
			"byteOffset":620032
		},
		{
			"buffer":0,
			"byteLength":24,
			"byteOffset":620064
		},
		{
			"buffer":0,
			"byteLength":24,
			"byteOffset":620088
		},
		{
			"buffer":0,
			"byteLength":32,
			"byteOffset":620112
		},
		{
			"buffer":0,
			"byteLength":24,
			"byteOffset":620144
		},
		{
			"buffer":0,
			"byteLength":24,
			"byteOffset":620168
		},
		{
			"buffer":0,
			"byteLength":32,
			"byteOffset":620192
		},
		{
			"buffer":0,
			"byteLength":24,
			"byteOffset":620224
		},
		{
			"buffer":0,
			"byteLength":24,
			"byteOffset":620248
		},
		{
			"buffer":0,
			"byteLength":496,
			"byteOffset":620272
		},
		{
			"buffer":0,
			"byteLength":24,
			"byteOffset":620768
		},
		{
			"buffer":0,
			"byteLength":24,
			"byteOffset":620792
		},
		{
			"buffer":0,
			"byteLength":496,
			"byteOffset":620816
		},
		{
			"buffer":0,
			"byteLength":24,
			"byteOffset":621312
		},
		{
			"buffer":0,
			"byteLength":24,
			"byteOffset":621336
		},
		{
			"buffer":0,
			"byteLength":496,
			"byteOffset":621360
		},
		{
			"buffer":0,
			"byteLength":24,
			"byteOffset":621856
		},
		{
			"buffer":0,
			"byteLength":24,
			"byteOffset":621880
		},
		{
			"buffer":0,
			"byteLength":496,
			"byteOffset":621904
		},
		{
			"buffer":0,
			"byteLength":24,
			"byteOffset":622400
		},
		{
			"buffer":0,
			"byteLength":24,
			"byteOffset":622424
		},
		{
			"buffer":0,
			"byteLength":32,
			"byteOffset":622448
		},
		{
			"buffer":0,
			"byteLength":24,
			"byteOffset":622480
		},
		{
			"buffer":0,
			"byteLength":24,
			"byteOffset":622504
		},
		{
			"buffer":0,
			"byteLength":32,
			"byteOffset":622528
		},
		{
			"buffer":0,
			"byteLength":24,
			"byteOffset":622560
		},
		{
			"buffer":0,
			"byteLength":24,
			"byteOffset":622584
		},
		{
			"buffer":0,
			"byteLength":32,
			"byteOffset":622608
		},
		{
			"buffer":0,
			"byteLength":24,
			"byteOffset":622640
		},
		{
			"buffer":0,
			"byteLength":24,
			"byteOffset":622664
		},
		{
			"buffer":0,
			"byteLength":32,
			"byteOffset":622688
		},
		{
			"buffer":0,
			"byteLength":24,
			"byteOffset":622720
		},
		{
			"buffer":0,
			"byteLength":24,
			"byteOffset":622744
		},
		{
			"buffer":0,
			"byteLength":32,
			"byteOffset":622768
		},
		{
			"buffer":0,
			"byteLength":24,
			"byteOffset":622800
		},
		{
			"buffer":0,
			"byteLength":24,
			"byteOffset":622824
		},
		{
			"buffer":0,
			"byteLength":32,
			"byteOffset":622848
		},
		{
			"buffer":0,
			"byteLength":24,
			"byteOffset":622880
		},
		{
			"buffer":0,
			"byteLength":24,
			"byteOffset":622904
		},
		{
			"buffer":0,
			"byteLength":32,
			"byteOffset":622928
		},
		{
			"buffer":0,
			"byteLength":24,
			"byteOffset":622960
		},
		{
			"buffer":0,
			"byteLength":24,
			"byteOffset":622984
		},
		{
			"buffer":0,
			"byteLength":32,
			"byteOffset":623008
		},
		{
			"buffer":0,
			"byteLength":24,
			"byteOffset":623040
		},
		{
			"buffer":0,
			"byteLength":24,
			"byteOffset":623064
		},
		{
			"buffer":0,
			"byteLength":32,
			"byteOffset":623088
		},
		{
			"buffer":0,
			"byteLength":24,
			"byteOffset":623120
		},
		{
			"buffer":0,
			"byteLength":24,
			"byteOffset":623144
		},
		{
			"buffer":0,
			"byteLength":32,
			"byteOffset":623168
		},
		{
			"buffer":0,
			"byteLength":24,
			"byteOffset":623200
		},
		{
			"buffer":0,
			"byteLength":24,
			"byteOffset":623224
		},
		{
			"buffer":0,
			"byteLength":32,
			"byteOffset":623248
		},
		{
			"buffer":0,
			"byteLength":24,
			"byteOffset":623280
		},
		{
			"buffer":0,
			"byteLength":24,
			"byteOffset":623304
		},
		{
			"buffer":0,
			"byteLength":32,
			"byteOffset":623328
		},
		{
			"buffer":0,
			"byteLength":24,
			"byteOffset":623360
		},
		{
			"buffer":0,
			"byteLength":24,
			"byteOffset":623384
		},
		{
			"buffer":0,
			"byteLength":32,
			"byteOffset":623408
		},
		{
			"buffer":0,
			"byteLength":24,
			"byteOffset":623440
		},
		{
			"buffer":0,
			"byteLength":24,
			"byteOffset":623464
		},
		{
			"buffer":0,
			"byteLength":32,
			"byteOffset":623488
		},
		{
			"buffer":0,
			"byteLength":24,
			"byteOffset":623520
		},
		{
			"buffer":0,
			"byteLength":24,
			"byteOffset":623544
		},
		{
			"buffer":0,
			"byteLength":32,
			"byteOffset":623568
		},
		{
			"buffer":0,
			"byteLength":24,
			"byteOffset":623600
		},
		{
			"buffer":0,
			"byteLength":24,
			"byteOffset":623624
		},
		{
			"buffer":0,
			"byteLength":32,
			"byteOffset":623648
		},
		{
			"buffer":0,
			"byteLength":24,
			"byteOffset":623680
		},
		{
			"buffer":0,
			"byteLength":24,
			"byteOffset":623704
		},
		{
			"buffer":0,
			"byteLength":32,
			"byteOffset":623728
		},
		{
			"buffer":0,
			"byteLength":24,
			"byteOffset":623760
		},
		{
			"buffer":0,
			"byteLength":24,
			"byteOffset":623784
		},
		{
			"buffer":0,
			"byteLength":32,
			"byteOffset":623808
		},
		{
			"buffer":0,
			"byteLength":24,
			"byteOffset":623840
		},
		{
			"buffer":0,
			"byteLength":24,
			"byteOffset":623864
		},
		{
			"buffer":0,
			"byteLength":32,
			"byteOffset":623888
		},
		{
			"buffer":0,
			"byteLength":24,
			"byteOffset":623920
		},
		{
			"buffer":0,
			"byteLength":24,
			"byteOffset":623944
		},
		{
			"buffer":0,
			"byteLength":32,
			"byteOffset":623968
		},
		{
			"buffer":0,
			"byteLength":24,
			"byteOffset":624000
		},
		{
			"buffer":0,
			"byteLength":24,
			"byteOffset":624024
		},
		{
			"buffer":0,
			"byteLength":496,
			"byteOffset":624048
		},
		{
			"buffer":0,
			"byteLength":24,
			"byteOffset":624544
		},
		{
			"buffer":0,
			"byteLength":24,
			"byteOffset":624568
		},
		{
			"buffer":0,
			"byteLength":496,
			"byteOffset":624592
		},
		{
			"buffer":0,
			"byteLength":24,
			"byteOffset":625088
		},
		{
			"buffer":0,
			"byteLength":24,
			"byteOffset":625112
		},
		{
			"buffer":0,
			"byteLength":496,
			"byteOffset":625136
		},
		{
			"buffer":0,
			"byteLength":24,
			"byteOffset":625632
		},
		{
			"buffer":0,
			"byteLength":24,
			"byteOffset":625656
		},
		{
			"buffer":0,
			"byteLength":496,
			"byteOffset":625680
		},
		{
			"buffer":0,
			"byteLength":24,
			"byteOffset":626176
		},
		{
			"buffer":0,
			"byteLength":24,
			"byteOffset":626200
		},
		{
			"buffer":0,
			"byteLength":32,
			"byteOffset":626224
		},
		{
			"buffer":0,
			"byteLength":24,
			"byteOffset":626256
		},
		{
			"buffer":0,
			"byteLength":24,
			"byteOffset":626280
		},
		{
			"buffer":0,
			"byteLength":496,
			"byteOffset":626304
		},
		{
			"buffer":0,
			"byteLength":24,
			"byteOffset":626800
		},
		{
			"buffer":0,
			"byteLength":24,
			"byteOffset":626824
		},
		{
			"buffer":0,
			"byteLength":496,
			"byteOffset":626848
		},
		{
			"buffer":0,
			"byteLength":24,
			"byteOffset":627344
		},
		{
			"buffer":0,
			"byteLength":24,
			"byteOffset":627368
		},
		{
			"buffer":0,
			"byteLength":496,
			"byteOffset":627392
		},
		{
			"buffer":0,
			"byteLength":24,
			"byteOffset":627888
		},
		{
			"buffer":0,
			"byteLength":24,
			"byteOffset":627912
		},
		{
			"buffer":0,
			"byteLength":496,
			"byteOffset":627936
		},
		{
			"buffer":0,
			"byteLength":24,
			"byteOffset":628432
		},
		{
			"buffer":0,
			"byteLength":24,
			"byteOffset":628456
		},
		{
			"buffer":0,
			"byteLength":32,
			"byteOffset":628480
		},
		{
			"buffer":0,
			"byteLength":24,
			"byteOffset":628512
		}
	],
	"samplers":[
		{
			"magFilter":9729,
			"minFilter":9987
		}
	],
	"buffers":[
		{
			"byteLength":628536,
			"uri":"player_walk.bin"
		}
	]
}
