{
	"asset":{
		"generator":"Khronos glTF Blender I/O v4.5.48",
		"version":"2.0"
	},
	"scene":0,
	"scenes":[
		{
			"name":"Scene",
			"nodes":[
				59
			]
		}
	],
	"nodes":[
		{
			"name":"mixamorig:HeadTop_End",
			"rotation":[
				8.88178631458362e-16,
				5.293955920339377e-23,
				1.7763568394002505e-15,
				1
			],
			"translation":[
				-5.430774763226509e-08,
				599.4814453125,
				256.81121826171875
			]
		},
		{
			"children":[
				0
			],
			"name":"mixamorig:Head",
			"rotation":[
				8.88178631458362e-16,
				5.293955920339377e-23,
				1.7763568394002505e-15,
				1
			],
			"translation":[
				8.07340256869793e-08,
				636.412109375,
				272.6317443847656
			]
		},
		{
			"children":[
				1
			],
			"name":"mixamorig:Neck",
			"rotation":[
				0.013471193611621857,
				1.2905002231628415e-16,
				0,
				0.9999092817306519
			],
			"translation":[
				-7.223571429904041e-08,
				652.2867431640625,
				-1.9075652744504623e-05
			]
		},
		{
			"name":"mixamorig:LeftHandThumb4",
			"rotation":[
				1.3969840395589017e-08,
				-3.725290742551124e-09,
				1.862645149230957e-08,
				1
			],
			"scale":[
				1,
				0.9999999403953552,
				0.9999999403953552
			],
			"translation":[
				8.181121826171875,
				158.45018005371094,
				0.0001888275146484375
			]
		},
		{
			"children":[
				3
			],
			"name":"mixamorig:LeftHandThumb3",
			"rotation":[
				-0.11768101155757904,
				-1.06632307961263e-06,
				1.4630290934292134e-07,
				0.9930514693260193
			],
			"translation":[
				-2.5726318359375,
				198.2977294921875,
				-0.000335693359375
			]
		},
		{
			"children":[
				4
			],
			"name":"mixamorig:LeftHandThumb2",
			"rotation":[
				0.024815164506435394,
				2.794828333207988e-07,
				1.732793606379346e-07,
				0.9996920824050903
			],
			"translation":[
				-5.608734130859375,
				208.71707153320312,
				0.001125335693359375
			]
		},
		{
			"children":[
				5
			],
			"name":"mixamorig:LeftHandThumb1",
			"rotation":[
				0.140314519405365,
				0.029883241280913353,
				0.2061450183391571,
				0.9679478406906128
			],
			"scale":[
				1.0000001192092896,
				1.0000001192092896,
				1
			],
			"translation":[
				-108.33180236816406,
				225.59262084960938,
				74.08191680908203
			]
		},
		{
			"name":"mixamorig:LeftHandIndex4",
			"rotation":[
				7.290509529411793e-09,
				2.3283064365386963e-10,
				3.4924596548080444e-09,
				1
			],
			"translation":[
				-0.0996856689453125,
				91.56840515136719,
				-0.001254439353942871
			]
		},
		{
			"children":[
				7
			],
			"name":"mixamorig:LeftHandIndex3",
			"rotation":[
				-0.05417603254318237,
				-1.181021843876806e-06,
				-1.3757208705555968e-08,
				0.9985314011573792
			],
			"scale":[
				0.9999999403953552,
				1,
				0.9999999403953552
			],
			"translation":[
				0.5096817016601562,
				120.10983276367188,
				0.00019168853759765625
			]
		},
		{
			"children":[
				8
			],
			"name":"mixamorig:LeftHandIndex2",
			"rotation":[
				0.06970439851284027,
				4.4532413312481367e-07,
				7.2353492086563165e-09,
				0.9975676536560059
			],
			"scale":[
				0.9999999403953552,
				0.9999999403953552,
				0.9999999403953552
			],
			"translation":[
				-0.41002655029296875,
				128.93075561523438,
				4.1961669921875e-05
			]
		},
		{
			"children":[
				9
			],
			"name":"mixamorig:LeftHandIndex1",
			"rotation":[
				0.015604505315423012,
				0.0002941728162113577,
				0.01884210854768753,
				0.999700665473938
			],
			"scale":[
				0.9999999403953552,
				0.9999999403953552,
				1.0000001192092896
			],
			"translation":[
				-126.16182708740234,
				702.6300659179688,
				4.559185981750488
			]
		},
		{
			"name":"mixamorig:LeftHandMiddle4",
			"rotation":[
				7.845979439480288e-07,
				-8.071729098446667e-07,
				-2.000889731679223e-11,
				1
			],
			"scale":[
				1,
				0.9999999403953552,
				1
			],
			"translation":[
				0.5944201946258545,
				122.87114715576172,
				0.000557631254196167
			]
		},
		{
			"children":[
				11
			],
			"name":"mixamorig:LeftHandMiddle3",
			"rotation":[
				0.01550520770251751,
				1.2781757163793372e-07,
				-5.221127419297034e-10,
				0.999879777431488
			],
			"scale":[
				1,
				1,
				0.9999999403953552
			],
			"translation":[
				0.41230422258377075,
				148.21482849121094,
				-5.4448843002319336e-05
			]
		},
		{
			"children":[
				12
			],
			"name":"mixamorig:LeftHandMiddle2",
			"rotation":[
				0.09505254775285721,
				3.833341111203481e-07,
				2.2988793091371917e-08,
				0.995472252368927
			],
			"scale":[
				1,
				1.0000001192092896,
				1.0000001192092896
			],
			"translation":[
				-1.00674569606781,
				136.0811004638672,
				0.00028777122497558594
			]
		},
		{
			"children":[
				13
			],
			"name":"mixamorig:LeftHandMiddle1",
			"rotation":[
				-0.06940382719039917,
				3.76876923837699e-05,
				-0.0005420084344223142,
				0.9975885152816772
			],
			"scale":[
				1,
				1,
				1.0000001192092896
			],
			"translation":[
				-4.048036575317383,
				659.760986328125,
				-4.341130256652832
			]
		},
		{
			"name":"mixamorig:LeftHandRing4",
			"rotation":[
				-3.720925079164772e-08,
				-2.9103834897625802e-09,
				-5.587936335871291e-09,
				1
			],
			"scale":[
				0.9999999403953552,
				0.9999999403953552,
				0.9999999403953552
			],
			"translation":[
				0.6205253601074219,
				84.32823944091797,
				7.11679458618164e-05
			]
		},
		{
			"children":[
				15
			],
			"name":"mixamorig:LeftHandRing3",
			"rotation":[
				0.001089847763068974,
				3.811440478784789e-07,
				5.2619760992911324e-08,
				0.9999994039535522
			],
			"scale":[
				0.9999998807907104,
				1,
				0.9999998807907104
			],
			"translation":[
				0.7919273376464844,
				109.9779281616211,
				-0.0002644658088684082
			]
		},
		{
			"children":[
				16
			],
			"name":"mixamorig:LeftHandRing2",
			"rotation":[
				0.15048551559448242,
				1.6580089834405953e-07,
				-9.985734550355119e-08,
				0.9886122345924377
			],
			"scale":[
				0.9999999403953552,
				1.0000001192092896,
				0.9999999403953552
			],
			"translation":[
				-1.4124183654785156,
				123.78351593017578,
				-3.0338764190673828e-05
			]
		},
		{
			"children":[
				17
			],
			"name":"mixamorig:LeftHandRing1",
			"rotation":[
				-0.09159833937883377,
				0.004112308844923973,
				-0.044664785265922546,
				0.9947853684425354
			],
			"scale":[
				1,
				1.0000001192092896,
				1
			],
			"translation":[
				130.20947265625,
				674.02734375,
				13.417183876037598
			]
		},
		{
			"children":[
				6,
				10,
				14,
				18
			],
			"name":"mixamorig:LeftHand",
			"rotation":[
				-0.014418624341487885,
				0.16919900476932526,
				0.014146490022540092,
				0.985374927520752
			],
			"scale":[
				0.9999998807907104,
				0.9999999403953552,
				1.0000001192092896
			],
			"translation":[
				0.00032806396484375,
				1045.51416015625,
				0.000217437744140625
			]
		},
		{
			"children":[
				19
			],
			"name":"mixamorig:LeftForeArm",
			"rotation":[
				-0.023909932002425194,
				0.0024217702448368073,
				-0.10074198991060257,
				0.9946222901344299
			],
			"scale":[
				1,
				1.0000001192092896,
				0.9999998807907104
			],
			"translation":[
				4.57763671875e-05,
				986.6697998046875,
				-8.7738037109375e-05
			]
		},
		{
			"children":[
				20
			],
			"name":"mixamorig:LeftArm",
			"rotation":[
				0.2612166404724121,
				-0.1673240065574646,
				0.04602973535656929,
				0.9495524168014526
			],
			"scale":[
				1,
				1.0000001192092896,
				1
			],
			"translation":[
				0,
				581.5968017578125,
				-0.00023365020751953125
			]
		},
		{
			"children":[
				21
			],
			"name":"mixamorig:LeftShoulder",
			"rotation":[
				0.5770240426063538,
				0.4021666944026947,
				-0.5937272906303406,
				0.39088761806488037
			],
			"scale":[
				0.9999999403953552,
				1,
				0.9999999403953552
			],
			"translation":[
				271.6227722167969,
				541.6348876953125,
				-7.767074108123779
			]
		},
		{
			"name":"mixamorig:RightHandThumb4",
			"rotation":[
				-6.342306733131409e-07,
				-9.94652509689331e-07,
				1.6577541828155518e-07,
				1
			],
			"scale":[
				1,
				0.9999999403953552,
				1
			],
			"translation":[
				-14.811767578125,
				173.33694458007812,
				-0.000583648681640625
			]
		},
		{
			"children":[
				23
			],
			"name":"mixamorig:RightHandThumb3",
			"rotation":[
				-0.02279912494122982,
				5.868857897439739e-07,
				-1.0992464183345874e-07,
				0.9997400641441345
			],
			"scale":[
				1,
				0.9999998807907104,
				0.9999999403953552
			],
			"translation":[
				12.1839599609375,
				199.45352172851562,
				0.000316619873046875
			]
		},
		{
			"children":[
				24
			],
			"name":"mixamorig:RightHandThumb2",
			"rotation":[
				0.029486997053027153,
				2.7392798074288294e-07,
				6.335748992114532e-08,
				0.9995651245117188
			],
			"scale":[
				1,
				0.9999998807907104,
				1
			],
			"translation":[
				2.627777099609375,
				203.88116455078125,
				-0.0004100799560546875
			]
		},
		{
			"children":[
				25
			],
			"name":"mixamorig:RightHandThumb1",
			"rotation":[
				0.15216870605945587,
				-0.0323602594435215,
				-0.20547454059123993,
				0.9662182331085205
			],
			"scale":[
				1,
				1,
				1.0000001192092896
			],
			"translation":[
				101.68353271484375,
				220.19229125976562,
				78.3297348022461
			]
		},
		{
			"name":"mixamorig:RightHandIndex4",
			"rotation":[
				-6.017216946929693e-08,
				6.984920419839113e-10,
				-5.122274604474342e-09,
				1
			],
			"scale":[
				0.9999999403953552,
				1,
				1
			],
			"translation":[
				0.03035736083984375,
				86.48699951171875,
				0.0006210803985595703
			]
		},
		{
			"children":[
				27
			],
			"name":"mixamorig:RightHandIndex3",
			"rotation":[
				-0.050838813185691833,
				-1.118451336878934e-06,
				4.1497518310507076e-08,
				0.9987068772315979
			],
			"scale":[
				1,
				1,
				0.9999999403953552
			],
			"translation":[
				-0.2333831787109375,
				118.1190414428711,
				0.0006456971168518066
			]
		},
		{
			"children":[
				28
			],
			"name":"mixamorig:RightHandIndex2",
			"rotation":[
				0.04744604229927063,
				7.387887421828054e-07,
				1.0955379536881082e-07,
				0.998873770236969
			],
			"scale":[
				1,
				0.9999998211860657,
				1
			],
			"translation":[
				0.20305633544921875,
				127.47981262207031,
				0.00024580955505371094
			]
		},
		{
			"children":[
				29
			],
			"name":"mixamorig:RightHandIndex1",
			"rotation":[
				0.028775373473763466,
				-0.0011173704406246543,
				-0.03877091407775879,
				0.9988331198692322
			],
			"scale":[
				1,
				1,
				1.0000001192092896
			],
			"translation":[
				119.94172668457031,
				710.8457641601562,
				5.754420757293701
			]
		},
		{
			"name":"mixamorig:RightHandMiddle4",
			"rotation":[
				2.1944289940734052e-08,
				-6.984919309616089e-10,
				6.51925802230835e-09,
				1
			],
			"scale":[
				1,
				0.9999999403953552,
				1
			],
			"translation":[
				0.0205078125,
				98.2341079711914,
				0.00032913684844970703
			]
		},
		{
			"children":[
				31
			],
			"name":"mixamorig:RightHandMiddle3",
			"rotation":[
				-0.06148780882358551,
				3.127011609649344e-07,
				-3.265808956598448e-08,
				0.9981078505516052
			],
			"scale":[
				0.9999999403953552,
				1,
				1
			],
			"translation":[
				-0.5277481079101562,
				119.15613555908203,
				0.00044415146112442017
			]
		},
		{
			"children":[
				32
			],
			"name":"mixamorig:RightHandMiddle2",
			"rotation":[
				0.12378868460655212,
				-3.097626120052155e-07,
				6.5697869366942996e-09,
				0.9923086166381836
			],
			"scale":[
				0.9999999403953552,
				1,
				1
			],
			"translation":[
				0.5072021484375,
				134.26271057128906,
				-0.00016427040100097656
			]
		},
		{
			"children":[
				33
			],
			"name":"mixamorig:RightHandMiddle1",
			"rotation":[
				-0.029679816216230392,
				0.0011934388894587755,
				-0.04015268757939339,
				0.9987519383430481
			],
			"scale":[
				1,
				1.0000001192092896,
				1
			],
			"translation":[
				3.9364547729492188,
				722.3952026367188,
				-9.692825317382812
			]
		},
		{
			"name":"mixamorig:RightHandRing4",
			"rotation":[
				-1.3271347576448989e-08,
				-4.6566128730773926e-09,
				9.313225746154785e-10,
				1
			],
			"scale":[
				1,
				0.9999999403953552,
				1
			],
			"translation":[
				-0.341644287109375,
				85.92147064208984,
				0.00016629695892333984
			]
		},
		{
			"children":[
				35
			],
			"name":"mixamorig:RightHandRing3",
			"rotation":[
				0.02621186338365078,
				-4.029354272461205e-07,
				2.8880918989671045e-08,
				0.9996564388275146
			],
			"scale":[
				1,
				1.000000238418579,
				1.0000001192092896
			],
			"translation":[
				-0.2083282470703125,
				113.87017822265625,
				-8.344650268554688e-05
			]
		},
		{
			"children":[
				36
			],
			"name":"mixamorig:RightHandRing2",
			"rotation":[
				0.0776713415980339,
				6.658116262769909e-07,
				6.91266990315853e-08,
				0.9969789981842041
			],
			"scale":[
				1.0000001192092896,
				1.0000001192092896,
				0.9999999403953552
			],
			"translation":[
				0.5499038696289062,
				119.53030395507812,
				0.0004062056541442871
			]
		},
		{
			"children":[
				37
			],
			"name":"mixamorig:RightHandRing1",
			"rotation":[
				-0.02948252111673355,
				-0.0015527772484347224,
				0.05256970599293709,
				0.9981807470321655
			],
			"scale":[
				1.0000001192092896,
				0.9999999403953552,
				1.0000001192092896
			],
			"translation":[
				-123.87814331054688,
				682.6295166015625,
				9.00979232788086
			]
		},
		{
			"children":[
				26,
				30,
				34,
				38
			],
			"name":"mixamorig:RightHand",
			"rotation":[
				-0.01537473127245903,
				-0.11795556545257568,
				-0.024918746203184128,
				0.9925870895385742
			],
			"scale":[
				0.9999998807907104,
				1,
				1
			],
			"translation":[
				-4.57763671875e-05,
				1046.2447509765625,
				0.0001316070556640625
			]
		},
		{
			"children":[
				39
			],
			"name":"mixamorig:RightForeArm",
			"rotation":[
				-0.015893809497356415,
				-0.001670488272793591,
				0.10446756333112717,
				0.994399905204773
			],
			"scale":[
				1,
				0.9999998807907104,
				0.9999999403953552
			],
			"translation":[
				7.62939453125e-05,
				984.198974609375,
				0.00028228759765625
			]
		},
		{
			"children":[
				40
			],
			"name":"mixamorig:RightArm",
			"rotation":[
				0.255259245634079,
				0.13555192947387695,
				-0.03616869077086449,
				0.9566400647163391
			],
			"scale":[
				1,
				1.0000001192092896,
				1.0000001192092896
			],
			"translation":[
				4.76837158203125e-06,
				581.5968017578125,
				-1.946091651916504e-05
			]
		},
		{
			"children":[
				41
			],
			"name":"mixamorig:RightShoulder",
			"rotation":[
				0.5876085162162781,
				-0.3948834240436554,
				0.5836336612701416,
				0.3976871967315674
			],
			"translation":[
				-271.6227722167969,
				541.3770751953125,
				1.7960294485092163
			]
		},
		{
			"children":[
				2,
				22,
				42
			],
			"name":"mixamorig:Spine2",
			"rotation":[
				-3.725290076417309e-09,
				-1.6653344045888368e-16,
				-1.7763568394002505e-15,
				1
			],
			"scale":[
				1,
				1,
				1.0000001192092896
			],
			"translation":[
				6.885966286063194e-08,
				579.8104248046875,
				-2.8631886834773468e-06
			]
		},
		{
			"children":[
				43
			],
			"name":"mixamorig:Spine1",
			"rotation":[
				2.7939675018018306e-09,
				1.290116411358617e-16,
				-1.7743760528530963e-15,
				1
			],
			"scale":[
				1,
				1,
				1.0000001192092896
			],
			"translation":[
				-4.406319931149483e-08,
				507.33343505859375,
				1.5733459804323502e-05
			]
		},
		{
			"children":[
				44
			],
			"name":"mixamorig:Spine",
			"rotation":[
				-0.013471193611621857,
				-5.551616725449235e-17,
				-1.7765181991767024e-15,
				0.9999092817306519
			],
			"scale":[
				1,
				0.9999998807907104,
				1
			],
			"translation":[
				-5.343463271856308e-08,
				434.69970703125,
				-11.71504020690918
			]
		},
		{
			"name":"mixamorig:LeftToe_End",
			"rotation":[
				-3.859167918562889e-08,
				-1.458102133256034e-06,
				1.788430381566286e-08,
				1
			],
			"scale":[
				0.9999999403953552,
				1,
				0.9999998807907104
			],
			"translation":[
				-0.00012003257870674133,
				299.65850830078125,
				-1.3947486877441406e-05
			]
		},
		{
			"children":[
				46
			],
			"name":"mixamorig:LeftToeBase",
			"rotation":[
				0.31524574756622314,
				-0.0102348318323493,
				0.003400026122108102,
				0.9489488005638123
			],
			"scale":[
				1.0000001192092896,
				1,
				1.0000001192092896
			],
			"translation":[
				-4.99943271279335e-05,
				670.7346801757812,
				-8.58306884765625e-05
			]
		},
		{
			"children":[
				47
			],
			"name":"mixamorig:LeftFoot",
			"rotation":[
				0.4547949731349945,
				-0.05341212451457977,
				0.027337709441781044,
				0.888572633266449
			],
			"scale":[
				1,
				1.0000001192092896,
				1.0000001192092896
			],
			"translation":[
				-3.977259621024132e-05,
				1704.6817626953125,
				5.219131708145142e-06
			]
		},
		{
			"children":[
				48
			],
			"name":"mixamorig:LeftLeg",
			"rotation":[
				-0.009867940098047256,
				9.15841810638085e-05,
				-0.00928433332592249,
				0.9999082088470459
			],
			"scale":[
				1,
				0.9999999403953552,
				1.0000001192092896
			],
			"translation":[
				2.494174987077713e-05,
				1875.986572265625,
				-3.0878145480528474e-06
			]
		},
		{
			"children":[
				49
			],
			"name":"mixamorig:LeftUpLeg",
			"rotation":[
				0.00010225821461062878,
				0.015037494711577892,
				-0.999863862991333,
				0.006790928076952696
			],
			"scale":[
				1.0000001192092896,
				1.0000003576278687,
				1.000000238418579
			],
			"translation":[
				417.1739196777344,
				-241.4862823486328,
				63.284603118896484
			]
		},
		{
			"name":"mixamorig:RightToe_End",
			"rotation":[
				2.0721925508837558e-08,
				-1.2671807780861855e-06,
				-5.521724233403802e-08,
				1
			],
			"scale":[
				0.9999999403953552,
				1.0000001192092896,
				1.0000001192092896
			],
			"translation":[
				-4.674308001995087e-05,
				294.95135498046875,
				-4.2438507080078125e-05
			]
		},
		{
			"children":[
				51
			],
			"name":"mixamorig:RightToeBase",
			"rotation":[
				0.32104620337486267,
				0.009198859333992004,
				-0.0031185406260192394,
				0.9470137357711792
			],
			"scale":[
				0.9999999403953552,
				0.9999998807907104,
				1
			],
			"translation":[
				4.519149661064148e-05,
				660.2401123046875,
				0.00016021728515625
			]
		},
		{
			"children":[
				52
			],
			"name":"mixamorig:RightFoot",
			"rotation":[
				0.4483179748058319,
				0.055013444274663925,
				-0.027657294645905495,
				0.8917508721351624
			],
			"scale":[
				0.9999998807907104,
				1,
				0.9999999403953552
			],
			"translation":[
				1.7886050045490265e-05,
				1704.5408935546875,
				-1.1749565601348877e-05
			]
		},
		{
			"children":[
				53
			],
			"name":"mixamorig:RightLeg",
			"rotation":[
				-0.00147254450712353,
				-1.3762568414676934e-05,
				0.009280639700591564,
				0.9999558329582214
			],
			"scale":[
				0.9999999403953552,
				1,
				0.9999999403953552
			],
			"translation":[
				-6.286054849624634e-05,
				1877.0535888671875,
				-6.104630301706493e-06
			]
		},
		{
			"children":[
				54
			],
			"name":"mixamorig:RightUpLeg",
			"rotation":[
				0.00015343521954491735,
				-0.02258961834013462,
				0.9997218251228333,
				0.0067861005663871765
			],
			"scale":[
				1,
				1.0000004768371582,
				1.0000009536743164
			],
			"translation":[
				-417.1739196777344,
				-241.48635864257812,
				89.55815124511719
			]
		},
		{
			"children":[
				45,
				50,
				55
			],
			"name":"mixamorig:Hips",
			"rotation":[
				4.095209149568291e-08,
				0,
				0,
				1
			],
			"translation":[
				-0.9200438857078552,
				4249.86181640625,
				27.885913848876953
			]
		},
		{
			"children":[
				56
			],
			"name":"Armature",
			"rotation":[
				0.7071068286895752,
				0,
				0,
				0.7071068286895752
			],
			"scale":[
				0.010000000707805157,
				0.010000000707805157,
				0.010000000707805157
			]
		},
		{
			"mesh":0,
			"name":"Object_7",
			"skin":0
		},
		{
			"children":[
				57,
				58
			],
			"name":"\u30a8\u30f3\u30d7\u30c6\u30a3",
			"rotation":[
				0,
				-1,
				0,
				4.371138828673793e-08
			],
			"scale":[
				0.029999999329447746,
				0.029999999329447746,
				0.029999999329447746
			]
		}
	],
	"animations":[
		{
			"channels":[
				{
					"sampler":0,
					"target":{
						"node":56,
						"path":"translation"
					}
				},
				{
					"sampler":1,
					"target":{
						"node":56,
						"path":"rotation"
					}
				},
				{
					"sampler":2,
					"target":{
						"node":56,
						"path":"scale"
					}
				},
				{
					"sampler":3,
					"target":{
						"node":45,
						"path":"translation"
					}
				},
				{
					"sampler":4,
					"target":{
						"node":45,
						"path":"rotation"
					}
				},
				{
					"sampler":5,
					"target":{
						"node":45,
						"path":"scale"
					}
				},
				{
					"sampler":6,
					"target":{
						"node":44,
						"path":"translation"
					}
				},
				{
					"sampler":7,
					"target":{
						"node":44,
						"path":"rotation"
					}
				},
				{
					"sampler":8,
					"target":{
						"node":44,
						"path":"scale"
					}
				},
				{
					"sampler":9,
					"target":{
						"node":43,
						"path":"translation"
					}
				},
				{
					"sampler":10,
					"target":{
						"node":43,
						"path":"rotation"
					}
				},
				{
					"sampler":11,
					"target":{
						"node":43,
						"path":"scale"
					}
				},
				{
					"sampler":12,
					"target":{
						"node":2,
						"path":"translation"
					}
				},
				{
					"sampler":13,
					"target":{
						"node":2,
						"path":"rotation"
					}
				},
				{
					"sampler":14,
					"target":{
						"node":2,
						"path":"scale"
					}
				},
				{
					"sampler":15,
					"target":{
						"node":1,
						"path":"translation"
					}
				},
				{
					"sampler":16,
					"target":{
						"node":1,
						"path":"rotation"
					}
				},
				{
					"sampler":17,
					"target":{
						"node":1,
						"path":"scale"
					}
				},
				{
					"sampler":18,
					"target":{
						"node":0,
						"path":"translation"
					}
				},
				{
					"sampler":19,
					"target":{
						"node":0,
						"path":"rotation"
					}
				},
				{
					"sampler":20,
					"target":{
						"node":0,
						"path":"scale"
					}
				},
				{
					"sampler":21,
					"target":{
						"node":22,
						"path":"translation"
					}
				},
				{
					"sampler":22,
					"target":{
						"node":22,
						"path":"rotation"
					}
				},
				{
					"sampler":23,
					"target":{
						"node":22,
						"path":"scale"
					}
				},
				{
					"sampler":24,
					"target":{
						"node":21,
						"path":"translation"
					}
				},
				{
					"sampler":25,
					"target":{
						"node":21,
						"path":"rotation"
					}
				},
				{
					"sampler":26,
					"target":{
						"node":21,
						"path":"scale"
					}
				},
				{
					"sampler":27,
					"target":{
						"node":20,
						"path":"translation"
					}
				},
				{
					"sampler":28,
					"target":{
						"node":20,
						"path":"rotation"
					}
				},
				{
					"sampler":29,
					"target":{
						"node":20,
						"path":"scale"
					}
				},
				{
					"sampler":30,
					"target":{
						"node":19,
						"path":"translation"
					}
				},
				{
					"sampler":31,
					"target":{
						"node":19,
						"path":"rotation"
					}
				},
				{
					"sampler":32,
					"target":{
						"node":19,
						"path":"scale"
					}
				},
				{
					"sampler":33,
					"target":{
						"node":6,
						"path":"translation"
					}
				},
				{
					"sampler":34,
					"target":{
						"node":6,
						"path":"rotation"
					}
				},
				{
					"sampler":35,
					"target":{
						"node":6,
						"path":"scale"
					}
				},
				{
					"sampler":36,
					"target":{
						"node":5,
						"path":"translation"
					}
				},
				{
					"sampler":37,
					"target":{
						"node":5,
						"path":"rotation"
					}
				},
				{
					"sampler":38,
					"target":{
						"node":5,
						"path":"scale"
					}
				},
				{
					"sampler":39,
					"target":{
						"node":4,
						"path":"translation"
					}
				},
				{
					"sampler":40,
					"target":{
						"node":4,
						"path":"rotation"
					}
				},
				{
					"sampler":41,
					"target":{
						"node":4,
						"path":"scale"
					}
				},
				{
					"sampler":42,
					"target":{
						"node":3,
						"path":"translation"
					}
				},
				{
					"sampler":43,
					"target":{
						"node":3,
						"path":"rotation"
					}
				},
				{
					"sampler":44,
					"target":{
						"node":3,
						"path":"scale"
					}
				},
				{
					"sampler":45,
					"target":{
						"node":10,
						"path":"translation"
					}
				},
				{
					"sampler":46,
					"target":{
						"node":10,
						"path":"rotation"
					}
				},
				{
					"sampler":47,
					"target":{
						"node":10,
						"path":"scale"
					}
				},
				{
					"sampler":48,
					"target":{
						"node":9,
						"path":"translation"
					}
				},
				{
					"sampler":49,
					"target":{
						"node":9,
						"path":"rotation"
					}
				},
				{
					"sampler":50,
					"target":{
						"node":9,
						"path":"scale"
					}
				},
				{
					"sampler":51,
					"target":{
						"node":8,
						"path":"translation"
					}
				},
				{
					"sampler":52,
					"target":{
						"node":8,
						"path":"rotation"
					}
				},
				{
					"sampler":53,
					"target":{
						"node":8,
						"path":"scale"
					}
				},
				{
					"sampler":54,
					"target":{
						"node":7,
						"path":"translation"
					}
				},
				{
					"sampler":55,
					"target":{
						"node":7,
						"path":"rotation"
					}
				},
				{
					"sampler":56,
					"target":{
						"node":7,
						"path":"scale"
					}
				},
				{
					"sampler":57,
					"target":{
						"node":14,
						"path":"translation"
					}
				},
				{
					"sampler":58,
					"target":{
						"node":14,
						"path":"rotation"
					}
				},
				{
					"sampler":59,
					"target":{
						"node":14,
						"path":"scale"
					}
				},
				{
					"sampler":60,
					"target":{
						"node":13,
						"path":"translation"
					}
				},
				{
					"sampler":61,
					"target":{
						"node":13,
						"path":"rotation"
					}
				},
				{
					"sampler":62,
					"target":{
						"node":13,
						"path":"scale"
					}
				},
				{
					"sampler":63,
					"target":{
						"node":12,
						"path":"translation"
					}
				},
				{
					"sampler":64,
					"target":{
						"node":12,
						"path":"rotation"
					}
				},
				{
					"sampler":65,
					"target":{
						"node":12,
						"path":"scale"
					}
				},
				{
					"sampler":66,
					"target":{
						"node":11,
						"path":"translation"
					}
				},
				{
					"sampler":67,
					"target":{
						"node":11,
						"path":"rotation"
					}
				},
				{
					"sampler":68,
					"target":{
						"node":11,
						"path":"scale"
					}
				},
				{
					"sampler":69,
					"target":{
						"node":18,
						"path":"translation"
					}
				},
				{
					"sampler":70,
					"target":{
						"node":18,
						"path":"rotation"
					}
				},
				{
					"sampler":71,
					"target":{
						"node":18,
						"path":"scale"
					}
				},
				{
					"sampler":72,
					"target":{
						"node":17,
						"path":"translation"
					}
				},
				{
					"sampler":73,
					"target":{
						"node":17,
						"path":"rotation"
					}
				},
				{
					"sampler":74,
					"target":{
						"node":17,
						"path":"scale"
					}
				},
				{
					"sampler":75,
					"target":{
						"node":16,
						"path":"translation"
					}
				},
				{
					"sampler":76,
					"target":{
						"node":16,
						"path":"rotation"
					}
				},
				{
					"sampler":77,
					"target":{
						"node":16,
						"path":"scale"
					}
				},
				{
					"sampler":78,
					"target":{
						"node":15,
						"path":"translation"
					}
				},
				{
					"sampler":79,
					"target":{
						"node":15,
						"path":"rotation"
					}
				},
				{
					"sampler":80,
					"target":{
						"node":15,
						"path":"scale"
					}
				},
				{
					"sampler":81,
					"target":{
						"node":42,
						"path":"translation"
					}
				},
				{
					"sampler":82,
					"target":{
						"node":42,
						"path":"rotation"
					}
				},
				{
					"sampler":83,
					"target":{
						"node":42,
						"path":"scale"
					}
				},
				{
					"sampler":84,
					"target":{
						"node":41,
						"path":"translation"
					}
				},
				{
					"sampler":85,
					"target":{
						"node":41,
						"path":"rotation"
					}
				},
				{
					"sampler":86,
					"target":{
						"node":41,
						"path":"scale"
					}
				},
				{
					"sampler":87,
					"target":{
						"node":40,
						"path":"translation"
					}
				},
				{
					"sampler":88,
					"target":{
						"node":40,
						"path":"rotation"
					}
				},
				{
					"sampler":89,
					"target":{
						"node":40,
						"path":"scale"
					}
				},
				{
					"sampler":90,
					"target":{
						"node":39,
						"path":"translation"
					}
				},
				{
					"sampler":91,
					"target":{
						"node":39,
						"path":"rotation"
					}
				},
				{
					"sampler":92,
					"target":{
						"node":39,
						"path":"scale"
					}
				},
				{
					"sampler":93,
					"target":{
						"node":26,
						"path":"translation"
					}
				},
				{
					"sampler":94,
					"target":{
						"node":26,
						"path":"rotation"
					}
				},
				{
					"sampler":95,
					"target":{
						"node":26,
						"path":"scale"
					}
				},
				{
					"sampler":96,
					"target":{
						"node":25,
						"path":"translation"
					}
				},
				{
					"sampler":97,
					"target":{
						"node":25,
						"path":"rotation"
					}
				},
				{
					"sampler":98,
					"target":{
						"node":25,
						"path":"scale"
					}
				},
				{
					"sampler":99,
					"target":{
						"node":24,
						"path":"translation"
					}
				},
				{
					"sampler":100,
					"target":{
						"node":24,
						"path":"rotation"
					}
				},
				{
					"sampler":101,
					"target":{
						"node":24,
						"path":"scale"
					}
				},
				{
					"sampler":102,
					"target":{
						"node":23,
						"path":"translation"
					}
				},
				{
					"sampler":103,
					"target":{
						"node":23,
						"path":"rotation"
					}
				},
				{
					"sampler":104,
					"target":{
						"node":23,
						"path":"scale"
					}
				},
				{
					"sampler":105,
					"target":{
						"node":30,
						"path":"translation"
					}
				},
				{
					"sampler":106,
					"target":{
						"node":30,
						"path":"rotation"
					}
				},
				{
					"sampler":107,
					"target":{
						"node":30,
						"path":"scale"
					}
				},
				{
					"sampler":108,
					"target":{
						"node":29,
						"path":"translation"
					}
				},
				{
					"sampler":109,
					"target":{
						"node":29,
						"path":"rotation"
					}
				},
				{
					"sampler":110,
					"target":{
						"node":29,
						"path":"scale"
					}
				},
				{
					"sampler":111,
					"target":{
						"node":28,
						"path":"translation"
					}
				},
				{
					"sampler":112,
					"target":{
						"node":28,
						"path":"rotation"
					}
				},
				{
					"sampler":113,
					"target":{
						"node":28,
						"path":"scale"
					}
				},
				{
					"sampler":114,
					"target":{
						"node":27,
						"path":"translation"
					}
				},
				{
					"sampler":115,
					"target":{
						"node":27,
						"path":"rotation"
					}
				},
				{
					"sampler":116,
					"target":{
						"node":27,
						"path":"scale"
					}
				},
				{
					"sampler":117,
					"target":{
						"node":34,
						"path":"translation"
					}
				},
				{
					"sampler":118,
					"target":{
						"node":34,
						"path":"rotation"
					}
				},
				{
					"sampler":119,
					"target":{
						"node":34,
						"path":"scale"
					}
				},
				{
					"sampler":120,
					"target":{
						"node":33,
						"path":"translation"
					}
				},
				{
					"sampler":121,
					"target":{
						"node":33,
						"path":"rotation"
					}
				},
				{
					"sampler":122,
					"target":{
						"node":33,
						"path":"scale"
					}
				},
				{
					"sampler":123,
					"target":{
						"node":32,
						"path":"translation"
					}
				},
				{
					"sampler":124,
					"target":{
						"node":32,
						"path":"rotation"
					}
				},
				{
					"sampler":125,
					"target":{
						"node":32,
						"path":"scale"
					}
				},
				{
					"sampler":126,
					"target":{
						"node":31,
						"path":"translation"
					}
				},
				{
					"sampler":127,
					"target":{
						"node":31,
						"path":"rotation"
					}
				},
				{
					"sampler":128,
					"target":{
						"node":31,
						"path":"scale"
					}
				},
				{
					"sampler":129,
					"target":{
						"node":38,
						"path":"translation"
					}
				},
				{
					"sampler":130,
					"target":{
						"node":38,
						"path":"rotation"
					}
				},
				{
					"sampler":131,
					"target":{
						"node":38,
						"path":"scale"
					}
				},
				{
					"sampler":132,
					"target":{
						"node":37,
						"path":"translation"
					}
				},
				{
					"sampler":133,
					"target":{
						"node":37,
						"path":"rotation"
					}
				},
				{
					"sampler":134,
					"target":{
						"node":37,
						"path":"scale"
					}
				},
				{
					"sampler":135,
					"target":{
						"node":36,
						"path":"translation"
					}
				},
				{
					"sampler":136,
					"target":{
						"node":36,
						"path":"rotation"
					}
				},
				{
					"sampler":137,
					"target":{
						"node":36,
						"path":"scale"
					}
				},
				{
					"sampler":138,
					"target":{
						"node":35,
						"path":"translation"
					}
				},
				{
					"sampler":139,
					"target":{
						"node":35,
						"path":"rotation"
					}
				},
				{
					"sampler":140,
					"target":{
						"node":35,
						"path":"scale"
					}
				},
				{
					"sampler":141,
					"target":{
						"node":50,
						"path":"translation"
					}
				},
				{
					"sampler":142,
					"target":{
						"node":50,
						"path":"rotation"
					}
				},
				{
					"sampler":143,
					"target":{
						"node":50,
						"path":"scale"
					}
				},
				{
					"sampler":144,
					"target":{
						"node":49,
						"path":"translation"
					}
				},
				{
					"sampler":145,
					"target":{
						"node":49,
						"path":"rotation"
					}
				},
				{
					"sampler":146,
					"target":{
						"node":49,
						"path":"scale"
					}
				},
				{
					"sampler":147,
					"target":{
						"node":48,
						"path":"translation"
					}
				},
				{
					"sampler":148,
					"target":{
						"node":48,
						"path":"rotation"
					}
				},
				{
					"sampler":149,
					"target":{
						"node":48,
						"path":"scale"
					}
				},
				{
					"sampler":150,
					"target":{
						"node":47,
						"path":"translation"
					}
				},
				{
					"sampler":151,
					"target":{
						"node":47,
						"path":"rotation"
					}
				},
				{
					"sampler":152,
					"target":{
						"node":47,
						"path":"scale"
					}
				},
				{
					"sampler":153,
					"target":{
						"node":46,
						"path":"translation"
					}
				},
				{
					"sampler":154,
					"target":{
						"node":46,
						"path":"rotation"
					}
				},
				{
					"sampler":155,
					"target":{
						"node":46,
						"path":"scale"
					}
				},
				{
					"sampler":156,
					"target":{
						"node":55,
						"path":"translation"
					}
				},
				{
					"sampler":157,
					"target":{
						"node":55,
						"path":"rotation"
					}
				},
				{
					"sampler":158,
					"target":{
						"node":55,
						"path":"scale"
					}
				},
				{
					"sampler":159,
					"target":{
						"node":54,
						"path":"translation"
					}
				},
				{
					"sampler":160,
					"target":{
						"node":54,
						"path":"rotation"
					}
				},
				{
					"sampler":161,
					"target":{
						"node":54,
						"path":"scale"
					}
				},
				{
					"sampler":162,
					"target":{
						"node":53,
						"path":"translation"
					}
				},
				{
					"sampler":163,
					"target":{
						"node":53,
						"path":"rotation"
					}
				},
				{
					"sampler":164,
					"target":{
						"node":53,
						"path":"scale"
					}
				},
				{
					"sampler":165,
					"target":{
						"node":52,
						"path":"translation"
					}
				},
				{
					"sampler":166,
					"target":{
						"node":52,
						"path":"rotation"
					}
				},
				{
					"sampler":167,
					"target":{
						"node":52,
						"path":"scale"
					}
				},
				{
					"sampler":168,
					"target":{
						"node":51,
						"path":"translation"
					}
				},
				{
					"sampler":169,
					"target":{
						"node":51,
						"path":"rotation"
					}
				},
				{
					"sampler":170,
					"target":{
						"node":51,
						"path":"scale"
					}
				}
			],
			"name":"Armature|mixamo.com|Layer0",
			"samplers":[
				{
					"input":13,
					"interpolation":"LINEAR",
					"output":14
				},
				{
					"input":13,
					"interpolation":"LINEAR",
					"output":15
				},
				{
					"input":16,
					"interpolation":"STEP",
					"output":17
				},
				{
					"input":13,
					"interpolation":"LINEAR",
					"output":18
				},
				{
					"input":13,
					"interpolation":"LINEAR",
					"output":19
				},
				{
					"input":16,
					"interpolation":"LINEAR",
					"output":20
				},
				{
					"input":13,
					"interpolation":"LINEAR",
					"output":21
				},
				{
					"input":13,
					"interpolation":"LINEAR",
					"output":22
				},
				{
					"input":16,
					"interpolation":"LINEAR",
					"output":23
				},
				{
					"input":13,
					"interpolation":"LINEAR",
					"output":24
				},
				{
					"input":13,
					"interpolation":"LINEAR",
					"output":25
				},
				{
					"input":16,
					"interpolation":"LINEAR",
					"output":26
				},
				{
					"input":13,
					"interpolation":"LINEAR",
					"output":27
				},
				{
					"input":13,
					"interpolation":"LINEAR",
					"output":28
				},
				{
					"input":16,
					"interpolation":"STEP",
					"output":29
				},
				{
					"input":13,
					"interpolation":"LINEAR",
					"output":30
				},
				{
					"input":13,
					"interpolation":"LINEAR",
					"output":31
				},
				{
					"input":16,
					"interpolation":"LINEAR",
					"output":32
				},
				{
					"input":13,
					"interpolation":"LINEAR",
					"output":33
				},
				{
					"input":16,
					"interpolation":"STEP",
					"output":34
				},
				{
					"input":16,
					"interpolation":"STEP",
					"output":35
				},
				{
					"input":13,
					"interpolation":"LINEAR",
					"output":36
				},
				{
					"input":13,
					"interpolation":"LINEAR",
					"output":37
				},
				{
					"input":16,
					"interpolation":"LINEAR",
					"output":38
				},
				{
					"input":13,
					"interpolation":"LINEAR",
					"output":39
				},
				{
					"input":13,
					"interpolation":"LINEAR",
					"output":40
				},
				{
					"input":16,
					"interpolation":"STEP",
					"output":41
				},
				{
					"input":13,
					"interpolation":"LINEAR",
					"output":42
				},
				{
					"input":13,
					"interpolation":"LINEAR",
					"output":43
				},
				{
					"input":16,
					"interpolation":"LINEAR",
					"output":44
				},
				{
					"input":13,
					"interpolation":"LINEAR",
					"output":45
				},
				{
					"input":13,
					"interpolation":"LINEAR",
					"output":46
				},
				{
					"input":16,
					"interpolation":"STEP",
					"output":47
				},
				{
					"input":13,
					"interpolation":"LINEAR",
					"output":48
				},
				{
					"input":16,
					"interpolation":"LINEAR",
					"output":49
				},
				{
					"input":16,
					"interpolation":"STEP",
					"output":50
				},
				{
					"input":13,
					"interpolation":"LINEAR",
					"output":51
				},
				{
					"input":16,
					"interpolation":"LINEAR",
					"output":52
				},
				{
					"input":16,
					"interpolation":"LINEAR",
					"output":53
				},
				{
					"input":13,
					"interpolation":"LINEAR",
					"output":54
				},
				{
					"input":16,
					"interpolation":"STEP",
					"output":55
				},
				{
					"input":16,
					"interpolation":"STEP",
					"output":56
				},
				{
					"input":13,
					"interpolation":"LINEAR",
					"output":57
				},
				{
					"input":16,
					"interpolation":"STEP",
					"output":58
				},
				{
					"input":16,
					"interpolation":"STEP",
					"output":59
				},
				{
					"input":13,
					"interpolation":"LINEAR",
					"output":60
				},
				{
					"input":16,
					"interpolation":"LINEAR",
					"output":61
				},
				{
					"input":16,
					"interpolation":"STEP",
					"output":62
				},
				{
					"input":13,
					"interpolation":"LINEAR",
					"output":63
				},
				{
					"input":16,
					"interpolation":"LINEAR",
					"output":64
				},
				{
					"input":16,
					"interpolation":"STEP",
					"output":65
				},
				{
					"input":13,
					"interpolation":"LINEAR",
					"output":66
				},
				{
					"input":16,
					"interpolation":"LINEAR",
					"output":67
				},
				{
					"input":16,
					"interpolation":"STEP",
					"output":68
				},
				{
					"input":13,
					"interpolation":"LINEAR",
					"output":69
				},
				{
					"input":16,
					"interpolation":"STEP",
					"output":70
				},
				{
					"input":16,
					"interpolation":"STEP",
					"output":71
				},
				{
					"input":13,
					"interpolation":"LINEAR",
					"output":72
				},
				{
					"input":16,
					"interpolation":"LINEAR",
					"output":73
				},
				{
					"input":16,
					"interpolation":"LINEAR",
					"output":74
				},
				{
					"input":13,
					"interpolation":"LINEAR",
					"output":75
				},
				{
					"input":16,
					"interpolation":"LINEAR",
					"output":76
				},
				{
					"input":16,
					"interpolation":"LINEAR",
					"output":77
				},
				{
					"input":13,
					"interpolation":"LINEAR",
					"output":78
				},
				{
					"input":16,
					"interpolation":"LINEAR",
					"output":79
				},
				{
					"input":16,
					"interpolation":"LINEAR",
					"output":80
				},
				{
					"input":13,
					"interpolation":"LINEAR",
					"output":81
				},
				{
					"input":16,
					"interpolation":"STEP",
					"output":82
				},
				{
					"input":16,
					"interpolation":"STEP",
					"output":83
				},
				{
					"input":13,
					"interpolation":"LINEAR",
					"output":84
				},
				{
					"input":16,
					"interpolation":"LINEAR",
					"output":85
				},
				{
					"input":16,
					"interpolation":"LINEAR",
					"output":86
				},
				{
					"input":13,
					"interpolation":"LINEAR",
					"output":87
				},
				{
					"input":16,
					"interpolation":"LINEAR",
					"output":88
				},
				{
					"input":16,
					"interpolation":"STEP",
					"output":89
				},
				{
					"input":13,
					"interpolation":"LINEAR",
					"output":90
				},
				{
					"input":16,
					"interpolation":"LINEAR",
					"output":91
				},
				{
					"input":16,
					"interpolation":"LINEAR",
					"output":92
				},
				{
					"input":13,
					"interpolation":"LINEAR",
					"output":93
				},
				{
					"input":16,
					"interpolation":"STEP",
					"output":94
				},
				{
					"input":16,
					"interpolation":"STEP",
					"output":95
				},
				{
					"input":13,
					"interpolation":"LINEAR",
					"output":96
				},
				{
					"input":13,
					"interpolation":"LINEAR",
					"output":97
				},
				{
					"input":16,
					"interpolation":"STEP",
					"output":98
				},
				{
					"input":13,
					"interpolation":"LINEAR",
					"output":99
				},
				{
					"input":13,
					"interpolation":"LINEAR",
					"output":100
				},
				{
					"input":16,
					"interpolation":"STEP",
					"output":101
				},
				{
					"input":13,
					"interpolation":"LINEAR",
					"output":102
				},
				{
					"input":13,
					"interpolation":"LINEAR",
					"output":103
				},
				{
					"input":16,
					"interpolation":"STEP",
					"output":104
				},
				{
					"input":13,
					"interpolation":"LINEAR",
					"output":105
				},
				{
					"input":13,
					"interpolation":"LINEAR",
					"output":106
				},
				{
					"input":16,
					"interpolation":"LINEAR",
					"output":107
				},
				{
					"input":13,
					"interpolation":"LINEAR",
					"output":108
				},
				{
					"input":16,
					"interpolation":"LINEAR",
					"output":109
				},
				{
					"input":16,
					"interpolation":"LINEAR",
					"output":110
				},
				{
					"input":13,
					"interpolation":"LINEAR",
					"output":111
				},
				{
					"input":16,
					"interpolation":"LINEAR",
					"output":112
				},
				{
					"input":16,
					"interpolation":"LINEAR",
					"output":113
				},
				{
					"input":13,
					"interpolation":"LINEAR",
					"output":114
				},
				{
					"input":16,
					"interpolation":"STEP",
					"output":115
				},
				{
					"input":16,
					"interpolation":"STEP",
					"output":116
				},
				{
					"input":13,
					"interpolation":"LINEAR",
					"output":117
				},
				{
					"input":16,
					"interpolation":"STEP",
					"output":118
				},
				{
					"input":16,
					"interpolation":"STEP",
					"output":119
				},
				{
					"input":13,
					"interpolation":"LINEAR",
					"output":120
				},
				{
					"input":16,
					"interpolation":"LINEAR",
					"output":121
				},
				{
					"input":16,
					"interpolation":"LINEAR",
					"output":122
				},
				{
					"input":13,
					"interpolation":"LINEAR",
					"output":123
				},
				{
					"input":16,
					"interpolation":"LINEAR",
					"output":124
				},
				{
					"input":16,
					"interpolation":"STEP",
					"output":125
				},
				{
					"input":13,
					"interpolation":"LINEAR",
					"output":126
				},
				{
					"input":16,
					"interpolation":"LINEAR",
					"output":127
				},
				{
					"input":16,
					"interpolation":"LINEAR",
					"output":128
				},
				{
					"input":13,
					"interpolation":"LINEAR",
					"output":129
				},
				{
					"input":16,
					"interpolation":"STEP",
					"output":130
				},
				{
					"input":16,
					"interpolation":"STEP",
					"output":131
				},
				{
					"input":13,
					"interpolation":"LINEAR",
					"output":132
				},
				{
					"input":16,
					"interpolation":"LINEAR",
					"output":133
				},
				{
					"input":16,
					"interpolation":"LINEAR",
					"output":134
				},
				{
					"input":13,
					"interpolation":"LINEAR",
					"output":135
				},
				{
					"input":16,
					"interpolation":"LINEAR",
					"output":136
				},
				{
					"input":16,
					"interpolation":"LINEAR",
					"output":137
				},
				{
					"input":13,
					"interpolation":"LINEAR",
					"output":138
				},
				{
					"input":16,
					"interpolation":"LINEAR",
					"output":139
				},
				{
					"input":16,
					"interpolation":"STEP",
					"output":140
				},
				{
					"input":13,
					"interpolation":"LINEAR",
					"output":141
				},
				{
					"input":16,
					"interpolation":"STEP",
					"output":142
				},
				{
					"input":16,
					"interpolation":"STEP",
					"output":143
				},
				{
					"input":13,
					"interpolation":"LINEAR",
					"output":144
				},
				{
					"input":16,
					"interpolation":"LINEAR",
					"output":145
				},
				{
					"input":16,
					"interpolation":"LINEAR",
					"output":146
				},
				{
					"input":13,
					"interpolation":"LINEAR",
					"output":147
				},
				{
					"input":16,
					"interpolation":"LINEAR",
					"output":148
				},
				{
					"input":16,
					"interpolation":"LINEAR",
					"output":149
				},
				{
					"input":13,
					"interpolation":"LINEAR",
					"output":150
				},
				{
					"input":16,
					"interpolation":"LINEAR",
					"output":151
				},
				{
					"input":16,
					"interpolation":"STEP",
					"output":152
				},
				{
					"input":13,
					"interpolation":"LINEAR",
					"output":153
				},
				{
					"input":16,
					"interpolation":"STEP",
					"output":154
				},
				{
					"input":16,
					"interpolation":"STEP",
					"output":155
				},
				{
					"input":13,
					"interpolation":"LINEAR",
					"output":156
				},
				{
					"input":13,
					"interpolation":"LINEAR",
					"output":157
				},
				{
					"input":16,
					"interpolation":"STEP",
					"output":158
				},
				{
					"input":13,
					"interpolation":"LINEAR",
					"output":159
				},
				{
					"input":13,
					"interpolation":"LINEAR",
					"output":160
				},
				{
					"input":16,
					"interpolation":"STEP",
					"output":161
				},
				{
					"input":13,
					"interpolation":"LINEAR",
					"output":162
				},
				{
					"input":13,
					"interpolation":"LINEAR",
					"output":163
				},
				{
					"input":16,
					"interpolation":"STEP",
					"output":164
				},
				{
					"input":13,
					"interpolation":"LINEAR",
					"output":165
				},
				{
					"input":13,
					"interpolation":"LINEAR",
					"output":166
				},
				{
					"input":16,
					"interpolation":"LINEAR",
					"output":167
				},
				{
					"input":13,
					"interpolation":"LINEAR",
					"output":168
				},
				{
					"input":16,
					"interpolation":"STEP",
					"output":169
				},
				{
					"input":16,
					"interpolation":"STEP",
					"output":170
				},
				{
					"input":13,
					"interpolation":"LINEAR",
					"output":171
				},
				{
					"input":13,
					"interpolation":"LINEAR",
					"output":172
				},
				{
					"input":16,
					"interpolation":"LINEAR",
					"output":173
				},
				{
					"input":13,
					"interpolation":"LINEAR",
					"output":174
				},
				{
					"input":13,
					"interpolation":"LINEAR",
					"output":175
				},
				{
					"input":16,
					"interpolation":"STEP",
					"output":176
				},
				{
					"input":13,
					"interpolation":"LINEAR",
					"output":177
				},
				{
					"input":13,
					"interpolation":"LINEAR",
					"output":178
				},
				{
					"input":16,
					"interpolation":"LINEAR",
					"output":179
				},
				{
					"input":13,
					"interpolation":"LINEAR",
					"output":180
				},
				{
					"input":13,
					"interpolation":"LINEAR",
					"output":181
				},
				{
					"input":16,
					"interpolation":"LINEAR",
					"output":182
				},
				{
					"input":13,
					"interpolation":"LINEAR",
					"output":183
				},
				{
					"input":16,
					"interpolation":"STEP",
					"output":184
				},
				{
					"input":16,
					"interpolation":"STEP",
					"output":185
				}
			]
		}
	],
	"materials":[
		{
			"doubleSided":true,
			"name":"Material.005",
			"pbrMetallicRoughness":{
				"baseColorTexture":{
					"index":0
				},
				"metallicFactor":0,
				"roughnessFactor":0.5
			}
		},
		{
			"alphaMode":"BLEND",
			"doubleSided":true,
			"name":"Material.006",
			"pbrMetallicRoughness":{
				"baseColorTexture":{
					"index":1
				},
				"metallicFactor":0,
				"roughnessFactor":0.5
			}
		}
	],
	"meshes":[
		{
			"name":"Object_0",
			"primitives":[
				{
					"attributes":{
						"POSITION":0,
						"NORMAL":1,
						"TEXCOORD_0":2,
						"JOINTS_0":3,
						"WEIGHTS_0":4
					},
					"indices":5,
					"material":0
				},
				{
					"attributes":{
						"POSITION":6,
						"NORMAL":7,
						"TEXCOORD_0":8,
						"JOINTS_0":9,
						"WEIGHTS_0":10
					},
					"indices":11,
					"material":1
				}
			]
		}
	],
	"textures":[
		{
			"sampler":0,
			"source":0
		},
		{
			"sampler":0,
			"source":1
		}
	],
	"images":[
		{
			"mimeType":"image/png",
			"name":"Material.005_baseColor",
			"uri":"Material.005_baseColor.png"
		},
		{
			"mimeType":"image/png",
			"name":"Material.006_baseColor",
			"uri":"Material.006_baseColor.png"
		}
	],
	"skins":[
		{
			"inverseBindMatrices":12,
			"joints":[
				56,
				45,
				44,
				43,
				2,
				1,
				0,
				22,
				21,
				20,
				19,
				6,
				5,
				4,
				3,
				10,
				9,
				8,
				7,
				14,
				13,
				12,
				11,
				18,
				17,
				16,
				15,
				42,
				41,
				40,
				39,
				26,
				25,
				24,
				23,
				30,
				29,
				28,
				27,
				34,
				33,
				32,
				31,
				38,
				37,
				36,
				35,
				50,
				49,
				48,
				47,
				46,
				55,
				54,
				53,
				52,
				51
			],
			"name":"Armature"
		}
	],
	"accessors":[
		{
			"bufferView":0,
			"componentType":5126,
			"count":10117,
			"max":[
				0.8323111534118652,
				0.2738119661808014,
				0.024149876087903976
			],
			"min":[
				-0.8317593336105347,
				-0.3029997646808624,
				-2.3223860263824463
			],
			"type":"VEC3"
		},
		{
			"bufferView":1,
			"componentType":5126,
			"count":10117,
			"type":"VEC3"
		},
		{
			"bufferView":2,
			"componentType":5126,
			"count":10117,
			"type":"VEC2"
		},
		{
			"bufferView":3,
			"componentType":5121,
			"count":10117,
			"type":"VEC4"
		},
		{
			"bufferView":4,
			"componentType":5126,
			"count":10117,
			"type":"VEC4"
		},
		{
			"bufferView":5,
			"componentType":5123,
			"count":41202,
			"type":"SCALAR"
		},
		{
			"bufferView":6,
			"componentType":5126,
			"count":172,
			"max":[
				0.13594479858875275,
				-0.06788898259401321,
				-2.1210145950317383
			],
			"min":[
				-0.13992315530776978,
				-0.3180249333381653,
				-2.3244948387145996
			],
			"type":"VEC3"
		},
		{
			"bufferView":7,
			"componentType":5126,
			"count":172,
			"type":"VEC3"
		},
		{
			"bufferView":8,
			"componentType":5126,
			"count":172,
			"type":"VEC2"
		},
		{
			"bufferView":9,
			"componentType":5121,
			"count":172,
			"type":"VEC4"
		},
		{
			"bufferView":10,
			"componentType":5126,
			"count":172,
			"type":"VEC4"
		},
		{
			"bufferView":11,
			"componentType":5123,
			"count":636,
			"type":"SCALAR"
		},
		{
			"bufferView":12,
			"componentType":5126,
			"count":57,
			"type":"MAT4"
		},
		{
			"bufferView":13,
			"componentType":5126,
			"count":119,
			"max":[
				1.9833333333333334
			],
			"min":[
				0.016666666666666666
			],
			"type":"SCALAR"
		},
		{
			"bufferView":14,
			"componentType":5126,
			"count":119,
			"type":"VEC3"
		},
		{
			"bufferView":15,
			"componentType":5126,
			"count":119,
			"type":"VEC4"
		},
		{
			"bufferView":16,
			"componentType":5126,
			"count":2,
			"max":[
				1.9833333333333334
			],
			"min":[
				0.016666666666666666
			],
			"type":"SCALAR"
		},
		{
			"bufferView":17,
			"componentType":5126,
			"count":2,
			"type":"VEC3"
		},
		{
			"bufferView":18,
			"componentType":5126,
			"count":119,
			"type":"VEC3"
		},
		{
			"bufferView":19,
			"componentType":5126,
			"count":119,
			"type":"VEC4"
		},
		{
			"bufferView":20,
			"componentType":5126,
			"count":2,
			"type":"VEC3"
		},
		{
			"bufferView":21,
			"componentType":5126,
			"count":119,
			"type":"VEC3"
		},
		{
			"bufferView":22,
			"componentType":5126,
			"count":119,
			"type":"VEC4"
		},
		{
			"bufferView":23,
			"componentType":5126,
			"count":2,
			"type":"VEC3"
		},
		{
			"bufferView":24,
			"componentType":5126,
			"count":119,
			"type":"VEC3"
		},
		{
			"bufferView":25,
			"componentType":5126,
			"count":119,
			"type":"VEC4"
		},
		{
			"bufferView":26,
			"componentType":5126,
			"count":2,
			"type":"VEC3"
		},
		{
			"bufferView":27,
			"componentType":5126,
			"count":119,
			"type":"VEC3"
		},
		{
			"bufferView":28,
			"componentType":5126,
			"count":119,
			"type":"VEC4"
		},
		{
			"bufferView":29,
			"componentType":5126,
			"count":2,
			"type":"VEC3"
		},
		{
			"bufferView":30,
			"componentType":5126,
			"count":119,
			"type":"VEC3"
		},
		{
			"bufferView":31,
			"componentType":5126,
			"count":119,
			"type":"VEC4"
		},
		{
			"bufferView":32,
			"componentType":5126,
			"count":2,
			"type":"VEC3"
		},
		{
			"bufferView":33,
			"componentType":5126,
			"count":119,
			"type":"VEC3"
		},
		{
			"bufferView":34,
			"componentType":5126,
			"count":2,
			"type":"VEC4"
		},
		{
			"bufferView":35,
			"componentType":5126,
			"count":2,
			"type":"VEC3"
		},
		{
			"bufferView":36,
			"componentType":5126,
			"count":119,
			"type":"VEC3"
		},
		{
			"bufferView":37,
			"componentType":5126,
			"count":119,
			"type":"VEC4"
		},
		{
			"bufferView":38,
			"componentType":5126,
			"count":2,
			"type":"VEC3"
		},
		{
			"bufferView":39,
			"componentType":5126,
			"count":119,
			"type":"VEC3"
		},
		{
			"bufferView":40,
			"componentType":5126,
			"count":119,
			"type":"VEC4"
		},
		{
			"bufferView":41,
			"componentType":5126,
			"count":2,
			"type":"VEC3"
		},
		{
			"bufferView":42,
			"componentType":5126,
			"count":119,
			"type":"VEC3"
		},
		{
			"bufferView":43,
			"componentType":5126,
			"count":119,
			"type":"VEC4"
		},
		{
			"bufferView":44,
			"componentType":5126,
			"count":2,
			"type":"VEC3"
		},
		{
			"bufferView":45,
			"componentType":5126,
			"count":119,
			"type":"VEC3"
		},
		{
			"bufferView":46,
			"componentType":5126,
			"count":119,
			"type":"VEC4"
		},
		{
			"bufferView":47,
			"componentType":5126,
			"count":2,
			"type":"VEC3"
		},
		{
			"bufferView":48,
			"componentType":5126,
			"count":119,
			"type":"VEC3"
		},
		{
			"bufferView":49,
			"componentType":5126,
			"count":2,
			"type":"VEC4"
		},
		{
			"bufferView":50,
			"componentType":5126,
			"count":2,
			"type":"VEC3"
		},
		{
			"bufferView":51,
			"componentType":5126,
			"count":119,
			"type":"VEC3"
		},
		{
			"bufferView":52,
			"componentType":5126,
			"count":2,
			"type":"VEC4"
		},
		{
			"bufferView":53,
			"componentType":5126,
			"count":2,
			"type":"VEC3"
		},
		{
			"bufferView":54,
			"componentType":5126,
			"count":119,
			"type":"VEC3"
		},
		{
			"bufferView":55,
			"componentType":5126,
			"count":2,
			"type":"VEC4"
		},
		{
			"bufferView":56,
			"componentType":5126,
			"count":2,
			"type":"VEC3"
		},
		{
			"bufferView":57,
			"componentType":5126,
			"count":119,
			"type":"VEC3"
		},
		{
			"bufferView":58,
			"componentType":5126,
			"count":2,
			"type":"VEC4"
		},
		{
			"bufferView":59,
			"componentType":5126,
			"count":2,
			"type":"VEC3"
		},
		{
			"bufferView":60,
			"componentType":5126,
			"count":119,
			"type":"VEC3"
		},
		{
			"bufferView":61,
			"componentType":5126,
			"count":2,
			"type":"VEC4"
		},
		{
			"bufferView":62,
			"componentType":5126,
			"count":2,
			"type":"VEC3"
		},
		{
			"bufferView":63,
			"componentType":5126,
			"count":119,
			"type":"VEC3"
		},
		{
			"bufferView":64,
			"componentType":5126,
			"count":2,
			"type":"VEC4"
		},
		{
			"bufferView":65,
			"componentType":5126,
			"count":2,
			"type":"VEC3"
		},
		{
			"bufferView":66,
			"componentType":5126,
			"count":119,
			"type":"VEC3"
		},
		{
			"bufferView":67,
			"componentType":5126,
			"count":2,
			"type":"VEC4"
		},
		{
			"bufferView":68,
			"componentType":5126,
			"count":2,
			"type":"VEC3"
		},
		{
			"bufferView":69,
			"componentType":5126,
			"count":119,
			"type":"VEC3"
		},
		{
			"bufferView":70,
			"componentType":5126,
			"count":2,
			"type":"VEC4"
		},
		{
			"bufferView":71,
			"componentType":5126,
			"count":2,
			"type":"VEC3"
		},
		{
			"bufferView":72,
			"componentType":5126,
			"count":119,
			"type":"VEC3"
		},
		{
			"bufferView":73,
			"componentType":5126,
			"count":2,
			"type":"VEC4"
		},
		{
			"bufferView":74,
			"componentType":5126,
			"count":2,
			"type":"VEC3"
		},
		{
			"bufferView":75,
			"componentType":5126,
			"count":119,
			"type":"VEC3"
		},
		{
			"bufferView":76,
			"componentType":5126,
			"count":2,
			"type":"VEC4"
		},
		{
			"bufferView":77,
			"componentType":5126,
			"count":2,
			"type":"VEC3"
		},
		{
			"bufferView":78,
			"componentType":5126,
			"count":119,
			"type":"VEC3"
		},
		{
			"bufferView":79,
			"componentType":5126,
			"count":2,
			"type":"VEC4"
		},
		{
			"bufferView":80,
			"componentType":5126,
			"count":2,
			"type":"VEC3"
		},
		{
			"bufferView":81,
			"componentType":5126,
			"count":119,
			"type":"VEC3"
		},
		{
			"bufferView":82,
			"componentType":5126,
			"count":2,
			"type":"VEC4"
		},
		{
			"bufferView":83,
			"componentType":5126,
			"count":2,
			"type":"VEC3"
		},
		{
			"bufferView":84,
			"componentType":5126,
			"count":119,
			"type":"VEC3"
		},
		{
			"bufferView":85,
			"componentType":5126,
			"count":2,
			"type":"VEC4"
		},
		{
			"bufferView":86,
			"componentType":5126,
			"count":2,
			"type":"VEC3"
		},
		{
			"bufferView":87,
			"componentType":5126,
			"count":119,
			"type":"VEC3"
		},
		{
			"bufferView":88,
			"componentType":5126,
			"count":2,
			"type":"VEC4"
		},
		{
			"bufferView":89,
			"componentType":5126,
			"count":2,
			"type":"VEC3"
		},
		{
			"bufferView":90,
			"componentType":5126,
			"count":119,
			"type":"VEC3"
		},
		{
			"bufferView":91,
			"componentType":5126,
			"count":2,
			"type":"VEC4"
		},
		{
			"bufferView":92,
			"componentType":5126,
			"count":2,
			"type":"VEC3"
		},
		{
			"bufferView":93,
			"componentType":5126,
			"count":119,
			"type":"VEC3"
		},
		{
			"bufferView":94,
			"componentType":5126,
			"count":2,
			"type":"VEC4"
		},
		{
			"bufferView":95,
			"componentType":5126,
			"count":2,
			"type":"VEC3"
		},
		{
			"bufferView":96,
			"componentType":5126,
			"count":119,
			"type":"VEC3"
		},
		{
			"bufferView":97,
			"componentType":5126,
			"count":119,
			"type":"VEC4"
		},
		{
			"bufferView":98,
			"componentType":5126,
			"count":2,
			"type":"VEC3"
		},
		{
			"bufferView":99,
			"componentType":5126,
			"count":119,
			"type":"VEC3"
		},
		{
			"bufferView":100,
			"componentType":5126,
			"count":119,
			"type":"VEC4"
		},
		{
			"bufferView":101,
			"componentType":5126,
			"count":2,
			"type":"VEC3"
		},
		{
			"bufferView":102,
			"componentType":5126,
			"count":119,
			"type":"VEC3"
		},
		{
			"bufferView":103,
			"componentType":5126,
			"count":119,
			"type":"VEC4"
		},
		{
			"bufferView":104,
			"componentType":5126,
			"count":2,
			"type":"VEC3"
		},
		{
			"bufferView":105,
			"componentType":5126,
			"count":119,
			"type":"VEC3"
		},
		{
			"bufferView":106,
			"componentType":5126,
			"count":119,
			"type":"VEC4"
		},
		{
			"bufferView":107,
			"componentType":5126,
			"count":2,
			"type":"VEC3"
		},
		{
			"bufferView":108,
			"componentType":5126,
			"count":119,
			"type":"VEC3"
		},
		{
			"bufferView":109,
			"componentType":5126,
			"count":2,
			"type":"VEC4"
		},
		{
			"bufferView":110,
			"componentType":5126,
			"count":2,
			"type":"VEC3"
		},
		{
			"bufferView":111,
			"componentType":5126,
			"count":119,
			"type":"VEC3"
		},
		{
			"bufferView":112,
			"componentType":5126,
			"count":2,
			"type":"VEC4"
		},
		{
			"bufferView":113,
			"componentType":5126,
			"count":2,
			"type":"VEC3"
		},
		{
			"bufferView":114,
			"componentType":5126,
			"count":119,
			"type":"VEC3"
		},
		{
			"bufferView":115,
			"componentType":5126,
			"count":2,
			"type":"VEC4"
		},
		{
			"bufferView":116,
			"componentType":5126,
			"count":2,
			"type":"VEC3"
		},
		{
			"bufferView":117,
			"componentType":5126,
			"count":119,
			"type":"VEC3"
		},
		{
			"bufferView":118,
			"componentType":5126,
			"count":2,
			"type":"VEC4"
		},
		{
			"bufferView":119,
			"componentType":5126,
			"count":2,
			"type":"VEC3"
		},
		{
			"bufferView":120,
			"componentType":5126,
			"count":119,
			"type":"VEC3"
		},
		{
			"bufferView":121,
			"componentType":5126,
			"count":2,
			"type":"VEC4"
		},
		{
			"bufferView":122,
			"componentType":5126,
			"count":2,
			"type":"VEC3"
		},
		{
			"bufferView":123,
			"componentType":5126,
			"count":119,
			"type":"VEC3"
		},
		{
			"bufferView":124,
			"componentType":5126,
			"count":2,
			"type":"VEC4"
		},
		{
			"bufferView":125,
			"componentType":5126,
			"count":2,
			"type":"VEC3"
		},
		{
			"bufferView":126,
			"componentType":5126,
			"count":119,
			"type":"VEC3"
		},
		{
			"bufferView":127,
			"componentType":5126,
			"count":2,
			"type":"VEC4"
		},
		{
			"bufferView":128,
			"componentType":5126,
			"count":2,
			"type":"VEC3"
		},
		{
			"bufferView":129,
			"componentType":5126,
			"count":119,
			"type":"VEC3"
		},
		{
			"bufferView":130,
			"componentType":5126,
			"count":2,
			"type":"VEC4"
		},
		{
			"bufferView":131,
			"componentType":5126,
			"count":2,
			"type":"VEC3"
		},
		{
			"bufferView":132,
			"componentType":5126,
			"count":119,
			"type":"VEC3"
		},
		{
			"bufferView":133,
			"componentType":5126,
			"count":2,
			"type":"VEC4"
		},
		{
			"bufferView":134,
			"componentType":5126,
			"count":2,
			"type":"VEC3"
		},
		{
			"bufferView":135,
			"componentType":5126,
			"count":119,
			"type":"VEC3"
		},
		{
			"bufferView":136,
			"componentType":5126,
			"count":2,
			"type":"VEC4"
		},
		{
			"bufferView":137,
			"componentType":5126,
			"count":2,
			"type":"VEC3"
		},
		{
			"bufferView":138,
			"componentType":5126,
			"count":119,
			"type":"VEC3"
		},
		{
			"bufferView":139,
			"componentType":5126,
			"count":2,
			"type":"VEC4"
		},
		{
			"bufferView":140,
			"componentType":5126,
			"count":2,
			"type":"VEC3"
		},
		{
			"bufferView":141,
			"componentType":5126,
			"count":119,
			"type":"VEC3"
		},
		{
			"bufferView":142,
			"componentType":5126,
			"count":2,
			"type":"VEC4"
		},
		{
			"bufferView":143,
			"componentType":5126,
			"count":2,
			"type":"VEC3"
		},
		{
			"bufferView":144,
			"componentType":5126,
			"count":119,
			"type":"VEC3"
		},
		{
			"bufferView":145,
			"componentType":5126,
			"count":2,
			"type":"VEC4"
		},
		{
			"bufferView":146,
			"componentType":5126,
			"count":2,
			"type":"VEC3"
		},
		{
			"bufferView":147,
			"componentType":5126,
			"count":119,
			"type":"VEC3"
		},
		{
			"bufferView":148,
			"componentType":5126,
			"count":2,
			"type":"VEC4"
		},
		{
			"bufferView":149,
			"componentType":5126,
			"count":2,
			"type":"VEC3"
		},
		{
			"bufferView":150,
			"componentType":5126,
			"count":119,
			"type":"VEC3"
		},
		{
			"bufferView":151,
			"componentType":5126,
			"count":2,
			"type":"VEC4"
		},
		{
			"bufferView":152,
			"componentType":5126,
			"count":2,
			"type":"VEC3"
		},
		{
			"bufferView":153,
			"componentType":5126,
			"count":119,
			"type":"VEC3"
		},
		{
			"bufferView":154,
			"componentType":5126,
			"count":2,
			"type":"VEC4"
		},
		{
			"bufferView":155,
			"componentType":5126,
			"count":2,
			"type":"VEC3"
		},
		{
			"bufferView":156,
			"componentType":5126,
			"count":119,
			"type":"VEC3"
		},
		{
			"bufferView":157,
			"componentType":5126,
			"count":119,
			"type":"VEC4"
		},
		{
			"bufferView":158,
			"componentType":5126,
			"count":2,
			"type":"VEC3"
		},
		{
			"bufferView":159,
			"componentType":5126,
			"count":119,
			"type":"VEC3"
		},
		{
			"bufferView":160,
			"componentType":5126,
			"count":119,
			"type":"VEC4"
		},
		{
			"bufferView":161,
			"componentType":5126,
			"count":2,
			"type":"VEC3"
		},
		{
			"bufferView":162,
			"componentType":5126,
			"count":119,
			"type":"VEC3"
		},
		{
			"bufferView":163,
			"componentType":5126,
			"count":119,
			"type":"VEC4"
		},
		{
			"bufferView":164,
			"componentType":5126,
			"count":2,
			"type":"VEC3"
		},
		{
			"bufferView":165,
			"componentType":5126,
			"count":119,
			"type":"VEC3"
		},
		{
			"bufferView":166,
			"componentType":5126,
			"count":119,
			"type":"VEC4"
		},
		{
			"bufferView":167,
			"componentType":5126,
			"count":2,
			"type":"VEC3"
		},
		{
			"bufferView":168,
			"componentType":5126,
			"count":119,
			"type":"VEC3"
		},
		{
			"bufferView":169,
			"componentType":5126,
			"count":2,
			"type":"VEC4"
		},
		{
			"bufferView":170,
			"componentType":5126,
			"count":2,
			"type":"VEC3"
		},
		{
			"bufferView":171,
			"componentType":5126,
			"count":119,
			"type":"VEC3"
		},
		{
			"bufferView":172,
			"componentType":5126,
			"count":119,
			"type":"VEC4"
		},
		{
			"bufferView":173,
			"componentType":5126,
			"count":2,
			"type":"VEC3"
		},
		{
			"bufferView":174,
			"componentType":5126,
			"count":119,
			"type":"VEC3"
		},
		{
			"bufferView":175,
			"componentType":5126,
			"count":119,
			"type":"VEC4"
		},
		{
			"bufferView":176,
			"componentType":5126,
			"count":2,
			"type":"VEC3"
		},
		{
			"bufferView":177,
			"componentType":5126,
			"count":119,
			"type":"VEC3"
		},
		{
			"bufferView":178,
			"componentType":5126,
			"count":119,
			"type":"VEC4"
		},
		{
			"bufferView":179,
			"componentType":5126,
			"count":2,
			"type":"VEC3"
		},
		{
			"bufferView":180,
			"componentType":5126,
			"count":119,
			"type":"VEC3"
		},
		{
			"bufferView":181,
			"componentType":5126,
			"count":119,
			"type":"VEC4"
		},
		{
			"bufferView":182,
			"componentType":5126,
			"count":2,
			"type":"VEC3"
		},
		{
			"bufferView":183,
			"componentType":5126,
			"count":119,
			"type":"VEC3"
		},
		{
			"bufferView":184,
			"componentType":5126,
			"count":2,
			"type":"VEC4"
		},
		{
			"bufferView":185,
			"componentType":5126,
			"count":2,
			"type":"VEC3"
		}
	],
	"bufferViews":[
		{
			"buffer":0,
			"byteLength":121404,
			"byteOffset":0,
			"target":34962
		},
		{
			"buffer":0,
			"byteLength":121404,
			"byteOffset":121404,
			"target":34962
		},
		{
			"buffer":0,
			"byteLength":80936,
			"byteOffset":242808,
			"target":34962
		},
		{
			"buffer":0,
			"byteLength":40468,
			"byteOffset":323744,
			"target":34962
		},
		{
			"buffer":0,
			"byteLength":161872,
			"byteOffset":364212,
			"target":34962
		},
		{
			"buffer":0,
			"byteLength":82404,
			"byteOffset":526084,
			"target":34963
		},
		{
			"buffer":0,
			"byteLength":2064,
			"byteOffset":608488,
			"target":34962
		},
		{
			"buffer":0,
			"byteLength":2064,
			"byteOffset":610552,
			"target":34962
		},
		{
			"buffer":0,
			"byteLength":1376,
			"byteOffset":612616,
			"target":34962
		},
		{
			"buffer":0,
			"byteLength":688,
			"byteOffset":613992,
			"target":34962
		},
		{
			"buffer":0,
			"byteLength":2752,
			"byteOffset":614680,
			"target":34962
		},
		{
			"buffer":0,
			"byteLength":1272,
			"byteOffset":617432,
			"target":34963
		},
		{
			"buffer":0,
			"byteLength":3648,
			"byteOffset":618704
		},
		{
			"buffer":0,
			"byteLength":476,
			"byteOffset":622352
		},
		{
			"buffer":0,
			"byteLength":1428,
			"byteOffset":622828
		},
		{
			"buffer":0,
			"byteLength":1904,
			"byteOffset":624256
		},
		{
			"buffer":0,
			"byteLength":8,
			"byteOffset":626160
		},
		{
			"buffer":0,
			"byteLength":24,
			"byteOffset":626168
		},
		{
			"buffer":0,
			"byteLength":1428,
			"byteOffset":626192
		},
		{
			"buffer":0,
			"byteLength":1904,
			"byteOffset":627620
		},
		{
			"buffer":0,
			"byteLength":24,
			"byteOffset":629524
		},
		{
			"buffer":0,
			"byteLength":1428,
			"byteOffset":629548
		},
		{
			"buffer":0,
			"byteLength":1904,
			"byteOffset":630976
		},
		{
			"buffer":0,
			"byteLength":24,
			"byteOffset":632880
		},
		{
			"buffer":0,
			"byteLength":1428,
			"byteOffset":632904
		},
		{
			"buffer":0,
			"byteLength":1904,
			"byteOffset":634332
		},
		{
			"buffer":0,
			"byteLength":24,
			"byteOffset":636236
		},
		{
			"buffer":0,
			"byteLength":1428,
			"byteOffset":636260
		},
		{
			"buffer":0,
			"byteLength":1904,
			"byteOffset":637688
		},
		{
			"buffer":0,
			"byteLength":24,
			"byteOffset":639592
		},
		{
			"buffer":0,
			"byteLength":1428,
			"byteOffset":639616
		},
		{
			"buffer":0,
			"byteLength":1904,
			"byteOffset":641044
		},
		{
			"buffer":0,
			"byteLength":24,
			"byteOffset":642948
		},
		{
			"buffer":0,
			"byteLength":1428,
			"byteOffset":642972
		},
		{
			"buffer":0,
			"byteLength":32,
			"byteOffset":644400
		},
		{
			"buffer":0,
			"byteLength":24,
			"byteOffset":644432
		},
		{
			"buffer":0,
			"byteLength":1428,
			"byteOffset":644456
		},
		{
			"buffer":0,
			"byteLength":1904,
			"byteOffset":645884
		},
		{
			"buffer":0,
			"byteLength":24,
			"byteOffset":647788
		},
		{
			"buffer":0,
			"byteLength":1428,
			"byteOffset":647812
		},
		{
			"buffer":0,
			"byteLength":1904,
			"byteOffset":649240
		},
		{
			"buffer":0,
			"byteLength":24,
			"byteOffset":651144
		},
		{
			"buffer":0,
			"byteLength":1428,
			"byteOffset":651168
		},
		{
			"buffer":0,
			"byteLength":1904,
			"byteOffset":652596
		},
		{
			"buffer":0,
			"byteLength":24,
			"byteOffset":654500
		},
		{
			"buffer":0,
			"byteLength":1428,
			"byteOffset":654524
		},
		{
			"buffer":0,
			"byteLength":1904,
			"byteOffset":655952
		},
		{
			"buffer":0,
			"byteLength":24,
			"byteOffset":657856
		},
		{
			"buffer":0,
			"byteLength":1428,
			"byteOffset":657880
		},
		{
			"buffer":0,
			"byteLength":32,
			"byteOffset":659308
		},
		{
			"buffer":0,
			"byteLength":24,
			"byteOffset":659340
		},
		{
			"buffer":0,
			"byteLength":1428,
			"byteOffset":659364
		},
		{
			"buffer":0,
			"byteLength":32,
			"byteOffset":660792
		},
		{
			"buffer":0,
			"byteLength":24,
			"byteOffset":660824
		},
		{
			"buffer":0,
			"byteLength":1428,
			"byteOffset":660848
		},
		{
			"buffer":0,
			"byteLength":32,
			"byteOffset":662276
		},
		{
			"buffer":0,
			"byteLength":24,
			"byteOffset":662308
		},
		{
			"buffer":0,
			"byteLength":1428,
			"byteOffset":662332
		},
		{
			"buffer":0,
			"byteLength":32,
			"byteOffset":663760
		},
		{
			"buffer":0,
			"byteLength":24,
			"byteOffset":663792
		},
		{
			"buffer":0,
			"byteLength":1428,
			"byteOffset":663816
		},
		{
			"buffer":0,
			"byteLength":32,
			"byteOffset":665244
		},
		{
			"buffer":0,
			"byteLength":24,
			"byteOffset":665276
		},
		{
			"buffer":0,
			"byteLength":1428,
			"byteOffset":665300
		},
		{
			"buffer":0,
			"byteLength":32,
			"byteOffset":666728
		},
		{
			"buffer":0,
			"byteLength":24,
			"byteOffset":666760
		},
		{
			"buffer":0,
			"byteLength":1428,
			"byteOffset":666784
		},
		{
			"buffer":0,
			"byteLength":32,
			"byteOffset":668212
		},
		{
			"buffer":0,
			"byteLength":24,
			"byteOffset":668244
		},
		{
			"buffer":0,
			"byteLength":1428,
			"byteOffset":668268
		},
		{
			"buffer":0,
			"byteLength":32,
			"byteOffset":669696
		},
		{
			"buffer":0,
			"byteLength":24,
			"byteOffset":669728
		},
		{
			"buffer":0,
			"byteLength":1428,
			"byteOffset":669752
		},
		{
			"buffer":0,
			"byteLength":32,
			"byteOffset":671180
		},
		{
			"buffer":0,
			"byteLength":24,
			"byteOffset":671212
		},
		{
			"buffer":0,
			"byteLength":1428,
			"byteOffset":671236
		},
		{
			"buffer":0,
			"byteLength":32,
			"byteOffset":672664
		},
		{
			"buffer":0,
			"byteLength":24,
			"byteOffset":672696
		},
		{
			"buffer":0,
			"byteLength":1428,
			"byteOffset":672720
		},
		{
			"buffer":0,
			"byteLength":32,
			"byteOffset":674148
		},
		{
			"buffer":0,
			"byteLength":24,
			"byteOffset":674180
		},
		{
			"buffer":0,
			"byteLength":1428,
			"byteOffset":674204
		},
		{
			"buffer":0,
			"byteLength":32,
			"byteOffset":675632
		},
		{
			"buffer":0,
			"byteLength":24,
			"byteOffset":675664
		},
		{
			"buffer":0,
			"byteLength":1428,
			"byteOffset":675688
		},
		{
			"buffer":0,
			"byteLength":32,
			"byteOffset":677116
		},
		{
			"buffer":0,
			"byteLength":24,
			"byteOffset":677148
		},
		{
			"buffer":0,
			"byteLength":1428,
			"byteOffset":677172
		},
		{
			"buffer":0,
			"byteLength":32,
			"byteOffset":678600
		},
		{
			"buffer":0,
			"byteLength":24,
			"byteOffset":678632
		},
		{
			"buffer":0,
			"byteLength":1428,
			"byteOffset":678656
		},
		{
			"buffer":0,
			"byteLength":32,
			"byteOffset":680084
		},
		{
			"buffer":0,
			"byteLength":24,
			"byteOffset":680116
		},
		{
			"buffer":0,
			"byteLength":1428,
			"byteOffset":680140
		},
		{
			"buffer":0,
			"byteLength":32,
			"byteOffset":681568
		},
		{
			"buffer":0,
			"byteLength":24,
			"byteOffset":681600
		},
		{
			"buffer":0,
			"byteLength":1428,
			"byteOffset":681624
		},
		{
			"buffer":0,
			"byteLength":1904,
			"byteOffset":683052
		},
		{
			"buffer":0,
			"byteLength":24,
			"byteOffset":684956
		},
		{
			"buffer":0,
			"byteLength":1428,
			"byteOffset":684980
		},
		{
			"buffer":0,
			"byteLength":1904,
			"byteOffset":686408
		},
		{
			"buffer":0,
			"byteLength":24,
			"byteOffset":688312
		},
		{
			"buffer":0,
			"byteLength":1428,
			"byteOffset":688336
		},
		{
			"buffer":0,
			"byteLength":1904,
			"byteOffset":689764
		},
		{
			"buffer":0,
			"byteLength":24,
			"byteOffset":691668
		},
		{
			"buffer":0,
			"byteLength":1428,
			"byteOffset":691692
		},
		{
			"buffer":0,
			"byteLength":1904,
			"byteOffset":693120
		},
		{
			"buffer":0,
			"byteLength":24,
			"byteOffset":695024
		},
		{
			"buffer":0,
			"byteLength":1428,
			"byteOffset":695048
		},
		{
			"buffer":0,
			"byteLength":32,
			"byteOffset":696476
		},
		{
			"buffer":0,
			"byteLength":24,
			"byteOffset":696508
		},
		{
			"buffer":0,
			"byteLength":1428,
			"byteOffset":696532
		},
		{
			"buffer":0,
			"byteLength":32,
			"byteOffset":697960
		},
		{
			"buffer":0,
			"byteLength":24,
			"byteOffset":697992
		},
		{
			"buffer":0,
			"byteLength":1428,
			"byteOffset":698016
		},
		{
			"buffer":0,
			"byteLength":32,
			"byteOffset":699444
		},
		{
			"buffer":0,
			"byteLength":24,
			"byteOffset":699476
		},
		{
			"buffer":0,
			"byteLength":1428,
			"byteOffset":699500
		},
		{
			"buffer":0,
			"byteLength":32,
			"byteOffset":700928
		},
		{
			"buffer":0,
			"byteLength":24,
			"byteOffset":700960
		},
		{
			"buffer":0,
			"byteLength":1428,
			"byteOffset":700984
		},
		{
			"buffer":0,
			"byteLength":32,
			"byteOffset":702412
		},
		{
			"buffer":0,
			"byteLength":24,
			"byteOffset":702444
		},
		{
			"buffer":0,
			"byteLength":1428,
			"byteOffset":702468
		},
		{
			"buffer":0,
			"byteLength":32,
			"byteOffset":703896
		},
		{
			"buffer":0,
			"byteLength":24,
			"byteOffset":703928
		},
		{
			"buffer":0,
			"byteLength":1428,
			"byteOffset":703952
		},
		{
			"buffer":0,
			"byteLength":32,
			"byteOffset":705380
		},
		{
			"buffer":0,
			"byteLength":24,
			"byteOffset":705412
		},
		{
			"buffer":0,
			"byteLength":1428,
			"byteOffset":705436
		},
		{
			"buffer":0,
			"byteLength":32,
			"byteOffset":706864
		},
		{
			"buffer":0,
			"byteLength":24,
			"byteOffset":706896
		},
		{
			"buffer":0,
			"byteLength":1428,
			"byteOffset":706920
		},
		{
			"buffer":0,
			"byteLength":32,
			"byteOffset":708348
		},
		{
			"buffer":0,
			"byteLength":24,
			"byteOffset":708380
		},
		{
			"buffer":0,
			"byteLength":1428,
			"byteOffset":708404
		},
		{
			"buffer":0,
			"byteLength":32,
			"byteOffset":709832
		},
		{
			"buffer":0,
			"byteLength":24,
			"byteOffset":709864
		},
		{
			"buffer":0,
			"byteLength":1428,
			"byteOffset":709888
		},
		{
			"buffer":0,
			"byteLength":32,
			"byteOffset":711316
		},
		{
			"buffer":0,
			"byteLength":24,
			"byteOffset":711348
		},
		{
			"buffer":0,
			"byteLength":1428,
			"byteOffset":711372
		},
		{
			"buffer":0,
			"byteLength":32,
			"byteOffset":712800
		},
		{
			"buffer":0,
			"byteLength":24,
			"byteOffset":712832
		},
		{
			"buffer":0,
			"byteLength":1428,
			"byteOffset":712856
		},
		{
			"buffer":0,
			"byteLength":32,
			"byteOffset":714284
		},
		{
			"buffer":0,
			"byteLength":24,
			"byteOffset":714316
		},
		{
			"buffer":0,
			"byteLength":1428,
			"byteOffset":714340
		},
		{
			"buffer":0,
			"byteLength":32,
			"byteOffset":715768
		},
		{
			"buffer":0,
			"byteLength":24,
			"byteOffset":715800
		},
		{
			"buffer":0,
			"byteLength":1428,
			"byteOffset":715824
		},
		{
			"buffer":0,
			"byteLength":32,
			"byteOffset":717252
		},
		{
			"buffer":0,
			"byteLength":24,
			"byteOffset":717284
		},
		{
			"buffer":0,
			"byteLength":1428,
			"byteOffset":717308
		},
		{
			"buffer":0,
			"byteLength":32,
			"byteOffset":718736
		},
		{
			"buffer":0,
			"byteLength":24,
			"byteOffset":718768
		},
		{
			"buffer":0,
			"byteLength":1428,
			"byteOffset":718792
		},
		{
			"buffer":0,
			"byteLength":1904,
			"byteOffset":720220
		},
		{
			"buffer":0,
			"byteLength":24,
			"byteOffset":722124
		},
		{
			"buffer":0,
			"byteLength":1428,
			"byteOffset":722148
		},
		{
			"buffer":0,
			"byteLength":1904,
			"byteOffset":723576
		},
		{
			"buffer":0,
			"byteLength":24,
			"byteOffset":725480
		},
		{
			"buffer":0,
			"byteLength":1428,
			"byteOffset":725504
		},
		{
			"buffer":0,
			"byteLength":1904,
			"byteOffset":726932
		},
		{
			"buffer":0,
			"byteLength":24,
			"byteOffset":728836
		},
		{
			"buffer":0,
			"byteLength":1428,
			"byteOffset":728860
		},
		{
			"buffer":0,
			"byteLength":1904,
			"byteOffset":730288
		},
		{
			"buffer":0,
			"byteLength":24,
			"byteOffset":732192
		},
		{
			"buffer":0,
			"byteLength":1428,
			"byteOffset":732216
		},
		{
			"buffer":0,
			"byteLength":32,
			"byteOffset":733644
		},
		{
			"buffer":0,
			"byteLength":24,
			"byteOffset":733676
		},
		{
			"buffer":0,
			"byteLength":1428,
			"byteOffset":733700
		},
		{
			"buffer":0,
			"byteLength":1904,
			"byteOffset":735128
		},
		{
			"buffer":0,
			"byteLength":24,
			"byteOffset":737032
		},
		{
			"buffer":0,
			"byteLength":1428,
			"byteOffset":737056
		},
		{
			"buffer":0,
			"byteLength":1904,
			"byteOffset":738484
		},
		{
			"buffer":0,
			"byteLength":24,
			"byteOffset":740388
		},
		{
			"buffer":0,
			"byteLength":1428,
			"byteOffset":740412
		},
		{
			"buffer":0,
			"byteLength":1904,
			"byteOffset":741840
		},
		{
			"buffer":0,
			"byteLength":24,
			"byteOffset":743744
		},
		{
			"buffer":0,
			"byteLength":1428,
			"byteOffset":743768
		},
		{
			"buffer":0,
			"byteLength":1904,
			"byteOffset":745196
		},
		{
			"buffer":0,
			"byteLength":24,
			"byteOffset":747100
		},
		{
			"buffer":0,
			"byteLength":1428,
			"byteOffset":747124
		},
		{
			"buffer":0,
			"byteLength":32,
			"byteOffset":748552
		},
		{
			"buffer":0,
			"byteLength":24,
			"byteOffset":748584
		}
	],
	"samplers":[
		{
			"magFilter":9729,
			"minFilter":9987
		}
	],
	"buffers":[
		{
			"byteLength":748608,
			"uri":"%E7%84%A1%E9%A1%8C.bin"
		}
	]
}
